<svg width="140" height="28" viewBox="0 0 140 28" fill="none" xmlns="http://www.w3.org/2000/svg">
<g clip-path="url(#clip0_1_1104)">
<path d="M75.2365 23.838C75.2375 23.6859 75.2971 23.54 75.403 23.4305C75.5085 23.3211 75.6521 23.2564 75.8042 23.2498C75.86 23.2492 75.9149 23.2603 75.966 23.2824C76.0172 23.3044 76.0631 23.3369 76.1009 23.3779C76.1387 23.4188 76.1674 23.4671 76.1854 23.5199C76.2034 23.5726 76.2098 23.6284 76.2049 23.6839C76.2062 23.8352 76.1482 23.981 76.0428 24.0896C75.9375 24.1983 75.7937 24.2611 75.6424 24.2645C75.5869 24.2661 75.5317 24.256 75.4803 24.2348C75.4289 24.2137 75.3827 24.182 75.3444 24.1418C75.3061 24.1015 75.2766 24.0537 75.2581 24.0014C75.2396 23.9491 75.2321 23.8934 75.2365 23.838Z" fill="#011B33"/>
<path d="M77.104 23.838C77.1051 23.6859 77.1647 23.54 77.2705 23.4305C77.3761 23.3211 77.5197 23.2564 77.6717 23.2498C77.7275 23.2492 77.7824 23.2603 77.8336 23.2824C77.8847 23.3044 77.9307 23.3369 77.9684 23.3779C78.0062 23.4188 78.035 23.4671 78.0529 23.5199C78.0709 23.5726 78.0773 23.6284 78.0725 23.6839C78.0732 23.835 78.0147 23.9804 77.9096 24.0889C77.8043 24.1974 77.6609 24.2604 77.5099 24.2645C77.4544 24.2661 77.3992 24.256 77.3478 24.2348C77.2964 24.2137 77.2502 24.182 77.2119 24.1418C77.1736 24.1015 77.1441 24.0537 77.1256 24.0014C77.1071 23.9491 77.0997 23.8934 77.104 23.838Z" fill="#011B33"/>
<path d="M78.9716 23.838C78.9726 23.6859 79.0322 23.54 79.138 23.4305C79.2436 23.3211 79.3872 23.2564 79.5393 23.2498C79.595 23.2492 79.65 23.2603 79.7011 23.2824C79.7522 23.3044 79.7982 23.3369 79.836 23.3779C79.8737 23.4188 79.9025 23.4671 79.9205 23.5199C79.9385 23.5726 79.9449 23.6284 79.94 23.6839C79.9408 23.835 79.8822 23.9804 79.7771 24.0889C79.6718 24.1974 79.5285 24.2604 79.3774 24.2645C79.3219 24.2661 79.2667 24.256 79.2153 24.2348C79.164 24.2137 79.1177 24.182 79.0794 24.1418C79.0412 24.1015 79.0116 24.0537 78.9931 24.0014C78.9746 23.9491 78.9672 23.8934 78.9716 23.838Z" fill="#011B33"/>
<path d="M80.2123 25.4487L80.4435 24.9144C80.5223 24.957 80.6107 24.9782 80.7004 24.9761C80.9881 24.9761 81.2681 24.7192 81.4556 24.3518L81.5583 24.1489L80.9752 20.8095H81.6893L81.9 22.51C81.9385 22.8131 81.9693 23.2036 81.9873 23.5221H82.013C82.162 23.2062 82.3315 22.826 82.4857 22.51L83.3334 20.8069H84.0501L82.1517 24.3595C81.7381 25.0942 81.3194 25.5669 80.6464 25.5669C80.4948 25.559 80.3469 25.5187 80.2123 25.4487Z" fill="#011B33"/>
<path d="M84.0219 22.8929C84.0219 21.6085 84.9518 20.73 85.8765 20.73C86.6343 20.73 87.1352 21.2617 87.1352 22.1017C87.1352 23.3861 86.2053 24.2647 85.278 24.2647C84.5151 24.2647 84.0219 23.7329 84.0219 22.8929ZM86.3903 22.1223C86.3903 21.6085 86.1848 21.3234 85.7969 21.3234C85.2626 21.3234 84.7694 22.0015 84.7694 22.8647C84.7694 23.3784 84.9749 23.6636 85.3602 23.6636C85.8945 23.6661 86.3903 22.988 86.3903 22.1274V22.1223Z" fill="#011B33"/>
<path d="M90.2692 24.1823H89.6681L89.7015 23.6994H89.6732C89.3773 24.0183 88.9755 24.2191 88.5429 24.2645C87.9804 24.2645 87.744 23.9537 87.744 23.4117C87.7453 23.2526 87.7633 23.0942 87.798 22.939L88.2244 20.8069H88.9591L88.5507 22.8414C88.5201 22.9581 88.5018 23.0778 88.4967 23.1984C88.4869 23.2563 88.4908 23.3156 88.5083 23.3716C88.5255 23.4277 88.5558 23.4789 88.5966 23.5211C88.6372 23.5633 88.6873 23.5954 88.7428 23.6147C88.798 23.6341 88.8571 23.6402 88.9154 23.6326C89.144 23.6326 89.4061 23.4707 89.7477 23.1188L90.1998 20.8069H90.9371L90.2692 24.1823Z" fill="#011B33"/>
<path d="M91.9646 20.807H92.5657L92.504 21.4569H92.5323C92.7892 21.0408 93.1694 20.7248 93.5598 20.7248C93.6752 20.7199 93.7902 20.741 93.8963 20.7865L93.6395 21.4338C93.5408 21.3908 93.4334 21.3715 93.3261 21.3773C93.0101 21.3773 92.6864 21.6342 92.409 22.1479L92.0108 24.185H91.2762L91.9646 20.807Z" fill="#011B33"/>
<path d="M95.8512 24.5138L95.6585 25.5182H94.9239L95.8692 20.8071H96.4703L96.4523 21.2206H96.4728C96.7683 20.9325 97.1556 20.757 97.5672 20.7249C98.1606 20.7249 98.5279 21.1641 98.5279 21.9553C98.5279 23.2397 97.6494 24.2672 96.7297 24.2672C96.5777 24.2655 96.4287 24.2237 96.2979 24.1462C96.1672 24.0686 96.0593 23.958 95.9848 23.8254H95.9719L95.8512 24.5138ZM96.4035 21.8346L96.1158 23.2705C96.16 23.3844 96.2365 23.4828 96.3359 23.5536C96.4356 23.6244 96.5538 23.6644 96.6758 23.6687C97.2435 23.6687 97.7675 22.9366 97.7675 22.0683C97.7675 21.5777 97.5723 21.3465 97.2666 21.3465C97.0958 21.36 96.9301 21.4106 96.7809 21.4949C96.6319 21.5793 96.5029 21.6952 96.4035 21.8346Z" fill="#011B33"/>
<path d="M100.871 20.73C101.654 20.73 101.944 21.2771 101.944 21.9733C101.938 22.2181 101.889 22.46 101.798 22.6874H99.7429C99.6736 23.399 100.064 23.6995 100.578 23.6995C100.827 23.6832 101.065 23.5938 101.264 23.4426L101.533 23.9127C101.196 24.1475 100.794 24.2722 100.383 24.2698C99.5785 24.2698 99.0314 23.756 99.0314 22.8441C99.0339 21.5777 99.9844 20.73 100.871 20.73ZM101.3 22.2199C101.322 22.123 101.333 22.0239 101.333 21.9245C101.333 21.5982 101.194 21.3028 100.783 21.3028C100.372 21.3028 99.9741 21.6445 99.8123 22.2199H101.3Z" fill="#011B33"/>
<path d="M104.428 22.0914C104.448 22.0168 104.457 21.9399 104.457 21.8628C104.457 21.4621 104.272 21.3182 103.928 21.3182C103.615 21.3352 103.312 21.4316 103.046 21.5982L102.815 21.0845C103.205 20.8739 103.639 20.7561 104.082 20.7402C104.775 20.7402 105.186 21.0639 105.186 21.7934C105.184 21.9534 105.165 22.1127 105.13 22.2687L104.75 24.1927H104.151V23.8254H104.128C103.85 24.0939 103.486 24.2535 103.1 24.2749C102.989 24.2807 102.878 24.2633 102.774 24.2238C102.67 24.1843 102.576 24.1236 102.496 24.0456C102.417 23.9675 102.355 23.8738 102.314 23.7705C102.273 23.6671 102.254 23.5563 102.258 23.4452C102.273 22.4613 103.19 22.1171 104.428 22.0914ZM102.992 23.2936C102.992 23.5659 103.18 23.6995 103.445 23.6995C103.728 23.6714 103.991 23.5407 104.184 23.3322L104.341 22.5615C103.46 22.5692 102.992 22.8389 102.992 23.2859V23.2936Z" fill="#011B33"/>
<path d="M105.803 22.8927C105.803 21.6854 106.686 20.7298 107.737 20.7298C107.907 20.728 108.075 20.7641 108.228 20.8357C108.382 20.9073 108.518 21.0124 108.626 21.1434L108.207 21.5775C108.148 21.4973 108.07 21.4322 107.981 21.3876C107.892 21.343 107.793 21.32 107.693 21.3206C107.087 21.3206 106.558 22.0219 106.558 22.8619C106.558 23.3757 106.784 23.6608 107.239 23.6608C107.474 23.6508 107.699 23.5601 107.876 23.4039L108.192 23.8689C107.877 24.1203 107.487 24.2579 107.085 24.2593C106.35 24.2645 105.803 23.7661 105.803 22.8927Z" fill="#011B33"/>
<path d="M110.586 20.73C111.357 20.73 111.66 21.2771 111.66 21.9733C111.653 22.2183 111.602 22.4601 111.511 22.6874H109.456C109.386 23.399 109.779 23.6995 110.29 23.6995C110.539 23.6832 110.778 23.5938 110.976 23.4426L111.246 23.9127C110.909 24.1479 110.507 24.2727 110.095 24.2698C109.291 24.2698 108.747 23.756 108.747 22.8441C108.749 21.5777 109.689 20.73 110.586 20.73ZM111.012 22.2199C111.035 22.123 111.046 22.0239 111.046 21.9245C111.046 21.5982 110.907 21.3028 110.496 21.3028C110.085 21.3028 109.687 21.6445 109.525 22.2199H111.012Z" fill="#011B33"/>
<path d="M111.703 24.971C111.9 24.9252 112.08 24.8281 112.226 24.6895C112.372 24.5509 112.479 24.3759 112.536 24.1824L112.613 23.5839L112.803 24.0976C112.73 24.1594 112.641 24.1971 112.546 24.2055C112.488 24.2113 112.43 24.2049 112.375 24.1867C112.32 24.1684 112.27 24.1388 112.227 24.0998C112.185 24.0608 112.151 24.0132 112.128 23.9601C112.105 23.9071 112.093 23.8498 112.094 23.7919C112.091 23.7208 112.103 23.6498 112.129 23.5834C112.155 23.5171 112.194 23.4569 112.245 23.4067C112.295 23.3564 112.356 23.3172 112.422 23.2916C112.488 23.2659 112.559 23.2544 112.631 23.2576C112.936 23.2576 113.106 23.4708 113.106 23.8176C113.106 24.1914 112.976 24.5536 112.738 24.8422C112.501 25.1308 112.17 25.328 111.803 25.4L111.703 24.971Z" fill="#011B33"/>
<path d="M115.377 22.8929C115.377 21.6085 116.309 20.73 117.234 20.73C117.992 20.73 118.49 21.2617 118.49 22.1017C118.49 23.3861 117.56 24.2647 116.635 24.2647C115.878 24.2647 115.377 23.7329 115.377 22.8929ZM117.748 22.1223C117.748 21.6085 117.542 21.3234 117.154 21.3234C116.617 21.3234 116.127 22.0015 116.127 22.8647C116.127 23.3784 116.332 23.6636 116.72 23.6636C117.249 23.6661 117.748 22.988 117.748 22.1274V22.1223Z" fill="#011B33"/>
<path d="M121.624 24.1823H121.023L121.056 23.6994H121.031C120.734 24.0188 120.331 24.2197 119.898 24.2645C119.335 24.2645 119.099 23.9537 119.099 23.4117C119.1 23.2525 119.119 23.0939 119.155 22.939L119.579 20.8069H120.317L119.906 22.8414C119.876 22.9584 119.858 23.078 119.852 23.1984C119.842 23.2564 119.847 23.3158 119.864 23.3718C119.882 23.4278 119.912 23.4789 119.954 23.521C119.994 23.5632 120.044 23.5952 120.1 23.6146C120.155 23.6339 120.215 23.6401 120.273 23.6326C120.499 23.6326 120.763 23.4707 121.103 23.1188L121.557 20.8069H122.292L121.624 24.1823Z" fill="#011B33"/>
<path d="M123.317 20.8069H123.918L123.859 21.4568H123.885C124.141 21.0406 124.522 20.7247 124.912 20.7247C125.028 20.7194 125.144 20.7405 125.251 20.7863L124.994 21.4337C124.896 21.391 124.788 21.3716 124.681 21.3772C124.365 21.3772 124.041 21.634 123.764 22.1478L123.366 24.1849H122.628L123.317 20.8069Z" fill="#011B33"/>
<path d="M126.256 24.8707C126.256 24.4546 126.633 24.1797 127.013 24.0102V23.987C126.948 23.9323 126.895 23.8634 126.86 23.7856C126.825 23.7077 126.808 23.6229 126.81 23.5375C126.823 23.4025 126.869 23.2729 126.946 23.161C127.022 23.0491 127.126 22.9585 127.247 22.8979V22.8619C127.134 22.7685 127.042 22.6507 126.981 22.5173C126.919 22.3839 126.888 22.2383 126.89 22.0913C126.89 21.906 126.927 21.7226 126.998 21.5519C127.07 21.3812 127.175 21.2267 127.308 21.0975C127.441 20.9684 127.599 20.8672 127.771 20.8001C127.944 20.7329 128.128 20.7011 128.313 20.7067C128.464 20.7037 128.613 20.7317 128.752 20.7889H129.952L129.847 21.3463H129.261C129.337 21.4701 129.376 21.6123 129.377 21.7573C129.377 22.5434 128.778 23.0931 127.943 23.0931C127.831 23.0946 127.719 23.0772 127.612 23.0417C127.555 23.0776 127.507 23.1266 127.472 23.1847C127.438 23.2428 127.418 23.3083 127.414 23.3757C127.414 23.576 127.525 23.6557 128.013 23.7096C128.94 23.8252 129.225 24.0564 129.225 24.4802C129.225 25.2663 128.37 25.6593 127.532 25.6593C127.001 25.6876 126.256 25.5129 126.256 24.8707ZM128.506 24.678C128.506 24.4212 128.231 24.3261 127.787 24.2747C127.679 24.2593 127.53 24.2336 127.383 24.1977C127.162 24.3107 126.893 24.5034 126.893 24.7371C126.893 25.0557 127.173 25.1995 127.612 25.1995C128.126 25.1995 128.506 24.9786 128.506 24.678ZM128.74 21.7933C128.74 21.4542 128.568 21.2461 128.288 21.2461C127.866 21.2461 127.568 21.6751 127.568 22.1015C127.568 22.4406 127.74 22.6487 128.02 22.6487C128.442 22.6487 128.74 22.2197 128.74 21.7933Z" fill="#011B33"/>
<path d="M129.957 22.8929C129.957 21.6085 130.887 20.73 131.815 20.73C132.585 20.73 133.071 21.2617 133.071 22.1017C133.071 23.3861 132.141 24.2647 131.216 24.2647C130.458 24.2647 129.957 23.7329 129.957 22.8929ZM132.326 22.1223C132.326 21.6085 132.12 21.3234 131.735 21.3234C131.198 21.3234 130.707 22.0015 130.707 22.8647C130.707 23.3784 130.913 23.6636 131.301 23.6636C131.83 23.6661 132.326 22.988 132.326 22.1274V22.1223Z" fill="#011B33"/>
<path d="M135.591 22.0914C135.612 22.0171 135.622 21.9401 135.621 21.8628C135.621 21.4621 135.434 21.3182 135.092 21.3182C134.78 21.3352 134.476 21.4316 134.211 21.5982L133.98 21.0845C134.37 20.8735 134.803 20.7557 135.246 20.7402C135.94 20.7402 136.348 21.0639 136.348 21.7934C136.347 21.9533 136.329 22.1126 136.294 22.2687L135.912 24.1927H135.316V23.8254H135.293C135.015 24.0939 134.65 24.2535 134.265 24.2749C134.154 24.2807 134.043 24.2633 133.939 24.2238C133.835 24.1843 133.74 24.1237 133.66 24.0457C133.581 23.9677 133.518 23.874 133.477 23.7707C133.436 23.6673 133.416 23.5565 133.42 23.4452C133.435 22.4613 134.35 22.1171 135.591 22.0914ZM134.155 23.2936C134.155 23.5659 134.345 23.6995 134.609 23.6995C134.892 23.6717 135.154 23.541 135.347 23.3322L135.506 22.5615C134.625 22.5692 134.155 22.8389 134.155 23.2859V23.2936Z" fill="#011B33"/>
<path d="M137.864 19.335H138.601L137.628 24.1823H136.893L137.864 19.335Z" fill="#011B33"/>
<path d="M139.269 7.50566L140.05 4.77759H130.003L128.385 7.50566H139.269Z" fill="#011B33"/>
<path d="M138.129 11.4975L138.979 8.52539H128.93L126.823 15.8825H136.872L137.684 13.0439H132.03L132.475 11.4975H138.129Z" fill="#011B33"/>
<path d="M126.744 7.50565L128.359 4.78272H120.139C119.368 4.78169 118.617 5.03182 118.001 5.49531C117.385 5.95877 116.936 6.61035 116.723 7.35153L116.679 7.50308L126.744 7.50565Z" fill="#011B33"/>
<path d="M116.397 8.52539L115.305 12.3555C115.187 12.7673 115.167 13.2009 115.245 13.622C115.323 14.0431 115.498 14.4403 115.756 14.7822C116.014 15.1242 116.348 15.4015 116.732 15.5924C117.115 15.7834 117.538 15.8826 117.966 15.8825H124.347L125.159 13.0568H119.076L120.36 8.53823L116.397 8.52539Z" fill="#011B33"/>
<path d="M104.976 8.52539L98.6486 15.8825H103.475L107.246 11.4975H109.671L110.699 15.8825H114.999L113.273 8.52539H104.976Z" fill="#011B33"/>
<path d="M113.034 7.50566L112.394 4.78016L112.397 4.77759H108.199L105.852 7.50566H113.034Z" fill="#011B33"/>
<path d="M100.267 11.4975L101.12 8.52539H91.0707L88.9642 15.8825H99.0134L99.8252 13.0439H94.1712L94.6156 11.4975H100.267Z" fill="#011B33"/>
<path d="M101.41 7.50566L102.191 4.77759H92.1444L90.5261 7.50566H101.41Z" fill="#011B33"/>
<path d="M77.4894 8.52539L75.3829 15.8825H79.1668L80.4229 11.4975H85.5606C86.4709 11.4967 87.3579 11.209 88.0957 10.6756C88.8335 10.1421 89.3845 9.38974 89.6706 8.52539H77.4894Z" fill="#011B33"/>
<path d="M89.9635 7.50566C90.0277 7.17405 90.0182 6.83235 89.935 6.50496C89.8517 6.17756 89.6973 5.87259 89.4826 5.61191C89.2678 5.3512 88.9979 5.14123 88.6924 4.99699C88.387 4.85275 88.0536 4.77782 87.7158 4.77759H78.5605L76.9448 7.50566H89.9635Z" fill="#011B33"/>
<path d="M66.4949 7.50566C66.5588 7.1739 66.5486 6.83215 66.4651 6.50475C66.3816 6.17738 66.227 5.87249 66.0119 5.61186C65.7969 5.35123 65.5272 5.14131 65.2215 4.99707C64.9161 4.85285 64.5824 4.77792 64.2446 4.77759H55.0406L53.4325 7.50566H66.4949Z" fill="#011B33"/>
<path d="M66.2046 8.52539H53.9668L51.8604 15.8825H55.6468L56.9004 11.4975H61.1928L59.9393 15.8825H63.7231L64.5657 12.936C64.6625 12.6015 64.6713 12.2477 64.5911 11.9088C64.511 11.5699 64.3448 11.2574 64.1084 11.0017C65.102 10.4797 65.8537 9.59165 66.2046 8.52539Z" fill="#011B33"/>
<path d="M51.904 7.50563L52.6798 4.79297H48.6571L47.8813 7.50563H51.904Z" fill="#011B33"/>
<path d="M44.136 7.50563L43.5195 4.79297H39.3246L36.933 7.50563H44.136Z" fill="#011B33"/>
<path d="M47.5884 8.52539L45.7903 14.8113L44.3646 8.52539H36.0365L33.6295 11.2586H40.7811L41.9782 15.8825H49.5048L51.6112 8.52539H47.5884Z" fill="#011B33"/>
<path d="M28.515 11.7108C28.5001 11.4933 28.4709 11.2771 28.4277 11.0635C28.3969 10.917 28.3686 10.8271 28.3327 10.6602C27.8492 8.25568 26.6033 6.07117 24.78 4.43081C24.7266 4.38326 24.6699 4.33949 24.6104 4.2998C24.2097 3.94273 23.7936 3.59851 23.3646 3.27228C21.37 1.71554 19.0282 0.664928 16.5392 0.210254C15.0637 -0.0455506 13.5572 -0.068088 12.0747 0.143465C10.6923 0.347457 9.3398 0.718359 8.04676 1.24805C6.14713 1.98266 4.47319 3.20225 3.19172 4.7853L3.0941 4.90861C3.0839 4.92304 3.07276 4.93676 3.06071 4.94971C2.88364 5.16153 2.71813 5.38278 2.56493 5.61246C2.55845 5.62099 2.54946 5.62725 2.53924 5.63044C2.15905 6.18273 1.76859 6.82494 1.73006 6.89429C0.713945 8.61727 0.0650129 10.5317 -0.175992 12.5174C-0.467932 14.9998 0.0348165 17.5109 1.25997 19.6895C1.33447 19.8231 1.40896 19.9464 1.49373 20.0851C1.56007 20.2215 1.64668 20.3471 1.75061 20.4576C0.851687 18.7507 0.361854 16.8582 0.319787 14.9295V14.7728C0.319787 14.6752 0.319787 14.5776 0.319787 14.4826C0.351651 13.4696 0.512204 12.4649 0.797585 11.4925C1.14765 10.3265 1.65771 9.21477 2.31318 8.18897C2.31318 8.18897 2.35942 8.11448 2.44419 7.98604C2.79748 7.45704 3.18267 6.95004 3.59759 6.46787C3.60822 6.45382 3.62027 6.44092 3.63355 6.42934C3.82621 6.20328 4.03429 5.97209 4.25777 5.74347L4.27062 5.73062C4.45043 5.55081 4.63539 5.37099 4.83062 5.20145C5.4739 4.59914 6.18011 4.06778 6.93704 3.6165C8.57607 2.67038 10.3922 2.07142 12.2725 1.85686C13.6726 1.67632 15.0924 1.71619 16.4802 1.97502C18.1343 2.2846 19.7141 2.90712 21.1348 3.80916C22.4492 4.646 23.6369 5.66676 24.6618 6.84035C24.6812 6.8629 24.7027 6.88353 24.726 6.902C26.609 9.21393 27.1279 12.6381 27.1484 12.7897C27.1844 13.3394 27.1998 13.8892 27.1921 14.444C27.1921 14.6033 27.1921 14.7651 27.1921 14.927C27.1487 16.2156 26.9478 17.4941 26.5936 18.7339C25.8864 21.2316 24.3555 23.4169 22.2497 24.935C20.6165 26.0975 18.79 26.9612 16.8552 27.4857C16.3414 27.6321 15.8277 27.758 15.3011 27.8967C15.3499 27.8996 15.3987 27.8996 15.4475 27.8967C15.8354 27.8299 16.2181 27.7657 16.6086 27.6835C18.3052 27.3365 19.9424 26.7446 21.4688 25.9265C23.0866 25.0664 24.5135 23.8876 25.6637 22.4613C27.5004 20.1493 28.3506 17.4906 28.533 14.5827C28.6026 13.6264 28.5965 12.6661 28.515 11.7108Z" fill="#011B33"/>
<path d="M34.6545 4.29969C34.656 4.25895 34.6481 4.21841 34.6309 4.18139C34.6136 4.1444 34.588 4.11201 34.5558 4.08691C34.5237 4.06182 34.4862 4.04473 34.4462 4.03705C34.4061 4.0294 34.3647 4.03135 34.3257 4.04281L33.3829 4.18152C32.0672 4.37133 30.7692 4.66772 29.5015 5.06776C28.8382 5.27743 28.1867 5.5218 27.5492 5.79987C27.5132 5.81528 27.4593 5.8718 27.4105 5.85895L27.0174 6.04134L26.984 6.05932C26.6912 6.1929 26.406 6.34703 26.1132 6.48574C24.8198 7.10917 23.6836 8.01619 22.7891 9.13932C21.8032 10.3757 20.9354 11.7019 20.1972 13.1004C19.9557 13.5448 19.7246 13.9918 19.4857 14.4388C19.1774 15.0964 18.3811 14.7779 18.0368 14.6006C17.9809 14.5761 17.9275 14.546 17.8776 14.5107C17.8031 14.4619 17.7312 14.4105 17.6567 14.3694C16.5129 13.7338 15.2644 13.3083 13.9704 13.1133C12.4669 12.9069 10.9367 13.0207 9.48015 13.4472C8.70951 13.6681 7.92089 13.9096 7.16823 14.1819C7.00639 14.241 6.48749 14.4388 5.40859 14.8626L5.27759 14.9166L5.22621 14.9371C5.15171 14.9679 5.07465 14.9988 5.00272 15.0322C4.98983 15.0474 4.97367 15.0594 4.95541 15.0675C4.93717 15.0755 4.91731 15.0792 4.8974 15.0784L4.64052 15.2017C4.38364 15.3276 4.12676 15.4586 3.86988 15.587C3.26364 15.9261 2.85006 16.183 2.82694 16.201C2.38159 16.4921 1.96904 16.8306 1.59648 17.2105C2.08969 17.1386 2.54951 17.0692 3.0119 17.0076C4.88764 16.7214 6.78404 16.5925 8.68125 16.6223C9.74448 16.6323 10.8008 16.795 11.8178 17.1052C12.524 17.3137 13.1658 17.6982 13.6827 18.2226C13.7726 18.3202 13.7675 18.3588 13.6339 18.3922C13.3411 18.4667 13.0559 18.5591 12.7631 18.6311C11.8717 18.852 10.9649 19.0164 10.0838 19.281C9.69465 19.3748 9.32508 19.5365 8.99208 19.7588C8.60162 20.049 8.58878 20.1158 8.91502 20.4986C9.24842 20.8427 9.66801 21.0911 10.1301 21.2179C11.2515 21.573 12.4068 21.8106 13.5774 21.9268C13.6853 21.9268 13.6956 21.9089 13.6622 21.819C13.588 21.6224 13.5463 21.415 13.5389 21.205C13.521 21.0273 13.5667 20.849 13.6678 20.7019C13.7689 20.5547 13.9189 20.4481 14.0912 20.401C14.3925 20.3002 14.7046 20.2346 15.0211 20.2057C15.6992 20.1364 16.3825 20.1467 17.0607 20.0645C17.9605 19.9744 18.8385 19.733 19.6578 19.3503C20.554 18.8785 21.3594 18.2514 22.0365 17.4982C22.653 16.8526 23.2652 16.2044 23.8732 15.5536C23.9682 15.4509 24.0402 15.4175 24.1712 15.4997C24.3022 15.5819 24.5051 15.6692 24.6695 15.7566C24.7491 15.8002 24.7902 15.8054 24.7902 15.6923C24.8002 15.4025 24.7804 15.1124 24.7312 14.8267C24.7106 14.6481 24.6546 14.4754 24.5663 14.3188C24.4781 14.1622 24.3595 14.0248 24.2174 13.9147C24.0875 13.8137 23.9352 13.7453 23.7734 13.7153C23.6116 13.6854 23.4449 13.6947 23.2875 13.7426C23.3055 13.6835 23.3158 13.6399 23.3286 13.5988C23.5649 12.9174 23.8606 12.2581 24.2123 11.6285C24.5758 10.9708 25.0594 10.387 25.638 9.90739C25.6752 9.87366 25.7192 9.84805 25.7669 9.83213C25.8147 9.81623 25.8653 9.81034 25.9154 9.81492C26.049 9.8256 26.1831 9.79881 26.3025 9.73754C26.4217 9.67628 26.5216 9.583 26.591 9.46813C26.6732 9.34226 26.7066 9.1984 26.7811 9.05712C27.002 9.46299 27.3796 9.54262 27.7752 9.5529C27.9738 9.5641 28.1695 9.50078 28.3239 9.37537C28.4783 9.24993 28.5803 9.07143 28.6101 8.87473C28.9954 9.1162 29.1701 9.09565 29.3499 8.76171C29.4244 8.62042 29.4963 8.54079 29.6659 8.56391C29.746 8.56555 29.8238 8.53714 29.8842 8.48427C30.0214 8.3806 30.1185 8.23266 30.1591 8.06556C30.1873 7.97565 30.213 7.96281 30.2978 8.01161C30.3746 8.06024 30.4637 8.08606 30.5547 8.08606C30.6456 8.08606 30.7347 8.06024 30.8116 8.01161C30.9449 7.92386 31.0535 7.80364 31.1275 7.66226C31.1686 7.59033 31.1994 7.55693 31.2971 7.57749C31.3636 7.60479 31.4355 7.61602 31.5072 7.61029C31.5789 7.60456 31.6482 7.58201 31.7094 7.54445C31.7707 7.50692 31.8224 7.45547 31.8601 7.39425C31.8976 7.33304 31.9205 7.26381 31.9264 7.19216C31.9318 7.15399 31.9483 7.11826 31.9739 7.08946C31.9994 7.06067 32.033 7.04009 32.0703 7.03033C32.2205 6.98948 32.351 6.89583 32.4379 6.76654C32.5247 6.63728 32.5619 6.48102 32.5429 6.32648C32.5414 6.24733 32.5345 6.16839 32.5224 6.09015C32.5224 6.04648 32.5224 6.00537 32.5686 6.00281C32.6197 6.00905 32.6714 6.00378 32.7202 5.98739C32.7189 5.97201 32.7189 5.95654 32.7202 5.94115L32.7433 5.97198C32.7798 5.95076 32.8109 5.92184 32.835 5.88721C32.8589 5.85258 32.8748 5.81313 32.882 5.77161C32.882 5.77161 32.882 5.77161 32.882 5.7562C32.8807 5.74595 32.8807 5.7356 32.882 5.72537C32.8943 5.58566 32.874 5.44496 32.8229 5.31437C33.0927 5.35547 33.3367 5.39914 33.573 5.42739C33.683 5.44543 33.796 5.43715 33.9021 5.40322C34.0084 5.36929 34.105 5.31067 34.1844 5.23216C34.3647 5.05892 34.5096 4.85211 34.6108 4.62336C34.6524 4.52091 34.6676 4.40953 34.6545 4.29969Z" fill="#011B33"/>
</g>
<defs>
<clipPath id="clip0_1_1104">
<rect width="140" height="28" fill="white"/>
</clipPath>
</defs>
</svg>
