<svg width="300" height="80" viewBox="0 0 300 80" fill="none" xmlns="http://www.w3.org/2000/svg">
<path d="M76.1217 63V16.4545H85.8035V33.9545H86.099C86.5232 33.0152 87.1369 32.0606 87.9399 31.0909C88.7581 30.1061 89.8187 29.2879 91.1217 28.6364C92.4399 27.9697 94.0762 27.6364 96.0308 27.6364C98.5762 27.6364 100.925 28.303 103.076 29.6364C105.228 30.9545 106.947 32.947 108.235 35.6136C109.523 38.2652 110.167 41.5909 110.167 45.5909C110.167 49.4848 109.538 52.7727 108.281 55.4545C107.038 58.1212 105.341 60.1439 103.19 61.5227C101.054 62.8864 98.6596 63.5682 96.0081 63.5682C94.1293 63.5682 92.5308 63.2576 91.2126 62.6364C89.9096 62.0152 88.8414 61.2348 88.0081 60.2955C87.1747 59.3409 86.5384 58.3788 86.099 57.4091H85.6672V63H76.1217ZM85.599 45.5455C85.599 47.6212 85.8869 49.4318 86.4626 50.9773C87.0384 52.5227 87.8717 53.7273 88.9626 54.5909C90.0535 55.4394 91.3793 55.8636 92.9399 55.8636C94.5156 55.8636 95.849 55.4318 96.9399 54.5682C98.0308 53.6894 98.8566 52.4773 99.4172 50.9318C99.9929 49.3712 100.281 47.5758 100.281 45.5455C100.281 43.5303 100 41.7576 99.4399 40.2273C98.8793 38.697 98.0535 37.5 96.9626 36.6364C95.8717 35.7727 94.5308 35.3409 92.9399 35.3409C91.3641 35.3409 90.0308 35.7576 88.9399 36.5909C87.8641 37.4242 87.0384 38.6061 86.4626 40.1364C85.8869 41.6667 85.599 43.4697 85.599 45.5455ZM131.12 63.6818C127.59 63.6818 124.537 62.9318 121.961 61.4318C119.4 59.9167 117.423 57.8106 116.029 55.1136C114.635 52.4015 113.938 49.2576 113.938 45.6818C113.938 42.0758 114.635 38.9242 116.029 36.2273C117.423 33.5152 119.4 31.4091 121.961 29.9091C124.537 28.3939 127.59 27.6364 131.12 27.6364C134.65 27.6364 137.696 28.3939 140.256 29.9091C142.832 31.4091 144.817 33.5152 146.211 36.2273C147.605 38.9242 148.302 42.0758 148.302 45.6818C148.302 49.2576 147.605 52.4015 146.211 55.1136C144.817 57.8106 142.832 59.9167 140.256 61.4318C137.696 62.9318 134.65 63.6818 131.12 63.6818ZM131.166 56.1818C132.772 56.1818 134.113 55.7273 135.188 54.8182C136.264 53.8939 137.075 52.6364 137.62 51.0455C138.181 49.4545 138.461 47.6439 138.461 45.6136C138.461 43.5833 138.181 41.7727 137.62 40.1818C137.075 38.5909 136.264 37.3333 135.188 36.4091C134.113 35.4848 132.772 35.0227 131.166 35.0227C129.544 35.0227 128.181 35.4848 127.075 36.4091C125.984 37.3333 125.158 38.5909 124.597 40.1818C124.052 41.7727 123.779 43.5833 123.779 45.6136C123.779 47.6439 124.052 49.4545 124.597 51.0455C125.158 52.6364 125.984 53.8939 127.075 54.8182C128.181 55.7273 129.544 56.1818 131.166 56.1818ZM124.188 23.3182C122.885 23.3182 121.764 22.8636 120.825 21.9545C119.885 21.0303 119.416 19.9394 119.416 18.6818C119.416 17.3939 119.885 16.303 120.825 15.4091C121.764 14.5151 122.885 14.0682 124.188 14.0682C125.506 14.0682 126.62 14.5151 127.529 15.4091C128.453 16.303 128.916 17.3939 128.916 18.6818C128.916 19.9394 128.453 21.0303 127.529 21.9545C126.62 22.8636 125.506 23.3182 124.188 23.3182ZM138.097 23.3182C136.794 23.3182 135.673 22.8636 134.734 21.9545C133.794 21.0303 133.325 19.9394 133.325 18.6818C133.325 17.3939 133.794 16.303 134.734 15.4091C135.673 14.5151 136.794 14.0682 138.097 14.0682C139.416 14.0682 140.529 14.5151 141.438 15.4091C142.363 16.303 142.825 17.3939 142.825 18.6818C142.825 19.9394 142.363 21.0303 141.438 21.9545C140.529 22.8636 139.416 23.3182 138.097 23.3182ZM153.317 76.0909V28.0909H162.863V33.9545H163.295C163.719 33.0152 164.333 32.0606 165.136 31.0909C165.954 30.1061 167.014 29.2879 168.317 28.6364C169.636 27.9697 171.272 27.6364 173.226 27.6364C175.772 27.6364 178.12 28.303 180.272 29.6364C182.423 30.9545 184.143 32.947 185.431 35.6136C186.719 38.2652 187.363 41.5909 187.363 45.5909C187.363 49.4848 186.734 52.7727 185.476 55.4545C184.234 58.1212 182.537 60.1439 180.386 61.5227C178.249 62.8864 175.855 63.5682 173.204 63.5682C171.325 63.5682 169.726 63.2576 168.408 62.6364C167.105 62.0152 166.037 61.2348 165.204 60.2955C164.37 59.3409 163.734 58.3788 163.295 57.4091H162.999V76.0909H153.317ZM162.795 45.5455C162.795 47.6212 163.083 49.4318 163.658 50.9773C164.234 52.5227 165.067 53.7273 166.158 54.5909C167.249 55.4394 168.575 55.8636 170.136 55.8636C171.711 55.8636 173.045 55.4318 174.136 54.5682C175.226 53.6894 176.052 52.4773 176.613 50.9318C177.189 49.3712 177.476 47.5758 177.476 45.5455C177.476 43.5303 177.196 41.7576 176.636 40.2273C176.075 38.697 175.249 37.5 174.158 36.6364C173.067 35.7727 171.726 35.3409 170.136 35.3409C168.56 35.3409 167.226 35.7576 166.136 36.5909C165.06 37.4242 164.234 38.6061 163.658 40.1364C163.083 41.6667 162.795 43.4697 162.795 45.5455ZM208.446 63.6818C204.856 63.6818 201.765 62.9545 199.174 61.5C196.598 60.0303 194.613 57.9545 193.219 55.2727C191.825 52.5758 191.128 49.3864 191.128 45.7045C191.128 42.1136 191.825 38.9621 193.219 36.25C194.613 33.5379 196.575 31.4242 199.106 29.9091C201.651 28.3939 204.636 27.6364 208.06 27.6364C210.363 27.6364 212.507 28.0076 214.492 28.75C216.492 29.4773 218.234 30.5758 219.719 32.0455C221.219 33.5152 222.386 35.3636 223.219 37.5909C224.053 39.803 224.469 42.3939 224.469 45.3636V48.0227H194.992V42.0227H215.356C215.356 40.6288 215.053 39.3939 214.446 38.3182C213.84 37.2424 213 36.4015 211.924 35.7955C210.863 35.1742 209.628 34.8636 208.219 34.8636C206.75 34.8636 205.446 35.2045 204.31 35.8864C203.189 36.553 202.31 37.4545 201.674 38.5909C201.037 39.7121 200.712 40.9621 200.696 42.3409V48.0455C200.696 49.7727 201.015 51.2652 201.651 52.5227C202.303 53.7803 203.219 54.75 204.401 55.4318C205.583 56.1136 206.984 56.4545 208.606 56.4545C209.681 56.4545 210.666 56.303 211.56 56C212.454 55.697 213.219 55.2424 213.856 54.6364C214.492 54.0303 214.977 53.2879 215.31 52.4091L224.265 53C223.81 55.1515 222.878 57.0303 221.469 58.6364C220.075 60.2273 218.272 61.4697 216.06 62.3636C213.863 63.2424 211.325 63.6818 208.446 63.6818Z" fill="#111111"/>
</svg>
