<svg width="220" height="80" viewBox="0 0 220 80" fill="none" xmlns="http://www.w3.org/2000/svg">
<path d="M41 57.9318V11.3863H50.0363V28.8863H50.3121C50.7081 27.947 51.2809 26.9924 52.0303 26.0227C52.794 25.0379 53.7839 24.2197 55 23.5682C56.2303 22.9015 57.7575 22.5682 59.5818 22.5682C61.9575 22.5682 64.1497 23.2348 66.1573 24.5682C68.1659 25.8863 69.7703 27.8788 70.9724 30.5454C72.1746 33.197 72.7756 36.5227 72.7756 40.5227C72.7756 44.4166 72.1885 47.7045 71.0153 50.3863C69.8552 53.053 68.2714 55.0757 66.2638 56.4545C64.2702 57.8182 62.0354 58.5 59.5606 58.5C57.8071 58.5 56.3152 58.1894 55.0848 57.5682C53.8687 56.947 52.8717 56.1666 52.094 55.2273C51.3161 54.2727 50.7223 53.3106 50.3121 52.3409H49.9091V57.9318H41ZM49.8455 40.4773C49.8455 42.553 50.1142 44.3636 50.6515 45.9091C51.1889 47.4545 51.9667 48.6591 52.9848 49.5227C54.003 50.3712 55.2404 50.7954 56.697 50.7954C58.1676 50.7954 59.4122 50.3636 60.4303 49.5C61.4485 48.6212 62.2192 47.4091 62.7425 45.8636C63.2798 44.303 63.5487 42.5076 63.5487 40.4773C63.5487 38.4621 63.2864 36.6894 62.7637 35.1591C62.2404 33.6288 61.4697 32.4318 60.4515 31.5682C59.4333 30.7045 58.1818 30.2727 56.697 30.2727C55.2262 30.2727 53.9818 30.6894 52.9637 31.5227C51.9596 32.356 51.1889 33.5379 50.6515 35.0682C50.1142 36.5985 49.8455 38.4015 49.8455 40.4773ZM92.3317 58.6136C89.0371 58.6136 86.1876 57.8636 83.7833 56.3636C81.3931 54.8485 79.5479 52.7424 78.2468 50.0454C76.9457 47.3333 76.2952 44.1894 76.2952 40.6136C76.2952 37.0076 76.9457 33.856 78.2468 31.1591C79.5479 28.447 81.3931 26.3409 83.7833 24.8409C86.1876 23.3257 89.0371 22.5682 92.3317 22.5682C95.6264 22.5682 98.4693 23.3257 100.859 24.8409C103.263 26.3409 105.116 28.447 106.417 31.1591C107.718 33.856 108.368 37.0076 108.368 40.6136C108.368 44.1894 107.718 47.3333 106.417 50.0454C105.116 52.7424 103.263 54.8485 100.859 56.3636C98.4693 57.8636 95.6264 58.6136 92.3317 58.6136ZM92.3747 51.1136C93.8736 51.1136 95.1252 50.6591 96.1286 49.75C97.1328 48.8257 97.8897 47.5682 98.3984 45.9773C98.922 44.3863 99.1833 42.5757 99.1833 40.5454C99.1833 38.5151 98.922 36.7045 98.3984 35.1136C97.8897 33.5227 97.1328 32.2651 96.1286 31.3409C95.1252 30.4166 93.8736 29.9545 92.3747 29.9545C90.8608 29.9545 89.5887 30.4166 88.5564 31.3409C87.5381 32.2651 86.7672 33.5227 86.2436 35.1136C85.735 36.7045 85.4801 38.5151 85.4801 40.5454C85.4801 42.5757 85.735 44.3863 86.2436 45.9773C86.7672 47.5682 87.5381 48.8257 88.5564 49.75C89.5887 50.6591 90.8608 51.1136 92.3747 51.1136ZM85.8619 18.25C84.6458 18.25 83.5995 17.7954 82.7231 16.8863C81.8457 15.9621 81.408 14.8712 81.408 13.6136C81.408 12.3257 81.8457 11.2348 82.7231 10.3409C83.5995 9.4469 84.6458 9 85.8619 9C87.092 9 88.1317 9.4469 88.9801 10.3409C89.8425 11.2348 90.2747 12.3257 90.2747 13.6136C90.2747 14.8712 89.8425 15.9621 88.9801 16.8863C88.1317 17.7954 87.092 18.25 85.8619 18.25ZM98.8436 18.25C97.6275 18.25 96.5812 17.7954 95.7048 16.8863C94.8275 15.9621 94.3897 14.8712 94.3897 13.6136C94.3897 12.3257 94.8275 11.2348 95.7048 10.3409C96.5812 9.4469 97.6275 9 98.8436 9C100.075 9 101.113 9.4469 101.962 10.3409C102.825 11.2348 103.256 12.3257 103.256 13.6136C103.256 14.8712 102.825 15.9621 101.962 16.8863C101.113 17.7954 100.075 18.25 98.8436 18.25ZM113.049 71.0227V23.0227H121.959V28.8863H122.362C122.757 27.947 123.331 26.9924 124.08 26.0227C124.843 25.0379 125.833 24.2197 127.049 23.5682C128.28 22.9015 129.807 22.5682 131.631 22.5682C134.007 22.5682 136.198 23.2348 138.207 24.5682C140.215 25.8863 141.82 27.8788 143.022 30.5454C144.224 33.197 144.825 36.5227 144.825 40.5227C144.825 44.4166 144.238 47.7045 143.064 50.3863C141.905 53.053 140.321 55.0757 138.313 56.4545C136.319 57.8182 134.084 58.5 131.61 58.5C129.856 58.5 128.364 58.1894 127.134 57.5682C125.918 56.947 124.921 56.1666 124.143 55.2273C123.365 54.2727 122.771 53.3106 122.362 52.3409H122.085V71.0227H113.049ZM121.895 40.4773C121.895 42.553 122.164 44.3636 122.701 45.9091C123.238 47.4545 124.016 48.6591 125.034 49.5227C126.052 50.3712 127.29 50.7954 128.747 50.7954C130.217 50.7954 131.462 50.3636 132.48 49.5C133.497 48.6212 134.268 47.4091 134.792 45.8636C135.329 44.303 135.597 42.5076 135.597 40.4773C135.597 38.4621 135.336 36.6894 134.813 35.1591C134.29 33.6288 133.519 32.4318 132.501 31.5682C131.482 30.7045 130.231 30.2727 128.747 30.2727C127.276 30.2727 126.031 30.6894 125.013 31.5227C124.009 32.356 123.238 33.5379 122.701 35.0682C122.164 36.5985 121.895 38.4015 121.895 40.4773ZM164.503 58.6136C161.152 58.6136 158.267 57.8863 155.849 56.4318C153.445 54.9621 151.592 52.8863 150.291 50.2045C148.99 47.5076 148.339 44.3182 148.339 40.6363C148.339 37.0454 148.99 33.8939 150.291 31.1818C151.592 28.4697 153.423 26.356 155.785 24.8409C158.161 23.3257 160.947 22.5682 164.142 22.5682C166.292 22.5682 168.293 22.9394 170.146 23.6818C172.012 24.4091 173.638 25.5076 175.024 26.9773C176.424 28.447 177.513 30.2954 178.291 32.5227C179.069 34.7348 179.457 37.3257 179.457 40.2954V42.9545H151.946V36.9545H170.952C170.952 35.5606 170.669 34.3257 170.103 33.25C169.537 32.1742 168.753 31.3333 167.749 30.7273C166.759 30.106 165.606 29.7954 164.291 29.7954C162.92 29.7954 161.703 30.1363 160.642 30.8182C159.596 31.4848 158.776 32.3863 158.182 33.5227C157.588 34.6439 157.284 35.8939 157.269 37.2727V42.9773C157.269 44.7045 157.567 46.197 158.161 47.4545C158.769 48.7121 159.624 49.6818 160.727 50.3636C161.831 51.0454 163.138 51.3863 164.652 51.3863C165.655 51.3863 166.575 51.2348 167.409 50.9318C168.243 50.6288 168.957 50.1742 169.552 49.5682C170.146 48.9621 170.598 48.2197 170.909 47.3409L179.267 47.9318C178.842 50.0833 177.973 51.9621 176.657 53.5682C175.356 55.1591 173.674 56.4015 171.609 57.2954C169.559 58.1742 167.19 58.6136 164.503 58.6136Z" fill="#111111"/>
</svg>
