<svg width="81" height="28" viewBox="0 0 81 28" fill="none" xmlns="http://www.w3.org/2000/svg">
<g clip-path="url(#clip0_1_1143)">
<path d="M1.55311 12.602H0.0739136V9.33332H1.55311V6.88974C1.55311 3.99951 2.68861 2.21143 7.06384 2.21143H7.26977V5.75424H6.95507C6.09511 5.75424 5.71661 6.13274 5.71661 7.26824V9.33332H7.23061V12.602H5.71661V27.671H1.55311V12.602ZM7.8832 2.90027H12.1105V7.02751H7.8832V2.90027ZM7.918 9.33477H12.0815V27.671H7.918V9.33332V9.33477Z" fill="#011B33"/>
<path d="M13.1822 2.21143H17.3457V27.671H13.1822V2.21143Z" fill="#011B33"/>
<path d="M18.3086 9.33351H22.5055V11.329C23.2625 10.2964 24.8113 9.09277 26.2209 9.09277C27.5971 9.09277 28.4571 9.60904 28.7326 11.3638C29.5926 10.2283 31.2791 9.09277 32.5582 9.09277C34.2433 9.09277 35.2063 9.78016 35.2063 12.9111V27.6712H31.0442V14.3903C31.0442 13.4622 30.8992 13.0141 30.3554 13.0141C29.9087 13.0141 29.2895 13.4274 28.8414 13.8741V27.6712H24.6793V14.3903C24.6793 13.4622 24.5415 13.0141 24.0253 13.0141C23.509 13.0141 22.8898 13.4622 22.5113 13.8741V27.6712H18.3086V9.33351Z" fill="#011B33"/>
<path d="M36.6797 2.21143H38.1603V11.7464C38.9159 10.7154 40.2239 9.37247 41.8061 9.37247C43.4927 9.37247 44.3178 10.4398 44.3178 13.7085V27.6768H42.8386V13.8405C42.8386 11.8784 42.7357 10.7777 41.4972 10.7777C40.4995 10.7777 39.158 11.948 38.1618 13.2546V27.671H36.6797V2.21143Z" fill="#011B33"/>
<path d="M45.8666 18.6566C45.8666 12.3947 47.0007 9.3667 49.9939 9.3667C52.9537 9.3667 54.1226 12.3947 54.1226 18.6566C54.1226 24.8489 52.9537 27.9118 49.9939 27.9118C47.034 27.9118 45.8666 24.8489 45.8666 18.6566ZM52.61 18.6218C52.61 14.425 52.2997 10.7429 49.9997 10.7429C47.7968 10.7429 47.3502 14.1146 47.3502 18.6218C47.3502 22.8535 47.659 26.5355 49.9997 26.5355C52.1967 26.5384 52.61 23.203 52.61 18.6218Z" fill="#011B33"/>
<path d="M55.6714 23.5075V9.60889H57.1505V23.3698C57.1505 25.3319 57.2535 26.4326 58.492 26.4326C59.4897 26.4326 60.8311 25.2623 61.8274 23.9556V9.60889H63.3023V27.671H61.8231V25.503C61.0719 26.5384 59.7652 27.8436 58.1831 27.8436C56.4965 27.8436 55.6714 26.7763 55.6714 23.5075Z" fill="#011B33"/>
<path d="M64.1724 24.2994L65.4776 23.8179C66.1316 25.606 67.0945 26.6038 68.6085 26.6038C70.0877 26.6038 70.7418 25.5727 70.7418 23.9934C70.7418 22.1705 69.5033 20.6913 68.1604 19.0744C66.6479 17.25 65.0643 15.3923 65.0643 13.0532C65.0643 10.8779 66.4753 9.30298 68.5737 9.30298C70.5344 9.30298 71.5321 10.5762 72.3239 12.7095L71.0187 13.1909C70.5025 11.7408 69.8832 10.6792 68.5752 10.6792C67.3715 10.6792 66.5797 11.6769 66.5797 13.0532C66.5797 15.0486 67.9907 16.5626 69.2974 18.11C70.8462 20.0025 72.2572 21.8268 72.2572 23.9934C72.2572 26.334 70.9839 27.9844 68.61 27.9844C66.4042 27.98 65.0976 26.7763 64.1724 24.2994Z" fill="#011B33"/>
<path d="M73.1143 18.6566C73.1143 12.2569 74.2831 9.3667 77.243 9.3667C80.6146 9.3667 81.0961 14.0073 81.0961 18.4841V18.6566H74.5935C74.5935 23.7149 75.1097 26.5355 77.2763 26.5355C78.8599 26.5355 79.2718 25.3652 79.6503 22.7172L80.9554 22.8535C80.5088 26.6385 79.0702 27.9118 77.2052 27.9118C74.2831 27.9118 73.1143 24.9867 73.1143 18.6566ZM79.5821 17.3515C79.5473 13.6694 79.134 10.7444 77.243 10.7444C75.3156 10.7444 74.8342 12.8443 74.5935 17.3515H79.5821Z" fill="#011B33"/>
<path d="M40.701 4.95539C40.701 2.79171 42.1614 2.0144 43.4187 2.0144C44.8254 2.0144 45.4229 2.79171 45.7637 3.66617L44.6543 4.06062C44.4309 3.42109 44.0263 3.1122 43.397 3.1122C42.6516 3.1122 42.0222 3.60236 42.0222 4.95539C42.0222 6.15905 42.5123 6.82034 43.3767 6.82034C43.9727 6.82034 44.3918 6.63907 44.6978 5.84001L45.784 6.23591C45.3794 7.14228 44.7079 7.89783 43.3448 7.89783C42.0338 7.89638 40.701 7.02337 40.701 4.95539Z" fill="#011B33"/>
<path d="M46.5511 0H47.894V1.13985H46.5511V0ZM46.5627 2.12018H47.8838V7.77593H46.5627V2.12018Z" fill="#011B33"/>
<path d="M49.0904 2.12028H50.413V2.88743C50.6791 2.60806 50.9999 2.38659 51.3555 2.23688C51.7111 2.08716 52.0937 2.01242 52.4795 2.01732C53.4714 2.01732 54.1095 2.59739 54.1095 3.72274V7.78328H52.7884V4.04903C52.7884 3.4211 52.523 3.13251 51.9473 3.13251C51.3715 3.13251 50.8915 3.43125 50.413 3.86776V7.78328H49.0904V2.12028Z" fill="#011B33"/>
<path d="M54.8752 4.95539C54.8752 2.80331 56.3979 2.0144 57.5711 2.0144C58.8386 2.0144 60.0538 2.7714 60.0538 5.07286V5.38175H56.1847C56.2384 6.39688 56.8678 6.85224 57.6987 6.85224C57.9955 6.86359 58.2912 6.81034 58.5654 6.69616C58.8396 6.58198 59.0857 6.40961 59.2867 6.19096L59.9784 6.874C59.6818 7.20828 59.3152 7.47316 58.9046 7.64985C58.4941 7.82655 58.0497 7.91071 57.603 7.89638C56.1847 7.89638 54.8752 7.03352 54.8752 4.95539ZM58.8502 4.40142C58.7748 3.5313 58.3484 3.0803 57.5595 3.0803C56.92 3.0803 56.3341 3.44284 56.2065 4.40142H58.8502Z" fill="#011B33"/>
<path d="M60.8848 2.12028H62.19V2.90049C62.4312 2.62306 62.7291 2.40056 63.0635 2.24796C63.398 2.09537 63.7613 2.01623 64.1289 2.01587C65.0773 2.01587 65.4515 2.38857 65.6748 2.94254C65.9214 2.65723 66.2254 2.42721 66.567 2.26752C66.9087 2.10783 67.2801 2.02208 67.6572 2.01587C68.8072 2.01587 69.309 2.70906 69.309 3.72129V7.78183H68.0038V4.04904C68.0038 3.42111 67.8225 3.13252 67.2047 3.13252C66.6711 3.13252 66.2447 3.43126 65.7545 3.86921V7.78473H64.4494V4.04904C64.4494 3.42111 64.2681 3.13252 63.6503 3.13252C63.1282 3.13252 62.6917 3.43126 62.2001 3.86921V7.78473H60.8949V2.12898L60.8848 2.12028Z" fill="#011B33"/>
<path d="M70.05 6.41554C70.05 5.19012 71.0942 4.36932 73.7364 4.07058V3.9009C73.7364 3.33533 73.4391 3.09025 72.8097 3.09025C72.0208 3.09025 71.3813 3.47455 70.9027 3.8574L70.2632 3.03659C71.0158 2.37276 71.9875 2.01113 72.991 2.02146C74.5036 2.02146 75.0213 2.74655 75.0213 4.06768V6.39378C75.0213 7.07537 75.0648 7.49158 75.1822 7.77872H73.8597C73.7739 7.54665 73.7307 7.30103 73.7321 7.05362C73.152 7.6337 72.4849 7.86283 71.6438 7.86283C70.7316 7.86428 70.05 7.35236 70.05 6.41554ZM73.7437 6.20236V4.95519C72.1774 5.16837 71.3465 5.55267 71.3465 6.17045C71.3465 6.61711 71.6554 6.85204 72.1354 6.85204C72.4331 6.85527 72.7285 6.79952 73.0045 6.68802C73.2805 6.57651 73.5317 6.41145 73.7437 6.20236Z" fill="#011B33"/>
<path d="M75.6869 7.00161L76.4004 6.20256C76.897 6.62817 77.5273 6.86581 78.1812 6.874C78.8846 6.874 79.3095 6.69272 79.3095 6.22431C79.3095 5.7559 78.7294 5.62683 78.0522 5.46731C77.0791 5.24253 75.9189 4.9873 75.9189 3.67632C75.9189 2.68584 76.7716 2.0144 78.0173 2.0144C79.0948 2.0144 79.7576 2.3233 80.3376 2.81346L79.7097 3.66617C79.2539 3.30157 78.697 3.0859 78.1145 3.04839C77.3894 3.04839 77.1559 3.30362 77.1559 3.62847C77.1559 4.08673 77.7215 4.2245 78.3929 4.37387C79.3617 4.58704 80.545 4.83213 80.545 6.15325C80.545 7.34676 79.469 7.90073 78.1798 7.90073C77.1356 7.89638 76.1988 7.52368 75.6869 7.00161Z" fill="#011B33"/>
</g>
<defs>
<clipPath id="clip0_1_1143">
<rect width="80.7115" height="27.98" fill="white" transform="translate(0.229248)"/>
</clipPath>
</defs>
</svg>
