<svg width="300" height="80" viewBox="0 0 300 80" fill="none" xmlns="http://www.w3.org/2000/svg">
<g clip-path="url(#clip0_393_20593)">
<path fill-rule="evenodd" clip-rule="evenodd" d="M45.3174 47.6693C46.8653 46.8824 47.8418 45.2907 47.8446 43.5499V21.1012L41.2107 24.435C39.6587 25.2172 38.6804 26.8122 38.6835 28.5545V50.9908L45.3174 47.6693ZM31.5696 54.565C33.1154 53.7823 34.0922 52.1954 34.0968 50.458L34.0841 40.6471L27.4502 43.968C25.9024 44.755 24.9258 46.3472 24.923 48.088V57.8859L31.5696 54.565ZM16.4444 12H56.3233C60.4468 12.0067 63.7899 15.355 63.8037 19.4912V59.4958C63.7968 63.6373 60.4517 66.9928 56.3233 67H16.4444C12.318 66.9928 8.97656 63.6354 8.97656 59.4958V19.4912C8.98352 15.3569 12.3229 12.0072 16.4444 12ZM278.424 42.3908V16.4192L291.028 16.4561V62.5089H278.416L276.97 59.9524C273.273 53.4222 263.839 36.7487 263.704 36.5373V62.5161H251.093V16.4561H263.704C263.704 16.4561 277.86 41.4744 278.424 42.3908ZM153.419 16.4781V22.923H153.433V44.2457C153.443 46.7893 153.06 49.32 152.298 51.7475C151.582 54.0259 150.377 56.1216 148.767 57.8892C147.385 59.479 145.664 60.7417 143.729 61.5848C140.884 62.6417 137.862 63.1434 134.827 63.0633C132.616 63.0484 130.408 62.893 128.217 62.5976C126.139 62.3871 124.122 61.7718 122.282 60.7868C120.605 59.7946 119.139 58.4864 117.964 56.9359C116.738 55.4262 115.827 53.6874 115.286 51.8214C114.555 49.3425 114.158 46.7773 114.106 44.194V16.4781H126.303V45.6648C126.184 47.7513 126.899 49.8 128.291 51.3634C129.759 52.7733 131.72 53.5612 133.759 53.5612C135.798 53.5612 137.758 52.7733 139.226 51.3634C139.922 50.5855 140.456 49.6782 140.798 48.6942C141.141 47.7096 141.285 46.6676 141.222 45.6278V16.4781H153.419ZM246.953 62.5089H234.379L231.805 56.2338H211.64L209.066 62.5089H196.455L215.38 16.4561H228.028L246.953 62.5089ZM221.678 31.7402L215.053 47.8602H228.295L221.678 31.7402ZM196.78 51.585C197.077 49.0529 196.878 46.4877 196.194 44.0314V44.039C195.649 42.1913 194.573 40.5421 193.101 39.2938C192.856 39.1015 192.611 38.9097 192.359 38.7246C190.558 37.4691 188.527 36.5799 186.379 36.1085C184.297 35.6309 182.2 35.2242 180.101 34.8175C179.179 34.6391 178.257 34.4603 177.336 34.2756C177.026 34.2128 176.688 34.1505 176.332 34.0852C174.883 33.8186 173.159 33.5016 172.009 32.908C171.547 32.7204 171.134 32.4317 170.799 32.0634C170.464 31.6951 170.215 31.2563 170.073 30.7797C169.873 29.974 169.873 29.1314 170.073 28.3258C170.488 26.9216 171.49 26.0938 173.315 25.6574C176.098 25.022 178.989 25.022 181.772 25.6574C184.236 26.2415 185.199 27.5498 185.237 30.0181V30.9125H196.855C196.884 29.7342 196.849 28.5545 196.751 27.3796C196.604 25.5174 195.974 23.7258 194.921 22.1797C193.869 20.634 192.431 19.3872 190.749 18.5623C187.678 16.8992 184.31 16.3007 180.86 16.0494C178.637 15.8883 176.406 15.8883 174.183 16.0494C170.734 16.3007 167.366 16.8992 164.294 18.5623C162.623 19.3881 161.194 20.6307 160.148 22.1691C159.101 23.708 158.472 25.4901 158.322 27.3426C158.247 28.0792 158.214 28.8197 158.225 29.5601C158.185 31.2463 158.416 32.9276 158.908 34.5413C159.451 36.3905 160.527 38.0402 162.002 39.2866C162.234 39.4885 162.481 39.6808 162.744 39.863C164.545 41.1166 166.577 42.0033 168.723 42.4718C170.806 42.9495 172.903 43.3561 175.002 43.7629C175.923 43.9413 176.846 44.1201 177.767 44.3047C178.105 44.3733 178.485 44.4414 178.887 44.5133C180.354 44.7756 182.118 45.0917 183.241 45.672C183.704 45.86 184.118 46.1487 184.453 46.5169C184.788 46.8852 185.036 47.324 185.178 47.8008C185.266 48.1743 185.316 48.5555 185.326 48.9392C185.282 51.2152 184.339 52.7086 181.795 53.307C179.012 53.9463 176.119 53.9463 173.338 53.307C170.867 52.723 169.91 51.4152 169.873 48.9464V48.052H158.218C158.189 49.2308 158.224 50.41 158.322 51.585C158.469 53.4471 159.099 55.2392 160.152 56.7849C161.204 58.3304 162.642 59.5773 164.324 60.4022C167.396 62.0653 170.763 62.6638 174.213 62.9227C176.436 63.0762 178.666 63.0762 180.89 62.9227C184.339 62.6638 187.708 62.0653 190.779 60.4022C192.461 59.5773 193.899 58.3304 194.951 56.7849C196.003 55.2392 196.634 53.4471 196.78 51.585ZM97.2072 23.3387C97.8234 22.3466 98.7041 21.5452 99.7513 21.0235L108.884 16.4781V47.1874V47.3279V48.2664C108.958 50.6388 108.541 53.0016 107.66 55.2066C106.169 58.6509 103.453 60.6463 99.9148 61.6515C98.2585 62.1214 96.5472 62.3698 94.8252 62.3904H87.2141H79.4687V52.0435H91.5168C94.247 51.866 95.8117 50.0844 96.1311 47.3572C96.22 46.5524 96.2644 45.7429 96.2644 44.9329V26.6406C96.2651 25.4742 96.5916 24.331 97.2072 23.3387Z" fill="#F05323"/>
</g>
<defs>
<clipPath id="clip0_393_20593">
<rect width="282.051" height="55" fill="white" transform="translate(8.97656 12)"/>
</clipPath>
</defs>
</svg>
