<svg width="400" height="78" viewBox="0 0 400 78" fill="none" xmlns="http://www.w3.org/2000/svg">
<path fill-rule="evenodd" clip-rule="evenodd" d="M51.5379 50.5856C53.7331 49.4696 55.118 47.2123 55.1219 44.7435V12.9071L45.7139 17.6351C43.5129 18.7444 42.1255 21.0064 42.1299 23.4773V55.296L51.5379 50.5856ZM32.041 60.3649C34.2333 59.2549 35.6185 57.0044 35.625 54.5404L35.607 40.6268L26.199 45.3365C24.0039 46.4526 22.6189 48.7106 22.615 51.1793V65.0746L32.041 60.3649ZM10.5907 0H67.1462C72.9942 0.00952148 77.7352 4.75802 77.7549 10.6239V67.3577C77.745 73.2311 73.0011 77.9898 67.1462 78H10.5907C4.73875 77.9898 0 73.2284 0 67.3577V10.6239C0.00987292 4.76074 4.74574 0.0102016 10.5907 0ZM382.125 43.0997V6.26718L400 6.31955V71.6308H382.114L380.063 68.0052C374.821 58.7442 361.441 35.0982 361.25 34.7983V71.641H343.365V6.31955H361.25C361.25 6.31955 381.325 41.8 382.125 43.0997ZM204.845 6.35083V15.4908H204.866V45.7303C204.88 49.3376 204.337 52.9265 203.256 56.3692C202.241 59.6004 200.532 62.5725 198.248 65.0793C196.288 67.3339 193.847 69.1246 191.104 70.3202C187.069 71.8192 182.783 72.5306 178.479 72.417C175.343 72.3959 172.212 72.1756 169.105 71.7566C166.157 71.4581 163.297 70.5855 160.688 69.1885C158.31 67.7814 156.23 65.9261 154.564 63.7273C152.825 61.5863 151.534 59.1203 150.766 56.474C149.73 52.9585 149.167 49.3206 149.093 45.6569V6.35083H166.39V47.7428C166.221 50.7019 167.235 53.6073 169.21 55.8245C171.292 57.824 174.072 58.9414 176.964 58.9414C179.856 58.9414 182.635 57.824 184.718 55.8245C185.704 54.7213 186.462 53.4346 186.947 52.039C187.433 50.6427 187.637 49.1649 187.548 47.6904V6.35083H204.845ZM337.494 71.6308H319.661L316.011 62.7316H287.414L283.763 71.6308H265.878L292.717 6.31955H310.655L337.494 71.6308ZM301.649 27.9952L292.254 50.8563H311.034L301.649 27.9952ZM266.34 56.1387C266.761 52.5477 266.478 48.9098 265.509 45.4263V45.4372C264.735 42.8168 263.209 40.4779 261.122 38.7076C260.774 38.4348 260.427 38.1628 260.069 37.9003C257.516 36.1198 254.635 34.8588 251.589 34.1903C248.636 33.5129 245.662 32.9362 242.686 32.3594C241.378 32.1064 240.071 31.8528 238.764 31.5909C238.325 31.5018 237.845 31.4134 237.341 31.3209C235.286 30.9428 232.841 30.4932 231.21 29.6513C230.554 29.3853 229.968 28.9759 229.493 28.4536C229.018 27.9313 228.666 27.309 228.464 26.633C228.181 25.4904 228.181 24.2954 228.464 23.1529C229.053 21.1615 230.474 19.9876 233.062 19.3687C237.009 18.4676 241.109 18.4676 245.056 19.3687C248.55 20.1971 249.916 22.0524 249.969 25.5529V26.8213H266.446C266.487 25.1503 266.437 23.4773 266.298 21.811C266.09 19.1701 265.196 16.6293 263.703 14.4366C262.211 12.2446 260.172 10.4764 257.786 9.30657C253.431 6.94796 248.654 6.09919 243.762 5.74282C240.61 5.5143 237.446 5.5143 234.293 5.74282C229.401 6.09919 224.625 6.94796 220.269 9.30657C217.898 10.4777 215.872 12.2399 214.388 14.4216C212.904 16.6041 212.012 19.1314 211.799 21.7586C211.692 22.8033 211.646 23.8534 211.662 24.9034C211.605 27.2947 211.932 29.6791 212.63 31.9677C213.4 34.5902 214.926 36.9298 217.018 38.6974C217.347 38.9837 217.697 39.2564 218.07 39.5148C220.624 41.2926 223.506 42.5502 226.55 43.2146C229.503 43.892 232.477 44.4687 235.454 45.0455C236.761 45.2985 238.069 45.5521 239.375 45.814C239.855 45.9112 240.394 46.0078 240.964 46.1098C243.044 46.4818 245.546 46.93 247.139 47.753C247.795 48.0196 248.382 48.429 248.857 48.9513C249.333 49.4736 249.684 50.0959 249.885 50.772C250.01 51.3018 250.081 51.8424 250.096 52.3865C250.033 55.6143 248.696 57.7322 245.088 58.5809C241.141 59.4875 237.039 59.4875 233.094 58.5809C229.59 57.7526 228.233 55.8979 228.181 52.3967V51.1283H211.651C211.61 52.8 211.66 54.4724 211.799 56.1387C212.007 58.7795 212.901 61.3211 214.394 63.5131C215.886 65.705 217.925 67.4733 220.311 68.6431C224.667 71.0017 229.443 71.8505 234.335 72.2177C237.488 72.4354 240.651 72.4354 243.804 72.2177C248.696 71.8505 253.473 71.0017 257.829 68.6431C260.214 67.4733 262.253 65.705 263.746 63.5131C265.238 61.3211 266.132 58.7795 266.34 56.1387ZM125.127 16.0804C126.001 14.6733 127.25 13.5368 128.735 12.7969L141.687 6.35083V49.9021V50.1014V51.4323C141.792 54.7968 141.201 58.1477 139.951 61.2748C137.836 66.1594 133.985 68.9893 128.967 70.4148C126.618 71.0813 124.191 71.4336 121.749 71.4628H110.955H99.9706V56.7889H117.057C120.929 56.5372 123.148 54.0106 123.601 50.1429C123.727 49.0016 123.79 47.8536 123.79 46.7049V20.763C123.791 19.1089 124.254 17.4876 125.127 16.0804Z" fill="#F05323"/>
</svg>
