<svg width="300" height="80" viewBox="0 0 300 80" fill="none" xmlns="http://www.w3.org/2000/svg">
<path d="M38.2974 76.0909V28.0909H47.8428V33.9545H48.2747C48.6989 33.0152 49.3125 32.0606 50.1156 31.0909C50.9337 30.1061 51.9944 29.2879 53.2974 28.6364C54.6156 27.9697 56.2519 27.6364 58.2065 27.6364C60.7519 27.6364 63.1004 28.303 65.2519 29.6364C67.4034 30.9545 69.1231 32.947 70.411 35.6136C71.6989 38.2652 72.3428 41.5909 72.3428 45.5909C72.3428 49.4848 71.7141 52.7727 70.4565 55.4545C69.2141 58.1212 67.5171 60.1439 65.3656 61.5227C63.2292 62.8864 60.8353 63.5682 58.1837 63.5682C56.305 63.5682 54.7065 63.2576 53.3883 62.6364C52.0853 62.0152 51.0171 61.2348 50.1837 60.2955C49.3504 59.3409 48.714 58.3788 48.2747 57.4091H47.9792V76.0909H38.2974ZM47.7747 45.5455C47.7747 47.6212 48.0625 49.4318 48.6383 50.9773C49.214 52.5227 50.0474 53.7273 51.1383 54.5909C52.2292 55.4394 53.555 55.8636 55.1156 55.8636C56.6913 55.8636 58.0247 55.4318 59.1156 54.5682C60.2065 53.6894 61.0322 52.4773 61.5928 50.9318C62.1686 49.3712 62.4565 47.5758 62.4565 45.5455C62.4565 43.5303 62.1762 41.7576 61.6156 40.2273C61.055 38.697 60.2292 37.5 59.1383 36.6364C58.0474 35.7727 56.7065 35.3409 55.1156 35.3409C53.5398 35.3409 52.2065 35.7576 51.1156 36.5909C50.0398 37.4242 49.214 38.6061 48.6383 40.1364C48.0625 41.6667 47.7747 43.4697 47.7747 45.5455ZM87.4719 63.6591C85.2447 63.6591 83.2598 63.2727 81.5174 62.5C79.775 61.7121 78.3962 60.553 77.381 59.0227C76.381 57.4773 75.881 55.553 75.881 53.25C75.881 51.3106 76.2371 49.6818 76.9492 48.3636C77.6613 47.0455 78.631 45.9848 79.8583 45.1818C81.0856 44.3788 82.4795 43.7727 84.0401 43.3636C85.6159 42.9545 87.2674 42.6667 88.9947 42.5C91.025 42.2879 92.6613 42.0909 93.9037 41.9091C95.1462 41.7121 96.0477 41.4242 96.6083 41.0455C97.1689 40.6667 97.4492 40.1061 97.4492 39.3636V39.2273C97.4492 37.7879 96.9947 36.6742 96.0856 35.8864C95.1916 35.0985 93.9189 34.7045 92.2674 34.7045C90.525 34.7045 89.1386 35.0909 88.1083 35.8636C87.078 36.6212 86.3962 37.5758 86.0628 38.7273L77.1083 38C77.5628 35.8788 78.4568 34.0455 79.7901 32.5C81.1234 30.9394 82.8431 29.7424 84.9492 28.9091C87.0704 28.0606 89.525 27.6364 92.3128 27.6364C94.2522 27.6364 96.1083 27.8636 97.881 28.3182C99.6689 28.7727 101.252 29.4773 102.631 30.4318C104.025 31.3864 105.123 32.6136 105.926 34.1136C106.73 35.5985 107.131 37.3788 107.131 39.4545V63H97.9492V58.1591H97.6765C97.1159 59.25 96.3659 60.2121 95.4265 61.0455C94.4871 61.8636 93.3583 62.5076 92.0401 62.9773C90.7219 63.4318 89.1992 63.6591 87.4719 63.6591ZM90.2447 56.9773C91.6689 56.9773 92.9265 56.697 94.0174 56.1364C95.1083 55.5606 95.9644 54.7879 96.5856 53.8182C97.2068 52.8485 97.5174 51.75 97.5174 50.5227V46.8182C97.2144 47.0152 96.7977 47.197 96.2674 47.3636C95.7522 47.5152 95.1689 47.6591 94.5174 47.7955C93.8659 47.9167 93.2144 48.0303 92.5628 48.1364C91.9113 48.2273 91.3204 48.3106 90.7901 48.3864C89.6537 48.553 88.6613 48.8182 87.8128 49.1818C86.9644 49.5455 86.3053 50.0379 85.8356 50.6591C85.3659 51.2652 85.131 52.0227 85.131 52.9318C85.131 54.25 85.6083 55.2576 86.5628 55.9545C87.5325 56.6364 88.7598 56.9773 90.2447 56.9773ZM113.362 63V28.0909H122.749V34.1818H123.112C123.749 32.0152 124.817 30.3788 126.317 29.2727C127.817 28.1515 129.544 27.5909 131.499 27.5909C131.984 27.5909 132.506 27.6212 133.067 27.6818C133.628 27.7424 134.12 27.8258 134.544 27.9318V36.5227C134.09 36.3864 133.461 36.2652 132.658 36.1591C131.855 36.053 131.12 36 130.453 36C129.029 36 127.756 36.3106 126.635 36.9318C125.529 37.5379 124.65 38.3864 123.999 39.4773C123.362 40.5682 123.044 41.8258 123.044 43.25V63H113.362ZM147.043 52.9545L147.065 41.3409H148.474L159.656 28.0909H170.77L155.747 45.6364H153.452L147.043 52.9545ZM138.27 63V16.4545H147.952V63H138.27ZM160.088 63L149.815 47.7955L156.27 40.9545L171.429 63H160.088ZM174.24 63V28.0909H183.922V63H174.24ZM179.104 23.5909C177.664 23.5909 176.429 23.1136 175.399 22.1591C174.384 21.1894 173.876 20.0303 173.876 18.6818C173.876 17.3485 174.384 16.2045 175.399 15.25C176.429 14.2803 177.664 13.7955 179.104 13.7955C180.543 13.7955 181.77 14.2803 182.785 15.25C183.816 16.2045 184.331 17.3485 184.331 18.6818C184.331 20.0303 183.816 21.1894 182.785 22.1591C181.77 23.1136 180.543 23.5909 179.104 23.5909ZM200.079 42.8182V63H190.397V28.0909H199.625V34.25H200.034C200.806 32.2197 202.102 30.6136 203.92 29.4318C205.738 28.2348 207.943 27.6364 210.534 27.6364C212.958 27.6364 215.072 28.1667 216.875 29.2273C218.678 30.2879 220.079 31.803 221.079 33.7727C222.079 35.7273 222.579 38.0606 222.579 40.7727V63H212.897V42.5C212.913 40.3636 212.367 38.697 211.261 37.5C210.155 36.2879 208.632 35.6818 206.693 35.6818C205.39 35.6818 204.238 35.9621 203.238 36.5227C202.253 37.0833 201.481 37.9015 200.92 38.9773C200.375 40.0379 200.094 41.3182 200.079 42.8182ZM244.657 76.8182C241.521 76.8182 238.831 76.3864 236.589 75.5227C234.362 74.6742 232.589 73.5152 231.271 72.0455C229.953 70.5758 229.097 68.9242 228.703 67.0909L237.657 65.8864C237.93 66.5833 238.362 67.2348 238.953 67.8409C239.544 68.447 240.324 68.9318 241.294 69.2955C242.278 69.6742 243.475 69.8636 244.884 69.8636C246.99 69.8636 248.725 69.3485 250.089 68.3182C251.468 67.303 252.157 65.5985 252.157 63.2045V56.8182H251.748C251.324 57.7879 250.687 58.7045 249.839 59.5682C248.99 60.4318 247.9 61.1364 246.566 61.6818C245.233 62.2273 243.642 62.5 241.794 62.5C239.172 62.5 236.786 61.8939 234.634 60.6818C232.498 59.4545 230.794 57.5833 229.521 55.0682C228.263 52.5379 227.634 49.3409 227.634 45.4773C227.634 41.5227 228.278 38.2197 229.566 35.5682C230.854 32.9167 232.566 30.9318 234.703 29.6136C236.854 28.2955 239.21 27.6364 241.771 27.6364C243.725 27.6364 245.362 27.9697 246.68 28.6364C247.998 29.2879 249.059 30.1061 249.862 31.0909C250.68 32.0606 251.309 33.0152 251.748 33.9545H252.112V28.0909H261.725V63.3409C261.725 66.3106 260.998 68.7955 259.544 70.7955C258.089 72.7955 256.074 74.2955 253.498 75.2955C250.937 76.3106 247.99 76.8182 244.657 76.8182ZM244.862 55.2273C246.422 55.2273 247.74 54.8409 248.816 54.0682C249.907 53.2803 250.74 52.1591 251.316 50.7045C251.907 49.2348 252.203 47.4773 252.203 45.4318C252.203 43.3864 251.915 41.6136 251.339 40.1136C250.763 38.5985 249.93 37.4242 248.839 36.5909C247.748 35.7576 246.422 35.3409 244.862 35.3409C243.271 35.3409 241.93 35.7727 240.839 36.6364C239.748 37.4848 238.922 38.6667 238.362 40.1818C237.801 41.697 237.521 43.447 237.521 45.4318C237.521 47.447 237.801 49.1894 238.362 50.6591C238.937 52.1136 239.763 53.2424 240.839 54.0455C241.93 54.8333 243.271 55.2273 244.862 55.2273Z" fill="#111111"/>
</svg>
