<svg width="300" height="80" viewBox="0 0 300 80" fill="none" xmlns="http://www.w3.org/2000/svg">
<path d="M38.2969 76.0923V28.0923H47.8423V33.9559H48.2742C48.6984 33.0166 49.312 32.062 50.1151 31.0923C50.9332 30.1075 51.9939 29.2893 53.2969 28.6378C54.6151 27.9711 56.2514 27.6378 58.206 27.6378C60.7514 27.6378 63.0999 28.3044 65.2514 29.6378C67.4029 30.9559 69.1226 32.9484 70.4105 35.615C71.6984 38.2666 72.3423 41.5923 72.3423 45.5923C72.3423 49.4862 71.7136 52.7741 70.456 55.4559C69.2136 58.1226 67.5166 60.1453 65.3651 61.5241C63.2287 62.8878 60.8348 63.5696 58.1832 63.5696C56.3045 63.5696 54.706 63.259 53.3878 62.6378C52.0848 62.0166 51.0166 61.2362 50.1832 60.2969C49.3499 59.3423 48.7135 58.3802 48.2742 57.4105H47.9787V76.0923H38.2969ZM47.7742 45.5469C47.7742 47.6226 48.062 49.4332 48.6378 50.9787C49.2135 52.5241 50.0469 53.7287 51.1378 54.5923C52.2287 55.4408 53.5545 55.865 55.1151 55.865C56.6908 55.865 58.0242 55.4332 59.1151 54.5696C60.206 53.6908 61.0317 52.4787 61.5923 50.9332C62.1681 49.3726 62.456 47.5772 62.456 45.5469C62.456 43.5317 62.1757 41.759 61.6151 40.2287C61.0545 38.6984 60.2287 37.5014 59.1378 36.6378C58.0469 35.7741 56.706 35.3423 55.1151 35.3423C53.5393 35.3423 52.206 35.759 51.1151 36.5923C50.0393 37.4256 49.2135 38.6075 48.6378 40.1378C48.062 41.6681 47.7742 43.4711 47.7742 45.5469ZM87.4714 63.6605C85.2442 63.6605 83.2593 63.2741 81.5169 62.5014C79.7745 61.7135 78.3957 60.5544 77.3805 59.0241C76.3805 57.4787 75.8805 55.5544 75.8805 53.2514C75.8805 51.312 76.2366 49.6832 76.9487 48.365C77.6608 47.0469 78.6305 45.9862 79.8578 45.1832C81.0851 44.3802 82.479 43.7741 84.0396 43.365C85.6154 42.9559 87.2669 42.6681 88.9942 42.5014C91.0245 42.2893 92.6608 42.0923 93.9032 41.9105C95.1457 41.7135 96.0472 41.4256 96.6078 41.0469C97.1684 40.6681 97.4487 40.1075 97.4487 39.365V39.2287C97.4487 37.7893 96.9942 36.6756 96.0851 35.8878C95.1911 35.0999 93.9184 34.7059 92.2669 34.7059C90.5245 34.7059 89.1381 35.0923 88.1078 35.865C87.0775 36.6226 86.3957 37.5772 86.0623 38.7287L77.1078 38.0014C77.5623 35.8802 78.4563 34.0469 79.7896 32.5014C81.1229 30.9408 82.8426 29.7438 84.9487 28.9105C87.0699 28.062 89.5245 27.6378 92.3123 27.6378C94.2517 27.6378 96.1078 27.865 97.8805 28.3196C99.6684 28.7741 101.251 29.4787 102.63 30.4332C104.024 31.3878 105.122 32.615 105.925 34.115C106.729 35.5999 107.13 37.3802 107.13 39.4559V63.0014H97.9487V58.1605H97.676C97.1154 59.2514 96.3654 60.2135 95.426 61.0469C94.4866 61.865 93.3578 62.509 92.0396 62.9787C90.7214 63.4332 89.1987 63.6605 87.4714 63.6605ZM90.2442 56.9787C91.6684 56.9787 92.926 56.6984 94.0169 56.1378C95.1078 55.562 95.9639 54.7893 96.5851 53.8196C97.2063 52.8499 97.5169 51.7514 97.5169 50.5241V46.8196C97.2139 47.0166 96.7972 47.1984 96.2669 47.365C95.7517 47.5166 95.1684 47.6605 94.5169 47.7969C93.8654 47.9181 93.2139 48.0317 92.5623 48.1378C91.9108 48.2287 91.3199 48.312 90.7896 48.3878C89.6532 48.5544 88.6608 48.8196 87.8123 49.1832C86.9639 49.5469 86.3048 50.0393 85.8351 50.6605C85.3654 51.2666 85.1305 52.0241 85.1305 52.9332C85.1305 54.2514 85.6078 55.259 86.5623 55.9559C87.532 56.6378 88.7593 56.9787 90.2442 56.9787ZM113.361 63.0014V28.0923H122.748V34.1832H123.111C123.748 32.0166 124.816 30.3802 126.316 29.2741C127.816 28.1529 129.543 27.5923 131.498 27.5923C131.983 27.5923 132.505 27.6226 133.066 27.6832C133.627 27.7438 134.119 27.8272 134.543 27.9332V36.5241C134.089 36.3878 133.46 36.2666 132.657 36.1605C131.854 36.0544 131.119 36.0014 130.452 36.0014C129.028 36.0014 127.755 36.312 126.634 36.9332C125.528 37.5393 124.649 38.3878 123.998 39.4787C123.361 40.5696 123.043 41.8272 123.043 43.2514V63.0014H113.361ZM147.042 52.9559L147.064 41.3423H148.473L159.655 28.0923H170.769L155.746 45.6378H153.451L147.042 52.9559ZM138.269 63.0014V16.4559H147.951V63.0014H138.269ZM160.087 63.0014L149.814 47.7969L156.269 40.9559L171.428 63.0014H160.087ZM174.239 63.0014V28.0923H183.921V63.0014H174.239ZM179.103 23.5923C177.663 23.5923 176.428 23.115 175.398 22.1605C174.383 21.1908 173.875 20.0317 173.875 18.6832C173.875 17.3499 174.383 16.2059 175.398 15.2514C176.428 14.2817 177.663 13.7969 179.103 13.7969C180.542 13.7969 181.769 14.2817 182.784 15.2514C183.815 16.2059 184.33 17.3499 184.33 18.6832C184.33 20.0317 183.815 21.1908 182.784 22.1605C181.769 23.115 180.542 23.5923 179.103 23.5923ZM200.078 42.8196V63.0014H190.396V28.0923H199.624V34.2514H200.033C200.805 32.2211 202.101 30.615 203.919 29.4332C205.737 28.2362 207.942 27.6378 210.533 27.6378C212.957 27.6378 215.071 28.1681 216.874 29.2287C218.677 30.2893 220.078 31.8044 221.078 33.7741C222.078 35.7287 222.578 38.062 222.578 40.7741V63.0014H212.896V42.5014C212.912 40.365 212.366 38.6984 211.26 37.5014C210.154 36.2893 208.631 35.6832 206.692 35.6832C205.389 35.6832 204.237 35.9635 203.237 36.5241C202.252 37.0847 201.48 37.9029 200.919 38.9787C200.374 40.0393 200.093 41.3196 200.078 42.8196ZM244.656 76.8196C241.52 76.8196 238.83 76.3878 236.588 75.5241C234.361 74.6756 232.588 73.5166 231.27 72.0469C229.952 70.5772 229.096 68.9256 228.702 67.0923L237.656 65.8878C237.929 66.5847 238.361 67.2362 238.952 67.8423C239.543 68.4484 240.323 68.9332 241.293 69.2969C242.277 69.6756 243.474 69.865 244.883 69.865C246.989 69.865 248.724 69.3499 250.088 68.3196C251.467 67.3044 252.156 65.5999 252.156 63.2059V56.8196H251.747C251.323 57.7893 250.686 58.7059 249.838 59.5696C248.989 60.4332 247.899 61.1378 246.565 61.6832C245.232 62.2287 243.641 62.5014 241.793 62.5014C239.171 62.5014 236.785 61.8953 234.633 60.6832C232.497 59.4559 230.793 57.5847 229.52 55.0696C228.262 52.5393 227.633 49.3423 227.633 45.4787C227.633 41.5241 228.277 38.2211 229.565 35.5696C230.853 32.9181 232.565 30.9332 234.702 29.615C236.853 28.2969 239.209 27.6378 241.77 27.6378C243.724 27.6378 245.361 27.9711 246.679 28.6378C247.997 29.2893 249.058 30.1075 249.861 31.0923C250.679 32.062 251.308 33.0166 251.747 33.9559H252.111V28.0923H261.724V63.3423C261.724 66.312 260.997 68.7969 259.543 70.7969C258.088 72.7969 256.073 74.2969 253.497 75.2969C250.936 76.312 247.989 76.8196 244.656 76.8196ZM244.861 55.2287C246.421 55.2287 247.739 54.8423 248.815 54.0696C249.906 53.2817 250.739 52.1605 251.315 50.7059C251.906 49.2362 252.202 47.4787 252.202 45.4332C252.202 43.3878 251.914 41.615 251.338 40.115C250.762 38.5999 249.929 37.4256 248.838 36.5923C247.747 35.759 246.421 35.3423 244.861 35.3423C243.27 35.3423 241.929 35.7741 240.838 36.6378C239.747 37.4862 238.921 38.6681 238.361 40.1832C237.8 41.6984 237.52 43.4484 237.52 45.4332C237.52 47.4484 237.8 49.1908 238.361 50.6605C238.936 52.115 239.762 53.2438 240.838 54.0469C241.929 54.8347 243.27 55.2287 244.861 55.2287Z" fill="#111111"/>
</svg>
