<svg width="148" height="28" viewBox="0 0 148 28" fill="none" xmlns="http://www.w3.org/2000/svg">
<g clip-path="url(#clip0_1_1162)">
<path d="M39.955 22.6906V27.9799H36.6377V10.761H39.955V11.5848C40.943 10.9425 42.094 10.5959 43.2724 10.5859C47.0394 10.5859 49.8094 13.5808 49.8094 17.1488C49.8094 20.7168 47.0652 23.7116 43.2724 23.7116C42.089 23.7136 40.9326 23.3576 39.955 22.6906ZM39.955 15.5785V18.6231C40.2167 19.1803 40.6234 19.6569 41.1325 20.0029C41.6416 20.349 42.2343 20.5519 42.8487 20.5903C43.4631 20.6286 44.0764 20.5011 44.6246 20.2211C45.1728 19.9411 45.6357 19.5189 45.9647 18.9986C46.2937 18.4783 46.4768 17.8792 46.4948 17.2639C46.5128 16.6486 46.365 16.0398 46.067 15.5011C45.769 14.9625 45.3316 14.514 44.8007 14.2024C44.2698 13.8908 43.665 13.7276 43.0494 13.73C42.413 13.7211 41.7866 13.8892 41.2401 14.2156C40.6937 14.542 40.2488 15.0139 39.955 15.5785Z" fill="#011B33"/>
<path d="M51.6063 7.29067C51.5955 7.03956 51.6361 6.78889 51.7257 6.55406C51.8153 6.31924 51.9521 6.10522 52.1274 5.92518C52.3028 5.74514 52.5132 5.60287 52.7456 5.50713C52.978 5.41139 53.2275 5.3642 53.4788 5.36845C53.7336 5.36403 53.9867 5.41055 54.2232 5.50529C54.4598 5.60002 54.675 5.74106 54.8563 5.92012C55.0376 6.09918 55.1813 6.31265 55.2789 6.54801C55.3766 6.78337 55.4262 7.03586 55.425 7.29067C55.4196 7.80314 55.2122 8.29277 54.8477 8.65309C54.4833 9.0134 53.9913 9.21525 53.4788 9.21473C53.2289 9.21357 52.9817 9.16263 52.7516 9.06488C52.5216 8.96713 52.3133 8.82454 52.139 8.64542C51.9647 8.4663 51.8278 8.25425 51.7364 8.02164C51.6449 7.78904 51.6007 7.54055 51.6063 7.29067ZM51.8072 10.761H55.1762V23.5125H51.8072V10.761Z" fill="#011B33"/>
<path d="M57.1702 17.101C57.1635 16.2427 57.3284 15.3918 57.6553 14.5982C57.9821 13.8046 58.4643 13.0843 59.0735 12.4798C59.6827 11.8752 60.4066 11.3985 61.2027 11.0777C61.9988 10.757 62.8509 10.5986 63.7091 10.6119C64.8825 10.6124 66.0374 10.9037 67.0707 11.4596V10.7611H70.3659V22.7884C70.3659 26.1057 67.4946 27.9045 63.9026 27.9045C61.5565 27.9045 59.3099 27.206 57.8374 26.0615L59.2104 23.6914C60.6099 24.588 62.2407 25.0562 63.9026 25.0386C66.2229 25.0386 66.9472 24.1172 67.0467 22.6188C66.0472 23.2581 64.8881 23.6036 63.7017 23.6159C59.8831 23.6122 57.1702 20.7685 57.1702 17.101ZM67.0707 18.5219V15.6782C66.7919 15.0848 66.3511 14.5824 65.799 14.2289C65.2469 13.8754 64.6061 13.6853 63.9505 13.6804C63.4979 13.676 63.0488 13.7612 62.6291 13.9309C62.2095 14.1007 61.8275 14.3517 61.5052 14.6696C61.1828 14.9875 60.9265 15.3659 60.7509 15.7832C60.5754 16.2004 60.484 16.6483 60.4821 17.101C60.4821 19.0711 61.9786 20.4441 63.9266 20.4441C64.5802 20.4611 65.2248 20.2887 65.7827 19.9477C66.3406 19.6066 66.7879 19.1114 67.0707 18.5219Z" fill="#011B33"/>
<path d="M72.3656 17.101C72.3588 16.2427 72.5237 15.3918 72.8506 14.5982C73.1774 13.8046 73.6596 13.0843 74.2688 12.4798C74.878 11.8752 75.6019 11.3985 76.398 11.0777C77.1941 10.757 78.0462 10.5986 78.9044 10.6119C80.0802 10.6115 81.2378 10.9027 82.2734 11.4596V10.7611H85.5668V22.7884C85.5668 26.1057 82.6973 27.9045 79.1053 27.9045C76.7592 27.9045 74.5126 27.206 73.0401 26.0615L74.4131 23.6914C75.8124 24.5883 77.4433 25.0565 79.1053 25.0386C81.4256 25.0386 82.1499 24.1172 82.2494 22.6188C81.2498 23.2579 80.0908 23.6033 78.9044 23.6159C75.0858 23.6122 72.3656 20.7685 72.3656 17.101ZM82.2734 18.5219V15.6782C81.9944 15.085 81.5535 14.5827 81.0015 14.2292C80.4494 13.8757 79.8087 13.6855 79.1532 13.6804C78.7005 13.676 78.2515 13.7612 77.8318 13.9309C77.4121 14.1007 77.0302 14.3517 76.7078 14.6696C76.3855 14.9875 76.1292 15.3659 75.9536 15.7832C75.778 16.2004 75.6867 16.6483 75.6847 17.101C75.6847 19.0711 77.1812 20.4441 79.1293 20.4441C79.7829 20.4609 80.4274 20.2884 80.9852 19.9474C81.543 19.6063 81.9904 19.1113 82.2734 18.5219Z" fill="#011B33"/>
<path d="M90.4064 10.761L93.7514 19.27L97.1941 10.761H100.696L93.3515 27.9799H90.2332L92.0762 23.389L86.715 10.761H90.4064Z" fill="#011B33"/>
<path d="M100.06 10.761H103.628L106.879 19.3714L110.099 10.761H113.6L108.484 23.5125H105.128L100.06 10.761Z" fill="#011B33"/>
<path d="M113.836 17.0492C113.836 13.4572 116.405 10.4863 120.423 10.4863C124.142 10.4863 126.967 13.2821 127.035 16.9552C127.061 17.271 127.061 17.5884 127.035 17.9043H116.98C117.08 19.7012 118.801 20.8733 120.648 20.8733C122.17 20.8733 123.068 20.4494 124.116 19.5832L125.939 21.5055C124.465 23.0517 122.99 23.776 120.648 23.776C116.332 23.7631 113.836 20.5434 113.836 17.0492ZM117.153 15.5269H123.593C123.268 14.3308 122.118 13.2821 120.373 13.2821C118.351 13.2821 117.504 14.305 117.153 15.5269Z" fill="#011B33"/>
<path d="M127.732 22.1413L129.363 19.4948C130.827 20.4706 132.543 20.9995 134.302 21.0171C135.976 21.0171 136.823 20.5932 136.823 19.8708C136.823 19.3953 136.424 19.047 135.576 18.8719L132.074 18.1236C129.505 17.5707 128.331 16.3525 128.331 14.3566C128.331 12.2353 130.128 10.4624 133.847 10.4624C136.092 10.4624 138.086 11.113 139.461 11.9607L137.938 14.5059C136.816 13.9069 135.32 13.2582 133.746 13.2582C132.325 13.2582 131.501 13.6084 131.501 14.2552C131.501 14.681 131.801 14.9556 132.623 15.1048L135.572 15.6577C138.766 16.2807 139.995 17.7034 139.995 19.6257C139.995 22.3901 137.231 23.8424 134.205 23.8424C131.931 23.8863 129.69 23.2974 127.732 22.1413Z" fill="#011B33"/>
<path d="M140.659 10.7611H142.555V7.24288L145.873 5.09766V10.7611H147.819V13.6564H145.874V23.5145H142.557V13.6564H140.657V10.7611H140.659Z" fill="#011B33"/>
<path d="M28.3314 12.8123C28.2761 12.0028 28.1434 11.2006 27.9352 10.4164C26.9861 6.91477 24.9865 4.15953 21.9382 2.19308C20.0182 0.944373 17.8128 0.203113 15.5283 0.0386426C14.5686 -0.0314589 13.6042 -0.00552865 12.6496 0.116047C11.6439 0.249157 10.6554 0.489497 9.70084 0.832963C7.15903 1.74984 4.94064 3.38965 3.31854 5.55072C1.69643 7.71178 0.741342 10.2998 0.570759 12.9966C0.539429 13.4923 0.539429 13.9918 0.539429 14.4894V26.5866C0.539429 26.9009 0.66428 27.2024 0.886516 27.4246C1.10875 27.6468 1.41017 27.7717 1.72446 27.7717H6.39824C6.69073 27.7699 6.97238 27.6608 7.18979 27.4651C7.4072 27.2695 7.54524 27.0008 7.57774 26.7101C7.60849 26.5965 7.6246 26.4795 7.62566 26.3618V26.0817C7.6229 26.0603 7.6229 26.0386 7.62566 26.0172V25.9858C7.65754 25.9943 7.68754 26.0087 7.71412 26.0282C9.46232 26.995 11.3985 27.5733 13.3905 27.7238C14.1884 27.7828 14.9898 27.7748 15.7863 27.6998C17.6615 27.5271 19.4814 26.9723 21.134 26.0696C22.7866 25.1669 24.2369 23.9355 25.3956 22.451C27.0471 20.3735 28.0577 17.8599 28.3038 15.2174C28.3872 14.4182 28.3964 13.6131 28.3314 12.8123ZM16.9419 20.5417C16.9336 20.5843 16.9106 20.6226 16.8769 20.6499C16.8432 20.6772 16.801 20.6918 16.7576 20.691H12.1502C12.1068 20.6918 12.0645 20.6772 12.0308 20.6499C11.9971 20.6226 11.9741 20.5843 11.9659 20.5417V20.5122V20.3408C11.9648 20.1293 11.9883 19.9184 12.0359 19.7124C12.0654 19.6423 12.0838 19.5594 12.1133 19.482C12.1428 19.4046 12.1723 19.3327 12.2018 19.2572C12.2312 19.1816 12.2792 19.1134 12.3197 19.0489L12.3861 18.9494C12.4294 18.885 12.4768 18.8234 12.528 18.7651C12.5814 18.6987 12.6349 18.6416 12.6883 18.5808C12.9656 18.3081 13.3025 18.1037 13.6724 17.9837C13.3538 17.8101 13.1019 17.5355 12.9565 17.2031C12.8111 16.8706 12.7804 16.4993 12.8693 16.1475C12.9582 15.7957 13.1616 15.4835 13.4475 15.26C13.7334 15.0365 14.0855 14.9146 14.4483 14.9133C14.8816 14.9165 15.2963 15.0892 15.6039 15.3943C15.7819 15.5735 15.916 15.7915 15.9955 16.0313C16.075 16.2711 16.0978 16.5261 16.0621 16.7761C16.0263 17.0262 15.9331 17.2646 15.7896 17.4725C15.6461 17.6805 15.4564 17.8523 15.2353 17.9744C15.733 18.1385 16.166 18.4557 16.4725 18.8807C16.7791 19.3057 16.9433 19.8168 16.9419 20.3408C16.9419 20.4072 16.9419 20.479 16.9419 20.5417ZM24.8851 10.5049H4.03002C3.99093 10.5046 3.95246 10.4951 3.91777 10.477C3.88309 10.459 3.85318 10.433 3.83051 10.4011C3.80784 10.3693 3.79305 10.3325 3.78737 10.2938C3.78168 10.2552 3.78526 10.2157 3.7978 10.1787C4.57597 7.97337 6.01902 6.06373 7.92804 4.71297C9.83706 3.36221 12.1181 2.63684 14.4566 2.63684C16.7952 2.63684 19.0762 3.36221 20.9852 4.71297C22.8942 6.06373 24.3373 7.97337 25.1155 10.1787C25.128 10.2156 25.1316 10.2549 25.126 10.2934C25.1204 10.3319 25.1058 10.3686 25.0833 10.4004C25.0608 10.4322 25.0312 10.4583 24.9967 10.4764C24.9623 10.4946 24.924 10.5043 24.8851 10.5049Z" fill="#011B33"/>
</g>
<defs>
<clipPath id="clip0_1_1162">
<rect width="147.263" height="27.98" fill="white" transform="translate(0.548401)"/>
</clipPath>
</defs>
</svg>
