<svg width="400" height="194" viewBox="0 0 400 194" fill="none" xmlns="http://www.w3.org/2000/svg">
<path d="M207.282 23.3317C217.138 15.8967 226.395 7.68282 236.057 0C290.699 0.0708094 345.358 -0.0177023 400 0.053107C371.454 23.668 342.608 46.9112 314.203 70.7209C301.913 62.7725 289.659 54.7357 277.369 46.7696C288.777 38.9452 300.52 31.6695 311.805 23.668C306.762 23.8628 301.031 22.6944 296.764 26.1464C287.984 32.1652 279.326 38.3433 270.51 44.2736C270.475 37.4228 270.475 30.572 270.475 23.7211C267.795 23.7034 265.133 23.7034 262.453 23.7034C262.417 39.7418 262.435 55.7978 262.453 71.8538C265.115 71.8538 267.795 71.8538 270.475 71.8538C270.475 64.649 270.475 57.4441 270.493 50.2393C280.032 56.559 289.43 63.0735 298.898 69.464C302.812 72.5265 307.943 71.9777 312.598 71.9777C307.379 76.0316 302.336 80.2624 297.223 84.4225C289.641 83.1833 284.281 89.0782 278.762 93.1674C271.233 98.9207 263.652 104.603 256.087 110.286C256.087 101.718 256.087 93.132 256.07 84.5464C251.256 84.5641 246.443 84.5641 241.647 84.5464C241.612 99.6819 241.664 114.8 241.612 129.935C238.896 132.272 236.11 134.573 233.748 137.264C233.801 132.042 234.153 126.696 232.831 121.597C231.738 117.809 227.718 116.481 224.791 114.481C227.735 112.534 232.09 111.277 232.725 107.241C233.677 101.647 233.836 95.6458 232.055 90.2112C229.833 85.2191 223.715 84.6703 218.954 84.5641C201.534 84.4756 184.114 84.5818 166.675 84.5818C166.693 105.117 166.728 125.669 166.658 146.221C185.189 146.469 203.738 146.328 222.287 146.328C202.539 161.799 183.373 178.068 163.96 193.982L165.794 194H0C29.71 169.111 59.9136 144.841 89.6941 120.057C89.7117 128.82 89.7117 137.583 89.7117 146.345C94.4018 146.328 99.092 146.328 103.8 146.328C103.782 138.539 103.8 130.767 103.8 122.978C108.402 123.155 113.198 122.359 117.641 123.739C126.386 130.272 133.192 139.105 141.92 145.673C148.673 147.177 155.726 146.115 162.585 146.274C153.275 138.539 143.877 130.891 134.532 123.191C141.567 122.642 152.781 124.766 155.532 115.986C156.678 107.436 157.207 98.3542 154.968 89.9456C150.472 82.5814 140.333 85.0421 133.157 84.4756C143.154 76.3148 152.993 67.9593 163.184 60.011C170.537 60.011 177.872 60.0287 185.242 59.9932C187.234 63.8878 189.209 67.7823 191.184 71.6768C194.181 71.7653 197.179 71.8361 200.176 71.9069C194.834 62.1352 189.421 52.4166 184.043 42.6804C190.408 37.3519 196.985 32.2714 203.227 26.8191C203.244 41.8306 203.28 56.8422 203.262 71.8538C205.713 71.8538 208.164 71.8538 210.614 71.8538C210.614 59.4268 210.614 46.9997 210.614 34.5904C222.939 45.6898 235.264 56.7891 247.448 68.0655C249.81 70.4907 253.002 71.6768 256.176 72.6681C256.352 56.3466 256.229 40.0427 256.246 23.7211C253.795 23.7034 251.362 23.7034 248.911 23.6857C248.894 35.8295 248.946 47.9734 248.876 60.1172C234.859 48.0265 221.67 34.9444 207.282 23.3317Z" fill="#56E2E3"/>
<path d="M170.345 53.8505C173.06 51.6554 175.793 49.4603 178.508 47.2652C179.654 49.4603 180.818 51.6731 181.964 53.8682C178.085 53.8505 174.206 53.8328 170.345 53.8505Z" fill="#56E2E3"/>
<path d="M118.912 96.2477C123.056 94.2827 128.01 95.5042 132.471 95.1856C135.61 95.6281 139.841 94.389 142.01 97.3984C142.821 101.576 142.803 105.949 142.045 110.126C141.023 112.481 138.219 112.18 136.121 112.41C125.365 112.622 114.592 112.375 103.819 112.463C103.801 111.489 103.784 109.578 103.766 108.622C108.827 104.515 113.728 100.213 118.912 96.2477Z" fill="#56E2E3"/>
<path d="M180.906 109.383C180.73 104.444 180.783 99.4871 180.942 94.5482C192.455 94.8668 203.987 94.2472 215.5 94.8137C221.337 94.4597 220.173 101.665 219.961 105.453C220.067 108.94 216.258 109.277 213.631 109.277C202.735 109.507 191.82 109.188 180.906 109.383Z" fill="#56E2E3"/>
<path d="M180.712 119.703C192.279 119.491 203.863 119.261 215.43 119.703C221.425 119.278 220.631 126.607 220.296 130.555C220.561 133.352 217.969 135.211 215.394 135.087C203.863 135.547 192.314 135.122 180.783 135.228C180.783 130.059 180.765 124.872 180.712 119.703Z" fill="#56E2E3"/>
<path d="M89.6957 23.7034C102.779 23.7919 115.879 23.5264 128.962 23.7742C132.683 23.6857 137.285 25.1196 138.025 29.3505C139.03 35.5817 140.141 45.8491 131.431 46.5926C140.088 48.9824 139.735 59.2851 138.06 66.3838C135.962 71.1634 130.091 71.7122 125.559 71.8184C113.605 71.96 101.65 71.8007 89.678 71.8538C89.678 55.7978 89.678 39.7595 89.6957 23.7034ZM97.7182 30.1648C97.7182 34.5904 97.7006 39.016 97.683 43.4415C107.945 43.1406 118.295 44.2027 128.486 42.9459C131.625 39.9719 132.118 29.2266 125.436 30.2179C116.197 29.9878 106.957 30.271 97.7182 30.1648ZM97.9122 65.357C108.192 64.7375 118.63 66.1536 128.804 64.5781C131.854 61.197 131.642 54.0098 128.892 50.3632C118.63 48.9116 108.174 50.2038 97.8417 49.6728C97.6124 54.895 97.7182 60.1349 97.9122 65.357Z" fill="#323031"/>
<path d="M164.702 23.9334C167.611 23.8095 170.503 23.6856 173.412 23.5617C176.992 29.9168 180.518 36.2897 184.045 42.6802C189.422 52.4165 194.835 62.1351 200.178 71.9068C197.18 71.836 194.183 71.7652 191.186 71.6766C189.211 67.7821 187.236 63.8876 185.243 59.9931C177.873 60.0285 170.538 60.0108 163.186 60.0108C159.695 60.0108 156.221 60.0285 152.748 60.0462C150.72 63.9938 148.692 67.9237 146.665 71.8537C144.055 71.8537 141.428 71.836 138.818 71.836C147.405 55.8331 156.256 39.9895 164.702 23.9334ZM156.168 53.638C160.894 53.7973 165.619 53.8859 170.345 53.8505C174.206 53.8328 178.085 53.8505 181.964 53.8682C180.818 51.6731 179.654 49.4603 178.508 47.2652C175.387 41.2818 172.266 35.2983 169.075 29.3503C164.632 37.3695 160.576 45.6011 156.168 53.638Z" fill="#323031"/>
<path d="M203.369 23.9157C204.339 23.7741 206.296 23.4732 207.284 23.3315C221.671 34.9443 234.86 48.0263 248.878 60.117C248.948 47.9732 248.895 35.8294 248.913 23.6856C251.364 23.7033 253.797 23.7033 256.248 23.721C256.23 40.0426 256.354 56.3464 256.177 72.668C253.003 71.6767 249.812 70.4906 247.449 68.0654C235.266 56.789 222.941 45.6896 210.616 34.5902C210.616 46.9996 210.616 59.4266 210.616 71.8537C208.165 71.8537 205.714 71.8537 203.263 71.8537C203.281 56.8421 203.246 41.8305 203.228 26.8189C203.263 26.0931 203.334 24.6415 203.369 23.9157Z" fill="#323031"/>
<path d="M262.454 23.7034C265.134 23.7034 267.797 23.7034 270.477 23.7211C270.477 30.5719 270.477 37.4227 270.512 44.2735C279.328 38.3432 287.985 32.1651 296.766 26.1463C301.033 22.6943 306.764 23.8627 311.806 23.668C300.522 31.6694 288.779 38.9451 277.371 46.7695C289.66 54.7356 301.915 62.7725 314.204 70.7208C313.799 71.0394 312.988 71.6767 312.6 71.9777C307.945 71.9777 302.814 72.5264 298.9 69.4639C289.431 63.0734 280.033 56.5589 270.494 50.2392C270.477 57.4441 270.477 64.6489 270.477 71.8538C267.797 71.8538 265.117 71.8538 262.454 71.8538C262.437 55.7977 262.419 39.7417 262.454 23.7034Z" fill="#323031"/>
<path d="M89.731 84.5464C104.207 84.5287 118.683 84.6172 133.159 84.4756C140.335 85.042 150.473 82.5814 154.969 89.9456C157.209 98.3542 156.68 107.436 155.534 115.986C152.783 124.766 141.569 122.642 134.534 123.191C143.879 130.891 153.277 138.539 162.586 146.274C155.728 146.115 148.675 147.177 141.922 145.673C133.194 139.105 126.388 130.272 117.642 123.739C113.199 122.359 108.403 123.155 103.801 122.978C103.801 130.767 103.784 138.539 103.801 146.328C99.0936 146.328 94.4035 146.328 89.7134 146.345C89.7134 137.583 89.7134 128.82 89.6957 120.057C89.7134 108.232 89.6957 96.3892 89.731 84.5464ZM103.89 95.2209C103.819 99.6819 103.784 104.161 103.766 108.622C103.784 109.578 103.801 111.489 103.819 112.463C114.592 112.375 125.365 112.622 136.121 112.41C138.219 112.18 141.023 112.481 142.045 110.126C142.803 105.949 142.821 101.576 142.01 97.3984C139.841 94.389 135.61 95.6281 132.471 95.1856C128.01 95.5042 123.056 94.2827 118.912 96.2477L120.146 95.3094C114.716 95.2386 109.303 95.2386 103.89 95.2209Z" fill="#323031"/>
<path d="M166.677 84.5817C184.115 84.5817 201.536 84.4755 218.956 84.564C223.717 84.6703 229.835 85.219 232.057 90.2111C233.838 95.6457 233.679 101.647 232.727 107.241C232.092 111.277 227.737 112.534 224.792 114.481C227.719 116.481 231.739 117.809 232.833 121.597C234.155 126.696 233.802 132.042 233.749 137.264C231.775 142.291 227.155 144.805 222.289 146.328C203.74 146.328 185.191 146.469 166.66 146.221C166.73 125.669 166.695 105.116 166.677 84.5817ZM180.906 109.383C191.82 109.188 202.735 109.507 213.631 109.277C216.258 109.277 220.067 108.94 219.961 105.453C220.173 101.665 221.337 94.4597 215.5 94.8137C203.987 94.2472 192.455 94.8668 180.942 94.5482C180.783 99.4871 180.73 104.444 180.906 109.383ZM180.712 119.703C180.765 124.872 180.783 130.059 180.783 135.228C192.314 135.122 203.863 135.547 215.394 135.087C217.969 135.211 220.561 133.352 220.296 130.555C220.631 126.607 221.425 119.278 215.43 119.703C203.863 119.261 192.279 119.491 180.712 119.703Z" fill="#323031"/>
<path d="M241.648 84.5463C246.444 84.564 251.258 84.564 256.071 84.5463C256.089 93.1319 256.089 101.718 256.089 110.286C263.653 104.603 271.235 98.9206 278.764 93.1674C284.283 89.0781 289.643 83.1832 297.225 84.4224C301.774 84.4578 306.305 84.5463 310.854 84.5994C297.313 94.3003 283.718 103.966 270.177 113.702C285.376 124.571 300.628 135.334 315.773 146.274C307.874 145.885 299.605 147.549 291.953 145.354C279.716 137.069 268.149 127.775 256.089 119.208C256.071 128.253 256.089 137.299 256.071 146.327C251.258 146.327 246.444 146.328 241.648 146.345C241.631 140.875 241.613 135.405 241.613 129.935C241.666 114.8 241.613 99.6818 241.648 84.5463Z" fill="#323031"/>
</svg>
