<svg width="240" height="80" viewBox="0 0 240 80" fill="none" xmlns="http://www.w3.org/2000/svg">
<g clip-path="url(#clip0_393_20603)">
<path d="M123.501 9.62132C127.565 6.55534 131.382 3.16817 135.367 0C157.899 0.0291998 180.439 -0.00729992 202.972 0.0218998C191.2 9.76 179.305 19.3448 167.592 29.1633C162.524 25.8856 157.47 22.5714 152.402 19.2864C157.107 16.0599 161.949 13.0596 166.603 9.76C164.523 9.84033 162.16 9.35852 160.4 10.782C156.78 13.264 153.209 15.8117 149.574 18.2572C149.56 15.4321 149.56 12.607 149.56 9.7819C148.454 9.7746 147.357 9.7746 146.251 9.7746C146.237 16.3884 146.244 23.0094 146.251 29.6304C147.349 29.6304 148.454 29.6304 149.56 29.6304C149.56 26.6594 149.56 23.6883 149.567 20.7172C153.501 23.3233 157.376 26.0097 161.28 28.6449C162.894 29.9078 165.01 29.6815 166.93 29.6815C164.778 31.3532 162.698 33.0979 160.59 34.8134C157.463 34.3024 155.253 36.7333 152.977 38.4195C149.872 40.792 146.746 43.1353 143.626 45.4788C143.626 41.9456 143.626 38.4049 143.619 34.8645C141.634 34.8718 139.649 34.8718 137.672 34.8645C137.657 41.1059 137.679 47.3402 137.657 53.5814C136.537 54.5452 135.388 55.494 134.414 56.6037C134.436 54.4503 134.581 52.2458 134.036 50.1431C133.585 48.581 131.928 48.0334 130.721 47.2087C131.935 46.4058 133.731 45.8874 133.993 44.2231C134.385 41.9163 134.451 39.4416 133.716 37.2005C132.8 35.1419 130.277 34.9156 128.314 34.8718C121.13 34.8353 113.947 34.8791 106.755 34.8791C106.763 43.3472 106.777 51.8223 106.748 60.2973C114.39 60.3996 122.039 60.3414 129.688 60.3414C121.545 66.7212 113.641 73.4301 105.636 79.9926L106.392 80H38.0234C50.275 69.7365 62.7301 59.7282 75.0107 49.508C75.018 53.1216 75.018 56.7353 75.018 60.3485C76.952 60.3414 78.8861 60.3414 80.8276 60.3414C80.8201 57.1295 80.8276 53.9245 80.8276 50.7126C82.7253 50.7856 84.703 50.4573 86.5352 51.0264C90.1414 53.7204 92.948 57.3629 96.5471 60.0713C99.3319 60.6915 102.24 60.2536 105.069 60.3192C101.23 57.1295 97.3542 53.9757 93.5005 50.8004C96.4016 50.574 101.026 51.4499 102.16 47.8293C102.633 44.3035 102.851 40.5584 101.928 37.091C100.074 34.0542 95.8927 35.0689 92.9335 34.8353C97.056 31.47 101.113 28.0245 105.316 24.7468C108.348 24.7468 111.373 24.7541 114.412 24.7395C115.233 26.3455 116.048 27.9515 116.862 29.5574C118.098 29.5939 119.334 29.6231 120.57 29.6523C118.367 25.6228 116.135 21.6151 113.917 17.6002C116.542 15.4028 119.254 13.3078 121.828 11.0594C121.835 17.2497 121.85 23.4401 121.843 29.6304C122.854 29.6304 123.864 29.6304 124.875 29.6304C124.875 24.5059 124.875 19.3813 124.875 14.2641C129.957 18.8412 135.04 23.4182 140.064 28.0682C141.038 29.0683 142.354 29.5574 143.663 29.9662C143.736 23.2357 143.685 16.5125 143.692 9.7819C142.681 9.7746 141.678 9.7746 140.667 9.7673C140.66 14.7751 140.682 19.7828 140.653 24.7906C134.873 19.8047 129.434 14.4101 123.501 9.62132Z" fill="#56E2E3"/>
<path d="M108.266 22.2078C109.385 21.3026 110.512 20.3974 111.632 19.4922C112.104 20.3974 112.584 21.3099 113.057 22.2151C111.457 22.2078 109.858 22.2005 108.266 22.2078Z" fill="#56E2E3"/>
<path d="M87.0583 39.689C88.7671 38.8787 90.81 39.3824 92.6496 39.251C93.944 39.4335 95.6888 38.9225 96.5832 40.1635C96.9177 41.8862 96.9102 43.6895 96.5977 45.412C96.1762 46.3831 95.0199 46.259 94.1548 46.3539C89.7193 46.4413 85.2768 46.3394 80.8344 46.3757C80.8269 45.9741 80.8199 45.186 80.8125 44.7918C82.8995 43.0982 84.9205 41.3242 87.0583 39.689Z" fill="#56E2E3"/>
<path d="M112.623 45.1057C112.551 43.069 112.573 41.0249 112.638 38.9883C117.386 39.1197 122.141 38.8642 126.889 39.0978C129.296 38.9518 128.816 41.923 128.729 43.4851C128.772 44.923 127.202 45.062 126.118 45.062C121.625 45.1569 117.124 45.0253 112.623 45.1057Z" fill="#56E2E3"/>
<path d="M112.547 49.3619C117.317 49.2745 122.094 49.1796 126.864 49.3619C129.336 49.1866 129.008 52.2089 128.87 53.837C128.979 54.9904 127.911 55.757 126.849 55.7058C122.094 55.8955 117.331 55.7203 112.576 55.764C112.576 53.6324 112.569 51.4934 112.547 49.3619Z" fill="#56E2E3"/>
<path d="M75.0151 9.7735C80.4103 9.80999 85.8124 9.70051 91.2074 9.80269C92.7418 9.7662 94.6396 10.3575 94.9447 12.1022C95.3592 14.6718 95.8173 18.9057 92.2255 19.2123C95.7954 20.1978 95.6499 24.4464 94.9592 27.3737C94.094 29.3446 91.673 29.5709 89.8041 29.6147C84.8746 29.6731 79.9447 29.6074 75.0078 29.6293C75.0078 23.0083 75.0078 16.3946 75.0151 9.7735ZM78.3234 12.438C78.3234 14.263 78.3161 16.088 78.3088 17.9129C82.5406 17.7888 86.8086 18.2268 91.0111 17.7085C92.3055 16.4822 92.5088 12.0511 89.7534 12.4599C85.9435 12.365 82.1332 12.4818 78.3234 12.438ZM78.4034 26.9502C82.6425 26.6948 86.9468 27.2787 91.1422 26.629C92.4 25.2348 92.3126 22.271 91.1785 20.7672C86.9468 20.1686 82.635 20.7015 78.3743 20.4825C78.2797 22.636 78.3234 24.7968 78.4034 26.9502Z" fill="#323031"/>
<path d="M105.939 9.86812C107.139 9.81703 108.332 9.76594 109.531 9.71484C111.007 12.3355 112.462 14.9635 113.916 17.5988C116.133 21.6137 118.365 25.6214 120.569 29.651C119.332 29.6218 118.097 29.5926 116.861 29.556C116.046 27.9501 115.232 26.3441 114.41 24.7381C111.371 24.7527 108.346 24.7454 105.314 24.7454C103.875 24.7454 102.442 24.7527 101.01 24.76C100.174 26.3879 99.3374 28.0085 98.5015 29.6291C97.4252 29.6291 96.3419 29.6218 95.2656 29.6218C98.8067 23.0226 102.457 16.4892 105.939 9.86812ZM102.42 22.1174C104.369 22.1831 106.318 22.2197 108.266 22.2051C109.859 22.1978 111.458 22.2051 113.058 22.2124C112.585 21.3072 112.105 20.3947 111.633 19.4895C110.346 17.0221 109.059 14.5547 107.743 12.1019C105.911 15.4088 104.238 18.8033 102.42 22.1174Z" fill="#323031"/>
<path d="M121.886 9.862C122.286 9.80361 123.093 9.67953 123.501 9.62109C129.433 14.4099 134.872 19.8045 140.653 24.7904C140.682 19.7826 140.66 14.7749 140.667 9.76711C141.678 9.77441 142.681 9.77441 143.692 9.78171C143.685 16.5123 143.736 23.2355 143.663 29.966C142.354 29.5573 141.038 29.0681 140.064 28.0681C135.04 23.418 129.957 18.8409 124.875 14.2639C124.875 19.3811 124.875 24.5057 124.875 29.6302C123.864 29.6302 122.853 29.6302 121.843 29.6302C121.85 23.4399 121.836 17.2495 121.828 11.0592C121.843 10.7599 121.872 10.1613 121.886 9.862Z" fill="#323031"/>
<path d="M146.25 9.77355C147.356 9.77355 148.454 9.77355 149.559 9.78085C149.559 12.6059 149.559 15.431 149.573 18.2561C153.209 15.8106 156.779 13.2629 160.4 10.7809C162.159 9.35742 164.523 9.83924 166.602 9.75895C161.949 13.0585 157.106 16.0588 152.402 19.2853C157.469 22.5703 162.523 25.8845 167.591 29.1622C167.424 29.2935 167.089 29.5564 166.929 29.6805C165.01 29.6805 162.894 29.9067 161.28 28.6439C157.375 26.0086 153.5 23.3222 149.566 20.7161C149.559 23.6872 149.559 26.6583 149.559 29.6294C148.454 29.6294 147.349 29.6294 146.25 29.6294C146.243 23.0083 146.236 16.3873 146.25 9.77355Z" fill="#323031"/>
<path d="M75.0224 34.8651C80.9919 34.8578 86.9613 34.8943 92.9308 34.8359C95.89 35.0695 100.071 34.0548 101.925 37.0916C102.848 40.5591 102.63 44.3041 102.158 47.8299C101.023 51.4505 96.3989 50.5747 93.4978 50.8011C97.3514 53.9763 101.227 57.1301 105.066 60.3198C102.238 60.2542 99.3292 60.6922 96.5444 60.072C92.9453 57.3635 90.1387 53.721 86.5321 51.027C84.6999 50.458 82.7222 50.7862 80.8244 50.7132C80.8244 53.9252 80.8174 57.1301 80.8244 60.3421C78.8832 60.3421 76.9492 60.3421 75.0151 60.3491C75.0151 56.7359 75.0151 53.1223 75.0078 49.5087C75.0151 44.6324 75.0078 39.7488 75.0224 34.8651ZM80.8611 39.267C80.8319 41.1066 80.8174 42.9536 80.81 44.7932C80.8174 45.1874 80.8244 45.9755 80.8319 46.3771C85.2743 46.3408 89.7168 46.4427 94.1523 46.3553C95.0174 46.2604 96.1737 46.3846 96.5952 45.4134C96.9077 43.6909 96.9152 41.8876 96.5807 40.1649C95.6863 38.9239 93.9415 39.4349 92.6471 39.2524C90.8075 39.3838 88.7646 38.8801 87.0558 39.6904L87.5646 39.3035C85.3255 39.2743 83.0933 39.2743 80.8611 39.267Z" fill="#323031"/>
<path d="M106.757 34.8773C113.948 34.8773 121.132 34.8335 128.315 34.87C130.279 34.9138 132.802 35.1401 133.718 37.1987C134.452 39.4398 134.387 41.9145 133.994 44.2213C133.732 45.8857 131.936 46.404 130.722 47.2069C131.929 48.0316 133.587 48.5793 134.038 50.1413C134.583 52.244 134.437 54.4486 134.416 56.602C133.602 58.6749 131.696 59.7116 129.69 60.3397C122.041 60.3397 114.392 60.3978 106.75 60.2956C106.779 51.8205 106.764 43.345 106.757 34.8773ZM112.625 45.1046C117.125 45.0242 121.626 45.1558 126.119 45.0609C127.203 45.0609 128.774 44.9219 128.73 43.484C128.817 41.9219 129.297 38.9507 126.89 39.0967C122.143 38.8631 117.387 39.1186 112.639 38.9872C112.574 41.0238 112.552 43.0679 112.625 45.1046ZM112.545 49.3603C112.566 51.4918 112.574 53.6308 112.574 55.7624C117.329 55.7186 122.091 55.8939 126.846 55.7042C127.908 55.7554 128.977 54.9888 128.868 53.8353C129.006 52.2073 129.334 49.185 126.861 49.3603C122.091 49.178 117.315 49.2729 112.545 49.3603Z" fill="#323031"/>
<path d="M137.671 34.8664C139.648 34.8737 141.634 34.8737 143.618 34.8664C143.626 38.4068 143.626 41.9475 143.626 45.4807C146.745 43.1372 149.872 40.7939 152.976 38.4215C155.252 36.7352 157.462 34.3043 160.589 34.8153C162.465 34.8299 164.333 34.8664 166.209 34.8883C160.625 38.8887 155.019 42.8745 149.435 46.8894C155.703 51.3714 161.992 55.8098 168.238 60.3211C164.98 60.1607 161.57 60.8469 158.415 59.9417C153.369 56.5252 148.599 52.6927 143.626 49.1599C143.618 52.8898 143.626 56.6201 143.618 60.343C141.634 60.343 139.648 60.3434 137.671 60.3504C137.664 58.0947 137.656 55.8391 137.656 53.5834C137.678 47.3421 137.656 41.1078 137.671 34.8664Z" fill="#323031"/>
</g>
<defs>
<clipPath id="clip0_393_20603">
<rect width="164.948" height="80" fill="white" transform="translate(38.0234)"/>
</clipPath>
</defs>
</svg>
