<svg width="300" height="80" viewBox="0 0 300 80" fill="none" xmlns="http://www.w3.org/2000/svg">
<g clip-path="url(#clip0_393_20544)">
<path d="M142.084 31.7696C145.645 32.1796 148.271 32.9738 149.962 34.1524C151.756 35.4076 152.653 37.2011 152.653 39.5326C152.653 41.9409 151.743 43.8368 149.924 45.2203C148.054 46.6294 145.44 47.334 142.084 47.334C138.677 47.334 136.063 46.591 134.244 45.1051C132.425 43.6446 131.516 41.5311 131.516 38.7639H134.59C134.59 42.5558 137.088 44.4516 142.084 44.4516C144.518 44.4516 146.388 44.0034 147.695 43.1066C148.95 42.2612 149.578 41.0698 149.578 39.5326C149.578 38.0722 148.95 36.945 147.695 36.1506C146.542 35.459 144.672 34.9594 142.084 34.652C138.83 34.2676 136.409 33.5118 134.821 32.3845C133.13 31.1547 132.284 29.4125 132.284 27.158C132.284 24.8521 133.143 23.033 134.859 21.7009C136.601 20.343 139.01 19.6641 142.084 19.6641C145.21 19.6641 147.618 20.3814 149.309 21.8161C151.026 23.2509 151.884 25.2877 151.884 27.9265H148.809C148.809 24.3397 146.568 22.5463 142.084 22.5463C139.932 22.5463 138.267 22.969 137.088 23.8146C135.935 24.6088 135.359 25.7233 135.359 27.158C135.359 28.5671 135.935 29.6304 137.088 30.3477C138.138 31.0395 139.804 31.5134 142.084 31.7696ZM157.644 46.9497V27.7344H160.718V46.9497H157.644ZM160.718 20.2789C161.103 20.6888 161.295 21.1884 161.295 21.7778C161.295 22.3669 161.103 22.8666 160.718 23.2764C160.308 23.6865 159.796 23.8915 159.181 23.8915C158.566 23.8915 158.054 23.6865 157.644 23.2764C157.26 22.8666 157.068 22.3669 157.068 21.7778C157.068 21.1884 157.26 20.6888 157.644 20.2789C158.054 19.8689 158.566 19.6641 159.181 19.6641C159.796 19.6641 160.308 19.8689 160.718 20.2789ZM181.46 29.4637C182.331 30.3862 182.908 31.5391 183.19 32.9226C183.446 31.5391 183.958 30.3862 184.727 29.4637C185.931 28.0546 187.609 27.3502 189.761 27.3502C191.939 27.3502 193.656 28.0546 194.911 29.4637C196.192 30.8473 196.833 32.7048 196.833 35.0362V46.9497H193.758V35.4205C193.758 33.8576 193.284 32.6023 192.336 31.6543C191.388 30.7063 190.133 30.2324 188.57 30.2324C187.007 30.2324 185.752 30.7063 184.804 31.6543C183.856 32.6023 183.382 33.8576 183.382 35.4205V46.9497H180.307V35.4205C180.307 33.8576 179.834 32.6023 178.886 31.6543C177.938 30.7063 176.682 30.2324 175.119 30.2324C173.556 30.2324 172.301 30.7063 171.353 31.6543C170.405 32.6023 169.931 33.8576 169.931 35.4205V46.9497H166.857V27.7344H169.931V32.7688C170.187 31.4366 170.674 30.3348 171.392 29.4637C172.519 28.0546 174.159 27.3502 176.311 27.3502C178.488 27.3502 180.205 28.0546 181.46 29.4637ZM205.49 27.7344V54.6358H202.415V27.7344H205.49ZM212.599 44.4516C214.751 44.4516 216.481 43.7984 217.787 42.4918C219.069 41.2108 219.709 39.4941 219.709 37.342C219.709 35.19 219.069 33.4606 217.787 32.1539C216.481 30.873 214.751 30.2324 212.599 30.2324C210.447 30.2324 208.718 30.873 207.411 32.1539C206.13 33.4606 205.49 35.19 205.49 37.342C205.49 39.4941 206.13 41.2108 207.411 42.4918C208.718 43.7984 210.447 44.4516 212.599 44.4516ZM213.56 27.3502C216.352 27.3502 218.594 28.2597 220.286 30.0788C221.951 31.8977 222.784 34.3189 222.784 37.342C222.784 40.3652 221.951 42.7863 220.286 44.6055C218.594 46.4244 216.352 47.334 213.56 47.334C210.819 47.334 208.705 46.4244 207.219 44.6055C205.81 42.8632 205.106 40.4421 205.106 37.342C205.106 34.242 205.81 31.8208 207.219 30.0788C208.705 28.2597 210.819 27.3502 213.56 27.3502ZM227.767 46.9497V20.0484H230.841V46.9497H227.767ZM251.774 27.7344H255.042L243.398 54.6358H240.13L243.436 47.0266L235.057 27.7344H238.324L245.05 43.2604L251.774 27.7344Z" fill="#121212"/>
<mask id="mask0_393_20544" style="mask-type:luminance" maskUnits="userSpaceOnUse" x="129" y="18" width="128" height="38">
<path d="M256.643 18H129.977V56H256.643V18Z" fill="white"/>
<path d="M142.084 31.7696C145.645 32.1796 148.271 32.9738 149.962 34.1524C151.756 35.4076 152.653 37.2011 152.653 39.5326C152.653 41.9409 151.743 43.8368 149.924 45.2203C148.054 46.6294 145.44 47.334 142.084 47.334C138.677 47.334 136.063 46.591 134.244 45.1051C132.425 43.6446 131.516 41.5311 131.516 38.7639H134.59C134.59 42.5558 137.088 44.4516 142.084 44.4516C144.518 44.4516 146.388 44.0034 147.695 43.1066C148.95 42.2612 149.578 41.0698 149.578 39.5326C149.578 38.0722 148.95 36.945 147.695 36.1506C146.542 35.459 144.672 34.9594 142.084 34.652C138.83 34.2676 136.409 33.5118 134.821 32.3845C133.13 31.1547 132.284 29.4125 132.284 27.158C132.284 24.8521 133.143 23.033 134.859 21.7009C136.601 20.343 139.01 19.6641 142.084 19.6641C145.21 19.6641 147.618 20.3814 149.309 21.8161C151.026 23.2509 151.884 25.2877 151.884 27.9265H148.809C148.809 24.3397 146.568 22.5463 142.084 22.5463C139.932 22.5463 138.267 22.969 137.088 23.8146C135.935 24.6088 135.359 25.7233 135.359 27.158C135.359 28.5671 135.935 29.6304 137.088 30.3477C138.138 31.0395 139.804 31.5134 142.084 31.7696ZM157.644 46.9497V27.7344H160.718V46.9497H157.644ZM160.718 20.2789C161.103 20.6888 161.295 21.1884 161.295 21.7778C161.295 22.3669 161.103 22.8666 160.718 23.2764C160.308 23.6865 159.796 23.8915 159.181 23.8915C158.566 23.8915 158.054 23.6865 157.644 23.2764C157.26 22.8666 157.068 22.3669 157.068 21.7778C157.068 21.1884 157.26 20.6888 157.644 20.2789C158.054 19.8689 158.566 19.6641 159.181 19.6641C159.796 19.6641 160.308 19.8689 160.718 20.2789ZM181.46 29.4637C182.331 30.3862 182.908 31.5391 183.19 32.9226C183.446 31.5391 183.958 30.3862 184.727 29.4637C185.931 28.0546 187.609 27.3502 189.761 27.3502C191.939 27.3502 193.656 28.0546 194.911 29.4637C196.192 30.8473 196.833 32.7048 196.833 35.0362V46.9497H193.758V35.4205C193.758 33.8576 193.284 32.6023 192.336 31.6543C191.388 30.7063 190.133 30.2324 188.57 30.2324C187.007 30.2324 185.752 30.7063 184.804 31.6543C183.856 32.6023 183.382 33.8576 183.382 35.4205V46.9497H180.307V35.4205C180.307 33.8576 179.834 32.6023 178.886 31.6543C177.938 30.7063 176.682 30.2324 175.119 30.2324C173.556 30.2324 172.301 30.7063 171.353 31.6543C170.405 32.6023 169.931 33.8576 169.931 35.4205V46.9497H166.857V27.7344H169.931V32.7688C170.187 31.4366 170.674 30.3348 171.392 29.4637C172.519 28.0546 174.159 27.3502 176.311 27.3502C178.488 27.3502 180.205 28.0546 181.46 29.4637ZM205.49 27.7344V54.6358H202.415V27.7344H205.49ZM212.599 44.4516C214.751 44.4516 216.481 43.7984 217.787 42.4918C219.069 41.2108 219.709 39.4941 219.709 37.342C219.709 35.19 219.069 33.4606 217.787 32.1539C216.481 30.873 214.751 30.2324 212.599 30.2324C210.447 30.2324 208.718 30.873 207.411 32.1539C206.13 33.4606 205.49 35.19 205.49 37.342C205.49 39.4941 206.13 41.2108 207.411 42.4918C208.718 43.7984 210.447 44.4516 212.599 44.4516ZM213.56 27.3502C216.352 27.3502 218.594 28.2597 220.286 30.0788C221.951 31.8977 222.784 34.3189 222.784 37.342C222.784 40.3652 221.951 42.7863 220.286 44.6055C218.594 46.4244 216.352 47.334 213.56 47.334C210.819 47.334 208.705 46.4244 207.219 44.6055C205.81 42.8632 205.106 40.4421 205.106 37.342C205.106 34.242 205.81 31.8208 207.219 30.0788C208.705 28.2597 210.819 27.3502 213.56 27.3502ZM227.767 46.9497V20.0484H230.841V46.9497H227.767ZM251.774 27.7344H255.042L243.398 54.6358H240.13L243.436 47.0266L235.057 27.7344H238.324L245.05 43.2604L251.774 27.7344Z" fill="black"/>
</mask>
<g mask="url(#mask0_393_20544)">
<path d="M149.92 45.2439L150.204 45.6221L150.206 45.6208L149.92 45.2439ZM134.24 45.1283L134.539 44.7615L134.536 44.7589L134.24 45.1283ZM131.512 38.7709V38.2973H131.039V38.7709H131.512ZM134.586 38.7709H135.059V38.2973H134.586V38.7709ZM147.691 43.1247L147.427 42.7318L147.423 42.7342L147.691 43.1247ZM147.691 36.1509L147.943 35.7505L147.934 35.7447L147.691 36.1509ZM134.817 32.3751L134.539 32.7583L134.543 32.7615L134.817 32.3751ZM149.305 21.7797L148.999 22.1409L149.002 22.1431L149.305 21.7797ZM151.88 27.9058V28.3794H152.352V27.9058H151.88ZM148.805 27.9058H148.333V28.3794H148.805V27.9058ZM137.084 23.7833L137.352 24.1733L137.359 24.168L137.084 23.7833ZM137.084 30.3331L137.344 29.9374L137.334 29.9309L137.084 30.3331ZM142.026 32.2293C145.559 32.6371 148.093 33.4213 149.688 34.5361L150.229 33.7595C148.443 32.5112 145.723 31.7022 142.134 31.2881L142.026 32.2293ZM149.688 34.5361C151.346 35.6996 152.176 37.3468 152.176 39.5416H153.121C153.121 37.0615 152.158 35.1132 150.229 33.7595L149.688 34.5361ZM152.176 39.5416C152.176 41.8173 151.328 43.5748 149.634 44.8669L150.206 45.6208C152.15 44.1389 153.121 42.0947 153.121 39.5416H152.176ZM149.636 44.8654C147.876 46.1947 145.377 46.8893 142.08 46.8893V47.8367C145.496 47.8367 148.223 47.1184 150.204 45.6221L149.636 44.8654ZM142.08 46.8893C138.734 46.8893 136.243 46.1569 134.539 44.7615L133.941 45.4951C135.875 47.0792 138.611 47.8367 142.08 47.8367V46.8893ZM134.536 44.7589C132.85 43.4018 131.984 41.4312 131.984 38.7709H131.039C131.039 41.6589 131.992 43.9264 133.944 45.4977L134.536 44.7589ZM131.512 39.2446H134.586V38.2973H131.512V39.2446ZM134.114 38.7709C134.114 40.7852 134.782 42.3661 136.174 43.425C137.541 44.4654 139.536 44.9469 142.08 44.9469V43.9995C139.628 43.9995 137.876 43.5309 136.745 42.6703C135.639 41.8287 135.059 40.5582 135.059 38.7709H134.114ZM142.08 44.9469C144.562 44.9469 146.541 44.4904 147.958 43.5153L147.423 42.7342C146.227 43.5572 144.466 43.9995 142.08 43.9995V44.9469ZM147.955 43.5177C149.343 42.5803 150.046 41.2373 150.046 39.5416H149.101C149.101 40.9282 148.549 41.9738 147.427 42.7318L147.955 43.5177ZM150.046 39.5416C150.046 37.9118 149.333 36.6319 147.943 35.7505L147.438 36.5513C148.56 37.2626 149.101 38.2432 149.101 39.5416H150.046ZM147.934 35.7447C146.692 34.9979 144.739 34.4881 142.136 34.178L142.024 35.1189C144.596 35.4251 146.384 35.9171 147.448 36.5571L147.934 35.7447ZM142.136 34.178C138.913 33.7963 136.584 33.0518 135.09 31.9889L134.543 32.7615C136.226 33.9589 138.739 34.7297 142.024 35.1189L142.136 34.178ZM135.095 31.9921C133.537 30.8561 132.753 29.2578 132.753 27.1353H131.808C131.808 29.5332 132.715 31.4283 134.539 32.7583L135.095 31.9921ZM132.753 27.1353C132.753 24.9596 133.551 23.278 135.145 22.0384L134.565 21.2899C132.726 22.7214 131.808 24.6874 131.808 27.1353H132.753ZM135.145 22.0384C136.777 20.7632 139.07 20.0958 142.08 20.0958V19.1484C138.941 19.1484 136.418 19.8425 134.565 21.2899L135.145 22.0384ZM142.08 20.0958C145.139 20.0958 147.423 20.7999 148.999 22.1409L149.611 21.4185C147.805 19.8826 145.272 19.1484 142.08 19.1484V20.0958ZM149.002 22.1431C150.591 23.475 151.407 25.3726 151.407 27.9058H152.352C152.352 25.1477 151.452 22.9611 149.608 21.4163L149.002 22.1431ZM151.88 27.4321H148.805V28.3794H151.88V27.4321ZM149.278 27.9058C149.278 26.0032 148.68 24.5013 147.419 23.4904C146.179 22.4956 144.372 22.038 142.08 22.038V22.9854C144.271 22.9854 145.827 23.427 146.829 24.2301C147.81 25.0172 148.333 26.2124 148.333 27.9058H149.278ZM142.08 22.038C139.874 22.038 138.098 22.4711 136.809 23.3983L137.359 24.168C138.427 23.4001 139.981 22.9854 142.08 22.9854V22.038ZM136.816 23.393C135.531 24.2803 134.882 25.5455 134.882 27.1353H135.827C135.827 25.848 136.331 24.8786 137.352 24.1733L136.816 23.393ZM134.882 27.1353C134.882 28.7042 135.537 29.9258 136.834 30.7353L137.334 29.9309C136.326 29.3021 135.827 28.3918 135.827 27.1353H134.882ZM136.824 30.7288C137.969 31.4845 139.723 31.9698 142.026 32.2293L142.134 31.2881C139.876 31.0339 138.3 30.5688 137.344 29.9374L136.824 30.7288ZM157.64 46.9777H157.167V47.4513H157.64V46.9777ZM157.64 27.7131V27.2394H157.167V27.7131H157.64ZM160.714 27.7131H161.187V27.2394H160.714V27.7131ZM160.714 46.9777V47.4513H161.187V46.9777H160.714ZM160.714 20.2386L161.059 19.9144L161.048 19.9037L160.714 20.2386ZM160.714 23.2437L161.049 23.579L161.059 23.5677L160.714 23.2437ZM157.64 23.2437L157.295 23.5679L157.306 23.5788L157.64 23.2437ZM157.64 20.2386L157.306 19.9035L157.295 19.9146L157.64 20.2386ZM158.112 46.9777V27.7131H157.167V46.9777H158.112ZM157.64 28.1869H160.714V27.2394H157.64V28.1869ZM160.242 27.7131V46.9777H161.187V27.7131H160.242ZM160.714 46.504H157.64V47.4513H160.714V46.504ZM160.37 20.5626C160.667 20.8811 160.818 21.2643 160.818 21.7412H161.763C161.763 21.0364 161.53 20.4178 161.059 19.9144L160.37 20.5626ZM160.818 21.7412C160.818 22.218 160.667 22.6013 160.37 22.9199L161.059 23.5677C161.53 23.0645 161.763 22.4459 161.763 21.7412H160.818ZM160.38 22.9088C160.065 23.2252 159.675 23.3865 159.177 23.3865V24.334C159.909 24.334 160.544 24.0846 161.049 23.579L160.38 22.9088ZM159.177 23.3865C158.679 23.3865 158.289 23.2252 157.974 22.9088L157.306 23.5788C157.81 24.0844 158.445 24.334 159.177 24.334V23.3865ZM157.985 22.9199C157.687 22.6013 157.536 22.218 157.536 21.7412H156.591C156.591 22.4459 156.824 23.0647 157.295 23.5679L157.985 22.9199ZM157.536 21.7412C157.536 21.2643 157.687 20.8811 157.985 20.5626L157.295 19.9146C156.824 20.418 156.591 21.0364 156.591 21.7412H157.536ZM157.974 20.5735C158.289 20.2573 158.679 20.0958 159.177 20.0958V19.1484C158.445 19.1484 157.81 19.3977 157.306 19.9035L157.974 20.5735ZM159.177 20.0958C159.675 20.0958 160.065 20.2573 160.38 20.5735L161.048 19.9037C160.544 19.3979 159.909 19.1484 159.177 19.1484V20.0958ZM181.456 29.4469L181.103 29.7622L181.113 29.7722L181.456 29.4469ZM183.186 32.9146L182.723 33.0092L183.65 33.0008L183.186 32.9146ZM184.723 29.4469L184.364 29.1392L184.36 29.1437L184.723 29.4469ZM194.907 29.4469L194.554 29.7622L194.56 29.7687L194.907 29.4469ZM196.828 46.9777V47.4513H197.301V46.9777H196.828ZM193.754 46.9777H193.281V47.4513H193.754V46.9777ZM183.378 46.9777V47.4513H183.85V46.9777H183.378ZM180.303 46.9777H179.831V47.4513H180.303V46.9777ZM169.927 46.9777V47.4513H170.4V46.9777H169.927ZM166.853 46.9777H166.38V47.4513H166.853V46.9777ZM166.853 27.7131V27.2394H166.38V27.7131H166.853ZM169.927 27.7131H170.4V27.2394H169.927V27.7131ZM169.927 32.7604H169.455L170.391 32.8499L169.927 32.7604ZM171.387 29.4469L171.752 29.7482L171.756 29.743L171.387 29.4469ZM181.113 29.7722C181.917 30.6255 182.456 31.6986 182.723 33.0092L183.649 32.8199C183.351 31.3565 182.738 30.1178 181.8 29.1218L181.113 29.7722ZM183.65 33.0008C183.894 31.6799 184.377 30.6025 185.086 29.7502L184.36 29.1437C183.531 30.1408 182.989 31.3752 182.721 32.8283L183.65 33.0008ZM185.082 29.7547C186.182 28.4647 187.719 27.8016 189.757 27.8016V26.8543C187.492 26.8543 185.672 27.6037 184.364 29.1392L185.082 29.7547ZM189.757 27.8016C191.823 27.8016 193.402 28.4663 194.554 29.7622L195.26 29.1319C193.9 27.6022 192.047 26.8543 189.757 26.8543V27.8016ZM194.56 29.7687C195.742 31.0488 196.356 32.786 196.356 35.0336H197.301C197.301 32.6064 196.634 30.6192 195.254 29.125L194.56 29.7687ZM196.356 35.0336V46.9777H197.301V35.0336H196.356ZM196.828 46.504H193.754V47.4513H196.828V46.504ZM194.227 46.9777V35.4189H193.281V46.9777H194.227ZM194.227 35.4189C194.227 33.749 193.717 32.3621 192.666 31.3082L191.998 31.978C192.843 32.8248 193.281 33.9552 193.281 35.4189H194.227ZM192.666 31.3082C191.615 30.2542 190.232 29.7439 188.566 29.7439V30.6912C190.026 30.6912 191.153 31.1313 191.998 31.978L192.666 31.3082ZM188.566 29.7439C186.9 29.7439 185.517 30.2542 184.466 31.3082L185.134 31.978C185.978 31.1313 187.106 30.6912 188.566 30.6912V29.7439ZM184.466 31.3082C183.414 32.3621 182.905 33.749 182.905 35.4189H183.85C183.85 33.9552 184.289 32.8248 185.134 31.978L184.466 31.3082ZM182.905 35.4189V46.9777H183.85V35.4189H182.905ZM183.378 46.504H180.303V47.4513H183.378V46.504ZM180.776 46.9777V35.4189H179.831V46.9777H180.776ZM180.776 35.4189C180.776 33.749 180.267 32.3621 179.215 31.3082L178.547 31.978C179.392 32.8248 179.831 33.9552 179.831 35.4189H180.776ZM179.215 31.3082C178.164 30.2542 176.781 29.7439 175.115 29.7439V30.6912C176.575 30.6912 177.703 31.1313 178.547 31.978L179.215 31.3082ZM175.115 29.7439C173.449 29.7439 172.066 30.2542 171.015 31.3082L171.683 31.978C172.528 31.1313 173.655 30.6912 175.115 30.6912V29.7439ZM171.015 31.3082C169.964 32.3621 169.455 33.749 169.455 35.4189H170.4C170.4 33.9552 170.838 32.8248 171.683 31.978L171.015 31.3082ZM169.455 35.4189V46.9777H170.4V35.4189H169.455ZM169.927 46.504H166.853V47.4513H169.927V46.504ZM167.325 46.9777V27.7131H166.38V46.9777H167.325ZM166.853 28.1869H169.927V27.2394H166.853V28.1869ZM169.455 27.7131V32.7604H170.4V27.7131H169.455ZM170.391 32.8499C170.635 31.5763 171.094 30.5492 171.752 29.7482L171.023 29.1459C170.246 30.0915 169.731 31.2732 169.463 32.671L170.391 32.8499ZM171.756 29.743C172.776 28.4645 174.267 27.8016 176.306 27.8016V26.8543C174.042 26.8543 172.253 27.6039 171.019 29.151L171.756 29.743ZM176.306 27.8016C178.372 27.8016 179.952 28.4663 181.103 29.7622L181.809 29.1319C180.45 27.6022 178.596 26.8543 176.306 26.8543V27.8016ZM205.486 27.7131H205.958V27.2394H205.486V27.7131ZM205.486 54.6835V55.1572H205.958V54.6835H205.486ZM202.411 54.6835H201.939V55.1572H202.411V54.6835ZM202.411 27.7131V27.2394H201.939V27.7131H202.411ZM217.783 32.144L218.122 31.8124L218.114 31.8057L217.783 32.144ZM207.407 32.144L207.077 31.8057L207.07 31.8124L207.407 32.144ZM220.282 30.0635L220.63 29.7435L220.628 29.741L220.282 30.0635ZM220.282 44.6274L220.628 44.95L220.63 44.9472L220.282 44.6274ZM207.215 44.6274L206.848 44.9253L206.849 44.9271L207.215 44.6274ZM207.215 30.0635L206.849 29.7638L206.848 29.7656L207.215 30.0635ZM205.013 27.7131V54.6835H205.958V27.7131H205.013ZM205.486 54.2098H202.411V55.1572H205.486V54.2098ZM202.884 54.6835V27.7131H201.939V54.6835H202.884ZM202.411 28.1869H205.486V27.2394H202.411V28.1869ZM212.595 44.9469C214.85 44.9469 216.708 44.2568 218.118 42.8432L217.45 42.1734C216.245 43.3798 214.644 43.9995 212.595 43.9995V44.9469ZM218.118 42.8432C219.504 41.4537 220.177 39.6033 220.177 37.3454H219.233C219.233 39.4028 218.625 40.9944 217.45 42.1734L218.118 42.8432ZM220.177 37.3454C220.177 35.0873 219.504 33.2263 218.122 31.8124L217.447 32.4756C218.625 33.6817 219.233 35.2883 219.233 37.3454H220.177ZM218.114 31.8057C216.705 30.4195 214.848 29.7439 212.595 29.7439V30.6912C214.647 30.6912 216.251 31.2999 217.452 32.4823L218.114 31.8057ZM212.595 29.7439C210.343 29.7439 208.487 30.4195 207.077 31.8057L207.738 32.4823C208.941 31.2999 210.544 30.6912 212.595 30.6912V29.7439ZM207.07 31.8124C205.687 33.2263 205.013 35.0873 205.013 37.3454H205.958C205.958 35.2883 206.565 33.6817 207.745 32.4756L207.07 31.8124ZM205.013 37.3454C205.013 39.6033 205.687 41.4537 207.073 42.8432L207.742 42.1734C206.566 40.9944 205.958 39.4028 205.958 37.3454H205.013ZM207.073 42.8432C208.483 44.2568 210.34 44.9469 212.595 44.9469V43.9995C210.546 43.9995 208.945 43.3798 207.742 42.1734L207.073 42.8432ZM213.556 27.8016C216.236 27.8016 218.346 28.6711 219.935 30.3859L220.628 29.741C218.836 27.8083 216.462 26.8543 213.556 26.8543V27.8016ZM219.933 30.3833C221.502 32.101 222.307 34.4048 222.307 37.3454H223.252C223.252 34.2241 222.392 31.6732 220.63 29.7435L219.933 30.3833ZM222.307 37.3454C222.307 40.2859 221.502 42.5899 219.933 44.3076L220.63 44.9472C222.392 43.0175 223.252 40.4666 223.252 37.3454H222.307ZM219.935 44.3049C218.346 46.0196 216.236 46.8893 213.556 46.8893V47.8367C216.462 47.8367 218.836 46.8826 220.628 44.95L219.935 44.3049ZM213.556 46.8893C210.93 46.8893 208.962 46.0223 207.581 44.3277L206.849 44.9271C208.441 46.8799 210.7 47.8367 213.556 47.8367V46.8893ZM207.583 44.3295C206.264 42.6944 205.574 40.3861 205.574 37.3454H204.629C204.629 40.5207 205.349 43.0671 206.848 44.9253L207.583 44.3295ZM205.574 37.3454C205.574 34.3047 206.264 31.9965 207.583 30.3614L206.848 29.7656C205.349 31.6237 204.629 34.17 204.629 37.3454H205.574ZM207.581 30.363C208.962 28.6686 210.93 27.8016 213.556 27.8016V26.8543C210.7 26.8543 208.441 27.8109 206.849 29.7638L207.581 30.363ZM227.763 46.9777H227.289V47.4513H227.763V46.9777ZM227.763 20.0074V19.5336H227.289V20.0074H227.763ZM230.837 20.0074H231.309V19.5336H230.837V20.0074ZM230.837 46.9777V47.4513H231.309V46.9777H230.837ZM228.235 46.9777V20.0074H227.289V46.9777H228.235ZM227.763 20.4811H230.837V19.5336H227.763V20.4811ZM230.363 20.0074V46.9777H231.309V20.0074H230.363ZM230.837 46.504H227.763V47.4513H230.837V46.504ZM251.77 27.7131V27.2394H251.46L251.337 27.525L251.77 27.7131ZM255.038 27.7131L255.47 27.9014L255.756 27.2394H255.038V27.7131ZM243.394 54.6835V55.1572H243.703L243.826 54.8716L243.394 54.6835ZM240.126 54.6835L239.693 54.4948L239.405 55.1572H240.126V54.6835ZM243.431 47.0548L243.864 47.2434L243.945 47.0548L243.864 46.8661L243.431 47.0548ZM235.053 27.7131V27.2394H234.333L234.619 27.9018L235.053 27.7131ZM238.32 27.7131L238.754 27.525L238.631 27.2394H238.32V27.7131ZM245.046 43.2789L244.611 43.4671L245.046 44.4707L245.478 43.4671L245.046 43.2789ZM251.77 28.1869H255.038V27.2394H251.77V28.1869ZM254.603 27.525L242.959 54.4954L243.826 54.8716L255.47 27.9014L254.603 27.525ZM243.394 54.2098H240.126V55.1572H243.394V54.2098ZM240.56 54.8722L243.864 47.2434L242.997 46.8661L239.693 54.4948L240.56 54.8722ZM243.864 46.8661L235.486 27.5244L234.619 27.9018L242.997 47.2434L243.864 46.8661ZM235.053 28.1869H238.32V27.2394H235.053V28.1869ZM237.887 27.9014L244.611 43.4671L245.478 43.0906L238.754 27.525L237.887 27.9014ZM245.478 43.4671L252.204 27.9014L251.337 27.525L244.611 43.0906L245.478 43.4671Z" fill="#121212"/>
</g>
<path d="M54.6542 16.1064C55.9765 9.41955 62.4692 5.07075 69.156 6.39306L101.404 12.7701L104.957 41.6079L63.8016 33.4696C57.1149 32.1473 52.7661 25.6546 54.0884 18.9678L54.6542 16.1064Z" fill="#CCFE00"/>
<path d="M100.437 48.9873C98.9124 42.3436 92.291 38.1934 85.6472 39.7176L53.6071 47.0684L50.9297 76.0006L91.8192 66.6195C98.4629 65.0954 102.613 58.474 101.089 51.8302L100.437 48.9873Z" fill="#CCFE00"/>
<path d="M136.973 60.7248C137.341 61.1751 137.601 61.7234 137.75 62.3701V56.2044H139.132V68.3279H137.75V65.6262C137.601 66.2726 137.341 66.8211 136.973 67.2715C136.305 68.0913 135.355 68.5012 134.123 68.5012C132.867 68.5012 131.86 68.0913 131.099 67.2715C130.351 66.4517 129.977 65.3605 129.977 63.9981C129.977 62.6357 130.351 61.5446 131.099 60.7248C131.86 59.9049 132.867 59.495 134.123 59.495C135.355 59.495 136.305 59.9049 136.973 60.7248ZM132.222 66.319C132.81 66.9077 133.587 67.2022 134.554 67.2022C135.522 67.2022 136.299 66.9077 136.887 66.319C137.463 65.7416 137.75 64.9679 137.75 63.9981C137.75 63.0281 137.463 62.2488 136.887 61.66C136.299 61.0826 135.522 60.7941 134.554 60.7941C133.587 60.7941 132.81 61.0826 132.222 61.66C131.646 62.2488 131.359 63.0281 131.359 63.9981C131.359 64.9679 131.646 65.7416 132.222 66.319ZM141.89 68.3279V59.6682H143.272V68.3279H141.89ZM143.272 56.3083C143.445 56.493 143.531 56.7182 143.531 56.9838C143.531 57.2494 143.445 57.4746 143.272 57.6593C143.088 57.844 142.858 57.9363 142.581 57.9363C142.305 57.9363 142.075 57.844 141.89 57.6593C141.718 57.4746 141.631 57.2494 141.631 56.9838C141.631 56.7182 141.718 56.493 141.89 56.3083C142.075 56.1235 142.305 56.0312 142.581 56.0312C142.858 56.0312 143.088 56.1235 143.272 56.3083ZM152.51 60.7075C152.878 61.1462 153.137 61.6889 153.287 62.3355V59.6682H154.669V67.8084C154.669 69.1477 154.255 70.1811 153.425 70.9086C152.619 71.6128 151.508 71.965 150.091 71.965C148.813 71.965 147.782 71.6705 146.999 71.0818C146.193 70.4812 145.721 69.6212 145.582 68.5012H146.964C147.229 69.9445 148.272 70.666 150.091 70.666C151.093 70.666 151.871 70.4294 152.423 69.9559C152.999 69.471 153.287 68.7552 153.287 67.8084V65.4876C153.137 66.1342 152.878 66.6768 152.51 67.1156C151.842 67.9238 150.892 68.3279 149.659 68.3279C148.404 68.3279 147.396 67.9238 146.636 67.1156C145.888 66.319 145.513 65.2508 145.513 63.9115C145.513 62.5721 145.888 61.5041 146.636 60.7075C147.396 59.8992 148.404 59.495 149.659 59.495C150.892 59.495 151.842 59.8992 152.51 60.7075ZM147.759 66.1804C148.347 66.7461 149.124 67.029 150.091 67.029C151.059 67.029 151.836 66.7461 152.423 66.1804C152.999 65.6146 153.287 64.8584 153.287 63.9115C153.287 62.9647 152.999 62.2085 152.423 61.6427C151.836 61.0769 151.059 60.7941 150.091 60.7941C149.124 60.7941 148.347 61.0769 147.759 61.6427C147.183 62.2085 146.895 62.9647 146.895 63.9115C146.895 64.8584 147.183 65.6146 147.759 66.1804ZM157.427 68.3279V59.6682H158.809V68.3279H157.427ZM158.809 56.3083C158.982 56.493 159.068 56.7182 159.068 56.9838C159.068 57.2494 158.982 57.4746 158.809 57.6593C158.625 57.844 158.395 57.9363 158.118 57.9363C157.842 57.9363 157.611 57.844 157.427 57.6593C157.254 57.4746 157.168 57.2494 157.168 56.9838C157.168 56.7182 157.254 56.493 157.427 56.3083C157.611 56.1235 157.842 56.0312 158.118 56.0312C158.395 56.0312 158.625 56.1235 158.809 56.3083ZM164.419 56.2044V59.6682H167.01V60.9672H164.419V68.3279H163.037V60.9672H160.791V59.6682H163.037V57.0704L164.419 56.2044ZM174.988 60.7248C175.357 61.1751 175.616 61.7234 175.766 62.3701V59.6682H177.148V68.3279H175.766V65.6262C175.616 66.2726 175.357 66.8211 174.988 67.2715C174.32 68.0913 173.37 68.5012 172.138 68.5012C170.883 68.5012 169.875 68.0913 169.115 67.2715C168.366 66.4517 167.992 65.3605 167.992 63.9981C167.992 62.6357 168.366 61.5446 169.115 60.7248C169.875 59.9049 170.883 59.495 172.138 59.495C173.37 59.495 174.32 59.9049 174.988 60.7248ZM170.238 66.319C170.825 66.9077 171.602 67.2022 172.57 67.2022C173.537 67.2022 174.315 66.9077 174.902 66.319C175.478 65.7416 175.766 64.9679 175.766 63.9981C175.766 63.0281 175.478 62.2488 174.902 61.66C174.315 61.0826 173.537 60.7941 172.57 60.7941C171.602 60.7941 170.825 61.0826 170.238 61.66C169.662 62.2488 169.374 63.0281 169.374 63.9981C169.374 64.9679 169.662 65.7416 170.238 66.319ZM179.906 68.3279V56.2044H181.288V68.3279H179.906ZM195.527 60.7248C195.895 61.1751 196.154 61.7234 196.304 62.3701V59.6682H197.686V68.3279H196.304V65.6262C196.154 66.2726 195.895 66.8211 195.527 67.2715C194.859 68.0913 193.909 68.5012 192.676 68.5012C191.421 68.5012 190.413 68.0913 189.653 67.2715C188.905 66.4517 188.53 65.3605 188.53 63.9981C188.53 62.6357 188.905 61.5446 189.653 60.7248C190.413 59.9049 191.421 59.495 192.676 59.495C193.909 59.495 194.859 59.9049 195.527 60.7248ZM190.776 66.319C191.363 66.9077 192.141 67.2022 193.108 67.2022C194.076 67.2022 194.853 66.9077 195.44 66.319C196.016 65.7416 196.304 64.9679 196.304 63.9981C196.304 63.0281 196.016 62.2488 195.44 61.66C194.853 61.0826 194.076 60.7941 193.108 60.7941C192.141 60.7941 191.363 61.0826 190.776 61.66C190.2 62.2488 189.912 63.0281 189.912 63.9981C189.912 64.9679 190.2 65.7416 190.776 66.319ZM206.922 60.7075C207.291 61.1462 207.55 61.6889 207.7 62.3355V59.6682H209.082V67.8084C209.082 69.1477 208.667 70.1811 207.838 70.9086C207.032 71.6128 205.92 71.965 204.504 71.965C203.225 71.965 202.195 71.6705 201.411 71.0818C200.605 70.4812 200.133 69.6212 199.995 68.5012H201.377C201.642 69.9445 202.684 70.666 204.504 70.666C205.506 70.666 206.283 70.4294 206.836 69.9559C207.412 69.471 207.7 68.7552 207.7 67.8084V65.4876C207.55 66.1342 207.291 66.6768 206.922 67.1156C206.254 67.9238 205.304 68.3279 204.072 68.3279C202.817 68.3279 201.809 67.9238 201.049 67.1156C200.3 66.319 199.926 65.2508 199.926 63.9115C199.926 62.5721 200.3 61.5041 201.049 60.7075C201.809 59.8992 202.817 59.495 204.072 59.495C205.304 59.495 206.254 59.8992 206.922 60.7075ZM202.172 66.1804C202.759 66.7461 203.536 67.029 204.504 67.029C205.471 67.029 206.249 66.7461 206.836 66.1804C207.412 65.6146 207.7 64.8584 207.7 63.9115C207.7 62.9647 207.412 62.2085 206.836 61.6427C206.249 61.0769 205.471 60.7941 204.504 60.7941C203.536 60.7941 202.759 61.0769 202.172 61.6427C201.596 62.2085 201.308 62.9647 201.308 63.9115C201.308 64.8584 201.596 65.6146 202.172 66.1804ZM218.024 61.4868C217.459 61.0249 216.752 60.7941 215.899 60.7941C215.048 60.7941 214.339 61.0249 213.774 61.4868C213.221 61.937 212.882 62.5548 212.756 63.3399H219.044C218.916 62.5548 218.577 61.937 218.024 61.4868ZM212.566 60.7248C213.406 59.9049 214.517 59.495 215.899 59.495C217.281 59.495 218.392 59.9049 219.234 60.7248C220.062 61.5446 220.478 62.6357 220.478 63.9981L220.46 64.3271L220.425 64.6389H212.756C212.882 65.4355 213.221 66.059 213.774 66.5094C214.339 66.9713 215.048 67.2022 215.899 67.2022C217.132 67.2022 218.029 66.7518 218.594 65.8513H220.149C219.826 66.6825 219.296 67.3292 218.559 67.7911C217.811 68.2644 216.924 68.5012 215.899 68.5012C214.517 68.5012 213.406 68.0913 212.566 67.2715C211.736 66.4517 211.322 65.3605 211.322 63.9981C211.322 62.6357 211.736 61.5446 212.566 60.7248ZM224.112 59.6682V62.2488C224.225 61.5561 224.474 60.9845 224.854 60.5341C225.418 59.8415 226.235 59.495 227.306 59.495C228.39 59.495 229.254 59.8415 229.899 60.5341C230.531 61.2269 230.848 62.1508 230.848 63.3053V68.3279H229.467V63.4785C229.467 62.6702 229.224 62.0179 228.74 61.5214C228.245 61.0365 227.594 60.7941 226.789 60.7941C225.983 60.7941 225.332 61.0365 224.837 61.5214C224.353 62.0179 224.112 62.6702 224.112 63.4785V68.3279H222.729V59.6682H224.112ZM240.5 64.8641H241.918C241.743 65.984 241.255 66.8673 240.448 67.5139C239.643 68.172 238.629 68.5012 237.408 68.5012C236.025 68.5012 234.915 68.0913 234.074 67.2715C233.245 66.4517 232.831 65.3605 232.831 63.9981C232.831 62.6357 233.245 61.5446 234.074 60.7248C234.915 59.9049 236.025 59.495 237.408 59.495C238.629 59.495 239.643 59.8241 240.448 60.4823C241.255 61.1288 241.743 62.0122 241.918 63.1322H240.5C240.34 62.4046 239.988 61.8332 239.446 61.4176C238.893 61.0018 238.215 60.7941 237.408 60.7941C236.441 60.7941 235.663 61.0826 235.077 61.66C234.501 62.2488 234.211 63.0281 234.211 63.9981C234.211 64.9679 234.501 65.7416 235.077 66.319C235.663 66.9077 236.441 67.2022 237.408 67.2022C238.215 67.2022 238.893 66.9943 239.446 66.5787C239.988 66.1631 240.34 65.5914 240.5 64.8641ZM250.821 59.6682H252.289L247.055 71.7918H245.587L247.072 68.3626L243.307 59.6682H244.775L247.797 66.6653L250.821 59.6682Z" fill="#121212"/>
</g>
<defs>
<clipPath id="clip0_393_20544">
<rect width="211" height="72" fill="white" transform="translate(45 4)"/>
</clipPath>
</defs>
</svg>
