<svg width="125" height="47" viewBox="0 0 125 47" fill="none" xmlns="http://www.w3.org/2000/svg">
<mask id="path-1-outside-1_363_16884" maskUnits="userSpaceOnUse" x="54.791" y="10" width="70" height="21" fill="black">
<rect fill="white" x="54.791" y="10" width="70" height="21"/>
<path d="M61.481 17.611C63.449 17.8376 64.9003 18.2765 65.8347 18.9278C66.8258 19.6215 67.3214 20.6126 67.3214 21.9011C67.3214 23.232 66.8188 24.2797 65.8135 25.0443C64.7799 25.823 63.3357 26.2124 61.481 26.2124C59.5979 26.2124 58.1537 25.8018 57.1484 24.9806C56.1432 24.1735 55.6405 23.0055 55.6405 21.4763H57.3396C57.3396 23.5718 58.72 24.6195 61.481 24.6195C62.826 24.6195 63.8596 24.3718 64.5817 23.8762C65.2755 23.409 65.6224 22.7506 65.6224 21.9011C65.6224 21.094 65.2755 20.4711 64.5817 20.0321C63.9446 19.6499 62.911 19.3738 61.481 19.2039C59.6828 18.9915 58.3448 18.5738 57.467 17.9508C56.5325 17.2712 56.0653 16.3084 56.0653 15.0625C56.0653 13.7882 56.5396 12.7829 57.4882 12.0467C58.451 11.2963 59.7819 10.9211 61.481 10.9211C63.2083 10.9211 64.5392 11.3175 65.4737 12.1104C66.4223 12.9033 66.8966 14.0289 66.8966 15.4872H65.1976C65.1976 13.505 63.9587 12.5139 61.481 12.5139C60.2916 12.5139 59.3713 12.7475 58.72 13.2148C58.0829 13.6537 57.7643 14.2696 57.7643 15.0625C57.7643 15.8412 58.0829 16.4288 58.72 16.8252C59.3005 17.2075 60.2208 17.4694 61.481 17.611ZM70.0798 26V15.381H71.7789V26H70.0798ZM71.7789 11.2609C71.9912 11.4874 72.0974 11.7635 72.0974 12.0892C72.0974 12.4148 71.9912 12.6909 71.7789 12.9174C71.5523 13.144 71.2691 13.2573 70.9293 13.2573C70.5895 13.2573 70.3064 13.144 70.0798 12.9174C69.8674 12.6909 69.7613 12.4148 69.7613 12.0892C69.7613 11.7635 69.8674 11.4874 70.0798 11.2609C70.3064 11.0343 70.5895 10.9211 70.9293 10.9211C71.2691 10.9211 71.5523 11.0343 71.7789 11.2609ZM83.2415 16.3367C83.7229 16.8465 84.0415 17.4836 84.1972 18.2482C84.3388 17.4836 84.622 16.8465 85.0467 16.3367C85.7122 15.558 86.6396 15.1687 87.8289 15.1687C89.0324 15.1687 89.981 15.558 90.6748 16.3367C91.3827 17.1013 91.7367 18.1278 91.7367 19.4162V26H90.0377V19.6286C90.0377 18.7649 89.7757 18.0712 89.2519 17.5473C88.728 17.0234 88.0342 16.7615 87.1705 16.7615C86.3069 16.7615 85.6131 17.0234 85.0892 17.5473C84.5654 18.0712 84.3034 18.7649 84.3034 19.6286V26H82.6044V19.6286C82.6044 18.7649 82.3425 18.0712 81.8186 17.5473C81.2947 17.0234 80.6009 16.7615 79.7373 16.7615C78.8736 16.7615 78.1798 17.0234 77.656 17.5473C77.1321 18.0712 76.8702 18.7649 76.8702 19.6286V26H75.1711V15.381H76.8702V18.1632C77.0117 17.427 77.2808 16.8181 77.6772 16.3367C78.3002 15.558 79.2063 15.1687 80.3956 15.1687C81.5991 15.1687 82.5478 15.558 83.2415 16.3367ZM96.521 15.381V30.2476H94.822V15.381H96.521ZM100.45 24.6195C101.639 24.6195 102.595 24.2585 103.317 23.5364C104.025 22.8285 104.379 21.8798 104.379 20.6905C104.379 19.5012 104.025 18.5455 103.317 17.8234C102.595 17.1155 101.639 16.7615 100.45 16.7615C99.2607 16.7615 98.305 17.1155 97.5829 17.8234C96.875 18.5455 96.521 19.5012 96.521 20.6905C96.521 21.8798 96.875 22.8285 97.5829 23.5364C98.305 24.2585 99.2607 24.6195 100.45 24.6195ZM100.981 15.1687C102.524 15.1687 103.763 15.6713 104.698 16.6766C105.618 17.6818 106.078 19.0198 106.078 20.6905C106.078 22.3612 105.618 23.6992 104.698 24.7045C103.763 25.7097 102.524 26.2124 100.981 26.2124C99.466 26.2124 98.2979 25.7097 97.4767 24.7045C96.698 23.7417 96.3087 22.4037 96.3087 20.6905C96.3087 18.9773 96.698 17.6393 97.4767 16.6766C98.2979 15.6713 99.466 15.1687 100.981 15.1687ZM108.832 26V11.1335H110.531V26H108.832ZM122.099 15.381H123.905L117.47 30.2476H115.664L117.491 26.0425L112.861 15.381H114.666L118.383 23.9612L122.099 15.381Z"/>
</mask>
<path d="M61.481 17.611C63.449 17.8376 64.9003 18.2765 65.8347 18.9278C66.8258 19.6215 67.3214 20.6126 67.3214 21.9011C67.3214 23.232 66.8188 24.2797 65.8135 25.0443C64.7799 25.823 63.3357 26.2124 61.481 26.2124C59.5979 26.2124 58.1537 25.8018 57.1484 24.9806C56.1432 24.1735 55.6405 23.0055 55.6405 21.4763H57.3396C57.3396 23.5718 58.72 24.6195 61.481 24.6195C62.826 24.6195 63.8596 24.3718 64.5817 23.8762C65.2755 23.409 65.6224 22.7506 65.6224 21.9011C65.6224 21.094 65.2755 20.4711 64.5817 20.0321C63.9446 19.6499 62.911 19.3738 61.481 19.2039C59.6828 18.9915 58.3448 18.5738 57.467 17.9508C56.5325 17.2712 56.0653 16.3084 56.0653 15.0625C56.0653 13.7882 56.5396 12.7829 57.4882 12.0467C58.451 11.2963 59.7819 10.9211 61.481 10.9211C63.2083 10.9211 64.5392 11.3175 65.4737 12.1104C66.4223 12.9033 66.8966 14.0289 66.8966 15.4872H65.1976C65.1976 13.505 63.9587 12.5139 61.481 12.5139C60.2916 12.5139 59.3713 12.7475 58.72 13.2148C58.0829 13.6537 57.7643 14.2696 57.7643 15.0625C57.7643 15.8412 58.0829 16.4288 58.72 16.8252C59.3005 17.2075 60.2208 17.4694 61.481 17.611ZM70.0798 26V15.381H71.7789V26H70.0798ZM71.7789 11.2609C71.9912 11.4874 72.0974 11.7635 72.0974 12.0892C72.0974 12.4148 71.9912 12.6909 71.7789 12.9174C71.5523 13.144 71.2691 13.2573 70.9293 13.2573C70.5895 13.2573 70.3064 13.144 70.0798 12.9174C69.8674 12.6909 69.7613 12.4148 69.7613 12.0892C69.7613 11.7635 69.8674 11.4874 70.0798 11.2609C70.3064 11.0343 70.5895 10.9211 70.9293 10.9211C71.2691 10.9211 71.5523 11.0343 71.7789 11.2609ZM83.2415 16.3367C83.7229 16.8465 84.0415 17.4836 84.1972 18.2482C84.3388 17.4836 84.622 16.8465 85.0467 16.3367C85.7122 15.558 86.6396 15.1687 87.8289 15.1687C89.0324 15.1687 89.981 15.558 90.6748 16.3367C91.3827 17.1013 91.7367 18.1278 91.7367 19.4162V26H90.0377V19.6286C90.0377 18.7649 89.7757 18.0712 89.2519 17.5473C88.728 17.0234 88.0342 16.7615 87.1705 16.7615C86.3069 16.7615 85.6131 17.0234 85.0892 17.5473C84.5654 18.0712 84.3034 18.7649 84.3034 19.6286V26H82.6044V19.6286C82.6044 18.7649 82.3425 18.0712 81.8186 17.5473C81.2947 17.0234 80.6009 16.7615 79.7373 16.7615C78.8736 16.7615 78.1798 17.0234 77.656 17.5473C77.1321 18.0712 76.8702 18.7649 76.8702 19.6286V26H75.1711V15.381H76.8702V18.1632C77.0117 17.427 77.2808 16.8181 77.6772 16.3367C78.3002 15.558 79.2063 15.1687 80.3956 15.1687C81.5991 15.1687 82.5478 15.558 83.2415 16.3367ZM96.521 15.381V30.2476H94.822V15.381H96.521ZM100.45 24.6195C101.639 24.6195 102.595 24.2585 103.317 23.5364C104.025 22.8285 104.379 21.8798 104.379 20.6905C104.379 19.5012 104.025 18.5455 103.317 17.8234C102.595 17.1155 101.639 16.7615 100.45 16.7615C99.2607 16.7615 98.305 17.1155 97.5829 17.8234C96.875 18.5455 96.521 19.5012 96.521 20.6905C96.521 21.8798 96.875 22.8285 97.5829 23.5364C98.305 24.2585 99.2607 24.6195 100.45 24.6195ZM100.981 15.1687C102.524 15.1687 103.763 15.6713 104.698 16.6766C105.618 17.6818 106.078 19.0198 106.078 20.6905C106.078 22.3612 105.618 23.6992 104.698 24.7045C103.763 25.7097 102.524 26.2124 100.981 26.2124C99.466 26.2124 98.2979 25.7097 97.4767 24.7045C96.698 23.7417 96.3087 22.4037 96.3087 20.6905C96.3087 18.9773 96.698 17.6393 97.4767 16.6766C98.2979 15.6713 99.466 15.1687 100.981 15.1687ZM108.832 26V11.1335H110.531V26H108.832ZM122.099 15.381H123.905L117.47 30.2476H115.664L117.491 26.0425L112.861 15.381H114.666L118.383 23.9612L122.099 15.381Z" fill="#121212"/>
<path d="M61.481 17.611L61.5108 17.3516L61.5101 17.3515L61.481 17.611ZM65.8347 18.9278L65.9845 18.7139L65.984 18.7136L65.8347 18.9278ZM65.8135 25.0443L65.9706 25.2528L65.9716 25.2521L65.8135 25.0443ZM57.1484 24.9806L57.3136 24.7784L57.3119 24.777L57.1484 24.9806ZM55.6405 21.4763V21.2152H55.3794V21.4763H55.6405ZM57.3396 21.4763H57.6007V21.2152H57.3396V21.4763ZM64.5817 23.8762L64.4358 23.6596L64.4339 23.6609L64.5817 23.8762ZM64.5817 20.0321L64.7213 19.8114L64.716 19.8082L64.5817 20.0321ZM61.481 19.2039L61.5118 18.9446L61.5116 18.9446L61.481 19.2039ZM57.467 17.9508L57.3134 18.162L57.3159 18.1638L57.467 17.9508ZM57.4882 12.0467L57.6483 12.253L57.6487 12.2526L57.4882 12.0467ZM65.4737 12.1104L65.3047 12.3095L65.3062 12.3107L65.4737 12.1104ZM66.8966 15.4872V15.7483H67.1577V15.4872H66.8966ZM65.1976 15.4872H64.9365V15.7483H65.1976V15.4872ZM58.72 13.2148L58.8682 13.4298L58.8722 13.4269L58.72 13.2148ZM58.72 16.8252L58.8637 16.6071L58.858 16.6035L58.72 16.8252ZM61.4511 17.8704C63.4037 18.0952 64.8037 18.5275 65.6854 19.142L65.984 18.7136C64.9968 18.0255 63.4943 17.5799 61.5108 17.3516L61.4511 17.8704ZM65.685 19.1417C66.6011 19.783 67.0603 20.6913 67.0603 21.9011H67.5825C67.5825 20.534 67.0506 19.4601 65.9845 18.7139L65.685 19.1417ZM67.0603 21.9011C67.0603 23.1555 66.5918 24.1243 65.6554 24.8365L65.9716 25.2521C67.0457 24.4352 67.5825 23.3084 67.5825 21.9011H67.0603ZM65.6564 24.8357C64.684 25.5684 63.3028 25.9513 61.481 25.9513V26.4735C63.3687 26.4735 64.8759 26.0776 65.9706 25.2528L65.6564 24.8357ZM61.481 25.9513C59.6317 25.9513 58.2552 25.5476 57.3136 24.7784L56.9832 25.1828C58.0521 26.056 59.5641 26.4735 61.481 26.4735V25.9513ZM57.3119 24.777C56.3801 24.0289 55.9016 22.9427 55.9016 21.4763H55.3794C55.3794 23.0682 55.9062 24.3181 56.985 25.1842L57.3119 24.777ZM55.6405 21.7374H57.3396V21.2152H55.6405V21.7374ZM57.0785 21.4763C57.0785 22.5866 57.4479 23.458 58.2171 24.0417C58.9726 24.6152 60.0749 24.8806 61.481 24.8806V24.3584C60.1261 24.3584 59.1577 24.1001 58.5328 23.6257C57.9214 23.1618 57.6007 22.4615 57.6007 21.4763H57.0785ZM61.481 24.8806C62.8524 24.8806 63.9463 24.629 64.7294 24.0915L64.4339 23.6609C63.7729 24.1146 62.7996 24.3584 61.481 24.3584V24.8806ZM64.7276 24.0928C65.4947 23.5761 65.8835 22.8358 65.8835 21.9011H65.3612C65.3612 22.6654 65.0562 23.2418 64.4358 23.6596L64.7276 24.0928ZM65.8835 21.9011C65.8835 21.0027 65.4891 20.2973 64.7213 19.8115L64.4421 20.2528C65.0618 20.6449 65.3612 21.1854 65.3612 21.9011H65.8835ZM64.716 19.8082C64.0298 19.3965 62.9504 19.1155 61.5118 18.9446L61.4502 19.4632C62.8715 19.632 63.8594 19.9032 64.4474 20.256L64.716 19.8082ZM61.5116 18.9446C59.7308 18.7342 58.4437 18.3238 57.6181 17.7379L57.3159 18.1638C58.2459 18.8238 59.6348 19.2487 61.4503 19.4632L61.5116 18.9446ZM57.6206 17.7397C56.7596 17.1135 56.3264 16.2325 56.3264 15.0625H55.8042C55.8042 16.3843 56.3054 17.4289 57.3134 18.162L57.6206 17.7397ZM56.3264 15.0625C56.3264 13.8632 56.7678 12.9363 57.6483 12.253L57.3281 11.8404C56.3114 12.6295 55.8042 13.7132 55.8042 15.0625H56.3264ZM57.6487 12.2526C58.5507 11.5497 59.8177 11.1822 61.481 11.1822V10.66C59.7462 10.66 58.3514 11.0429 57.3277 11.8407L57.6487 12.2526ZM61.481 11.1822C63.1715 11.1822 64.4336 11.5703 65.3048 12.3095L65.6426 11.9113C64.6449 11.0647 63.2451 10.66 61.481 10.66V11.1822ZM65.3062 12.3107C66.1846 13.0449 66.6355 14.0909 66.6355 15.4872H67.1577C67.1577 13.9669 66.66 12.7616 65.6411 11.9101L65.3062 12.3107ZM66.8966 15.2261H65.1976V15.7483H66.8966V15.2261ZM65.4587 15.4872C65.4587 14.4385 65.1281 13.6106 64.4316 13.0534C63.7461 12.505 62.7477 12.2528 61.481 12.2528V12.775C62.6919 12.775 63.5519 13.0184 64.1053 13.4611C64.6477 13.895 64.9365 14.5538 64.9365 15.4872H65.4587ZM61.481 12.2528C60.2621 12.2528 59.2803 12.4915 58.5678 13.0026L58.8722 13.4269C59.4624 13.0036 60.3212 12.775 61.481 12.775V12.2528ZM58.5719 12.9997C57.862 13.4888 57.5032 14.1862 57.5032 15.0625H58.0254C58.0254 14.3529 58.3038 13.8186 58.8682 13.4298L58.5719 12.9997ZM57.5032 15.0625C57.5032 15.9273 57.8649 16.6007 58.5821 17.0469L58.858 16.6035C58.3009 16.2569 58.0254 15.7551 58.0254 15.0625H57.5032ZM58.5764 17.0433C59.2091 17.4599 60.1793 17.7275 61.4518 17.8705L61.5101 17.3515C60.2624 17.2114 59.392 16.9551 58.8636 16.6071L58.5764 17.0433ZM70.0798 26H69.8187V26.2611H70.0798V26ZM70.0798 15.381V15.1199H69.8187V15.381H70.0798ZM71.7789 15.381H72.04V15.1199H71.7789V15.381ZM71.7789 26V26.2611H72.04V26H71.7789ZM71.7789 11.2609L71.9694 11.0822L71.9635 11.0763L71.7789 11.2609ZM71.7789 12.9174L71.9636 13.1022L71.9693 13.096L71.7789 12.9174ZM70.0798 12.9174L69.8892 13.0961L69.8952 13.1021L70.0798 12.9174ZM70.0798 11.2609L69.8951 11.0762L69.8893 11.0823L70.0798 11.2609ZM70.3409 26V15.381H69.8187V26H70.3409ZM70.0798 15.6422H71.7789V15.1199H70.0798V15.6422ZM71.5177 15.381V26H72.04V15.381H71.5177ZM71.7789 25.7389H70.0798V26.2611H71.7789V25.7389ZM71.5884 11.4395C71.753 11.6151 71.8363 11.8263 71.8363 12.0892H72.3585C72.3585 11.7007 72.2295 11.3598 71.9693 11.0823L71.5884 11.4395ZM71.8363 12.0892C71.8363 12.352 71.753 12.5633 71.5884 12.7389L71.9693 13.096C72.2295 12.8186 72.3585 12.4776 72.3585 12.0892H71.8363ZM71.5942 12.7328C71.4199 12.9072 71.2046 12.9961 70.9293 12.9961V13.5184C71.3337 13.5184 71.6848 13.3808 71.9635 13.1021L71.5942 12.7328ZM70.9293 12.9961C70.6541 12.9961 70.4388 12.9072 70.2645 12.7328L69.8952 13.1021C70.1739 13.3808 70.5249 13.5184 70.9293 13.5184V12.9961ZM70.2703 12.7389C70.1057 12.5633 70.0224 12.352 70.0224 12.0892H69.5001C69.5001 12.4776 69.6292 12.8186 69.8893 13.096L70.2703 12.7389ZM70.0224 12.0892C70.0224 11.8263 70.1057 11.6151 70.2703 11.4395L69.8893 11.0823C69.6292 11.3598 69.5001 11.7007 69.5001 12.0892H70.0224ZM70.2645 11.4455C70.4388 11.2712 70.6541 11.1822 70.9293 11.1822V10.66C70.5249 10.66 70.1739 10.7975 69.8952 11.0763L70.2645 11.4455ZM70.9293 11.1822C71.2046 11.1822 71.4199 11.2712 71.5942 11.4455L71.9635 11.0763C71.6848 10.7975 71.3337 10.66 70.9293 10.66V11.1822ZM83.2415 16.3367L83.0465 16.5105L83.0517 16.516L83.2415 16.3367ZM84.1972 18.2482L83.9414 18.3003L84.454 18.2957L84.1972 18.2482ZM85.0467 16.3367L84.8482 16.1671L84.8462 16.1696L85.0467 16.3367ZM90.6748 16.3367L90.4798 16.5105L90.4832 16.5141L90.6748 16.3367ZM91.7367 26V26.2611H91.9978V26H91.7367ZM90.0377 26H89.7765V26.2611H90.0377V26ZM84.3034 26V26.2611H84.5645V26H84.3034ZM82.6044 26H82.3433V26.2611H82.6044V26ZM76.8702 26V26.2611H77.1313V26H76.8702ZM75.1711 26H74.91V26.2611H75.1711V26ZM75.1711 15.381V15.1199H74.91V15.381H75.1711ZM76.8702 15.381H77.1313V15.1199H76.8702V15.381ZM76.8702 18.1632H76.609L77.1266 18.2125L76.8702 18.1632ZM77.6772 16.3367L77.8788 16.5028L77.8811 16.4999L77.6772 16.3367ZM83.0517 16.516C83.496 16.9864 83.7942 17.5779 83.9414 18.3003L84.4531 18.196C84.2888 17.3893 83.9499 16.7065 83.4314 16.1575L83.0517 16.516ZM84.454 18.2957C84.5888 17.5676 84.8558 16.9737 85.2473 16.5039L84.8462 16.1696C84.3882 16.7192 84.0888 17.3996 83.9405 18.2006L84.454 18.2957ZM85.2453 16.5064C85.8529 15.7953 86.7023 15.4298 87.8289 15.4298V14.9076C86.5769 14.9076 85.5715 15.3207 84.8482 16.1671L85.2453 16.5064ZM87.8289 15.4298C88.9706 15.4298 89.8434 15.7961 90.4798 16.5104L90.8698 16.1631C90.1186 15.3199 89.0942 14.9076 87.8289 14.9076V15.4298ZM90.4832 16.5141C91.1365 17.2197 91.4756 18.1773 91.4756 19.4162H91.9978C91.9978 18.0783 91.629 16.9829 90.8664 16.1593L90.4832 16.5141ZM91.4756 19.4162V26H91.9978V19.4162H91.4756ZM91.7367 25.7389H90.0377V26.2611H91.7367V25.7389ZM90.2988 26V19.6286H89.7765V26H90.2988ZM90.2988 19.6286C90.2988 18.7081 90.0174 17.9436 89.4365 17.3627L89.0672 17.7319C89.534 18.1987 89.7765 18.8218 89.7765 19.6286H90.2988ZM89.4365 17.3627C88.8555 16.7817 88.0911 16.5004 87.1705 16.5004V17.0226C87.9774 17.0226 88.6004 17.2652 89.0672 17.7319L89.4365 17.3627ZM87.1705 16.5004C86.25 16.5004 85.4855 16.7817 84.9046 17.3627L85.2739 17.7319C85.7406 17.2652 86.3637 17.0226 87.1705 17.0226V16.5004ZM84.9046 17.3627C84.3236 17.9436 84.0423 18.7081 84.0423 19.6286H84.5645C84.5645 18.8218 84.8071 18.1987 85.2739 17.7319L84.9046 17.3627ZM84.0423 19.6286V26H84.5645V19.6286H84.0423ZM84.3034 25.7389H82.6044V26.2611H84.3034V25.7389ZM82.8655 26V19.6286H82.3433V26H82.8655ZM82.8655 19.6286C82.8655 18.7081 82.5842 17.9436 82.0032 17.3627L81.634 17.7319C82.1007 18.1987 82.3433 18.8218 82.3433 19.6286H82.8655ZM82.0032 17.3627C81.4223 16.7817 80.6578 16.5004 79.7373 16.5004V17.0226C80.5441 17.0226 81.1672 17.2652 81.634 17.7319L82.0032 17.3627ZM79.7373 16.5004C78.8167 16.5004 78.0523 16.7817 77.4713 17.3627L77.8406 17.7319C78.3074 17.2652 78.9304 17.0226 79.7373 17.0226V16.5004ZM77.4713 17.3627C76.8904 17.9436 76.609 18.7081 76.609 19.6286H77.1313C77.1313 18.8218 77.3738 18.1987 77.8406 17.7319L77.4713 17.3627ZM76.609 19.6286V26H77.1313V19.6286H76.609ZM76.8702 25.7389H75.1711V26.2611H76.8702V25.7389ZM75.4322 26V15.381H74.91V26H75.4322ZM75.1711 15.6422H76.8702V15.1199H75.1711V15.6422ZM76.609 15.381V18.1632H77.1313V15.381H76.609ZM77.1266 18.2125C77.2616 17.5105 77.5152 16.9442 77.8788 16.5027L77.4756 16.1708C77.0463 16.692 76.7619 17.3434 76.6137 18.1139L77.1266 18.2125ZM77.8811 16.4999C78.4448 15.7952 79.2686 15.4298 80.3956 15.4298V14.9076C79.144 14.9076 78.1556 15.3208 77.4733 16.1736L77.8811 16.4999ZM80.3956 15.4298C81.5373 15.4298 82.4102 15.7961 83.0466 16.5104L83.4365 16.1631C82.6853 15.3199 81.661 14.9076 80.3956 14.9076V15.4298ZM96.521 15.381H96.7821V15.1199H96.521V15.381ZM96.521 30.2476V30.5087H96.7821V30.2476H96.521ZM94.822 30.2476H94.5609V30.5087H94.822V30.2476ZM94.822 15.381V15.1199H94.5609V15.381H94.822ZM103.317 23.5364L103.133 23.3518L103.133 23.3518L103.317 23.5364ZM103.317 17.8234L103.504 17.6406L103.5 17.6369L103.317 17.8234ZM97.5829 17.8234L97.4001 17.6369L97.3965 17.6406L97.5829 17.8234ZM97.5829 23.5364L97.3983 23.721L97.3983 23.721L97.5829 23.5364ZM104.698 16.6766L104.89 16.5002L104.889 16.4988L104.698 16.6766ZM104.698 24.7045L104.889 24.8823L104.89 24.8808L104.698 24.7045ZM97.4767 24.7045L97.2737 24.8687L97.2745 24.8697L97.4767 24.7045ZM97.4767 16.6766L97.2745 16.5114L97.2737 16.5124L97.4767 16.6766ZM96.2599 15.381V30.2476H96.7821V15.381H96.2599ZM96.521 29.9865H94.822V30.5087H96.521V29.9865ZM95.0831 30.2476V15.381H94.5609V30.2476H95.0831ZM94.822 15.6422H96.521V15.1199H94.822V15.6422ZM100.45 24.8806C101.696 24.8806 102.723 24.5002 103.502 23.721L103.133 23.3518C102.467 24.0168 101.582 24.3584 100.45 24.3584V24.8806ZM103.502 23.721C104.268 22.9551 104.64 21.9351 104.64 20.6905H104.118C104.118 21.8246 103.782 22.7019 103.133 23.3518L103.502 23.721ZM104.64 20.6905C104.64 19.4458 104.268 18.42 103.504 17.6406L103.131 18.0062C103.782 18.671 104.118 19.5566 104.118 20.6905H104.64ZM103.5 17.6369C102.721 16.8728 101.695 16.5004 100.45 16.5004V17.0226C101.584 17.0226 102.47 17.3581 103.134 18.0099L103.5 17.6369ZM100.45 16.5004C99.2053 16.5004 98.1795 16.8728 97.4001 17.6369L97.7657 18.0099C98.4305 17.3581 99.3161 17.0226 100.45 17.0226V16.5004ZM97.3965 17.6406C96.6323 18.42 96.2599 19.4458 96.2599 20.6905H96.7821C96.7821 19.5566 97.1176 18.671 97.7694 18.0062L97.3965 17.6406ZM96.2599 20.6905C96.2599 21.9351 96.6323 22.9551 97.3983 23.721L97.7676 23.3518C97.1177 22.7019 96.7821 21.8246 96.7821 20.6905H96.2599ZM97.3983 23.721C98.1774 24.5002 99.2038 24.8806 100.45 24.8806V24.3584C99.3177 24.3584 98.4326 24.0168 97.7676 23.3518L97.3983 23.721ZM100.981 15.4298C102.462 15.4298 103.628 15.9091 104.506 16.8543L104.889 16.4988C103.899 15.4335 102.587 14.9076 100.981 14.9076V15.4298ZM104.505 16.8529C105.372 17.7997 105.817 19.0696 105.817 20.6905H106.339C106.339 18.97 105.864 17.5639 104.89 16.5002L104.505 16.8529ZM105.817 20.6905C105.817 22.3114 105.372 23.5814 104.505 24.5282L104.89 24.8808C105.864 23.8171 106.339 22.411 106.339 20.6905H105.817ZM104.506 24.5267C103.628 25.4719 102.462 25.9513 100.981 25.9513V26.4735C102.587 26.4735 103.899 25.9476 104.889 24.8823L104.506 24.5267ZM100.981 25.9513C99.5298 25.9513 98.442 25.4734 97.679 24.5393L97.2745 24.8697C98.1539 25.9461 99.4023 26.4735 100.981 26.4735V25.9513ZM97.6798 24.5403C96.9508 23.639 96.5698 22.3666 96.5698 20.6905H96.0475C96.0475 22.4408 96.4453 23.8444 97.2737 24.8687L97.6798 24.5403ZM96.5698 20.6905C96.5698 19.0144 96.9508 17.7421 97.6798 16.8408L97.2737 16.5124C96.4453 17.5366 96.0475 18.9402 96.0475 20.6905H96.5698ZM97.679 16.8417C98.442 15.9077 99.5298 15.4298 100.981 15.4298V14.9076C99.4023 14.9076 98.1539 15.4349 97.2745 16.5114L97.679 16.8417ZM108.832 26H108.57V26.2611H108.832V26ZM108.832 11.1335V10.8723H108.57V11.1335H108.832ZM110.531 11.1335H110.792V10.8723H110.531V11.1335ZM110.531 26V26.2611H110.792V26H110.531ZM109.093 26V11.1335H108.57V26H109.093ZM108.832 11.3946H110.531V10.8723H108.832V11.3946ZM110.269 11.1335V26H110.792V11.1335H110.269ZM110.531 25.7389H108.832V26.2611H110.531V25.7389ZM122.099 15.381V15.1199H121.928L121.86 15.2773L122.099 15.381ZM123.905 15.381L124.144 15.4848L124.302 15.1199H123.905V15.381ZM117.47 30.2476V30.5087H117.641L117.709 30.3513L117.47 30.2476ZM115.664 30.2476L115.425 30.1436L115.266 30.5087H115.664V30.2476ZM117.491 26.0425L117.73 26.1465L117.775 26.0425L117.73 25.9385L117.491 26.0425ZM112.861 15.381V15.1199H112.463L112.621 15.485L112.861 15.381ZM114.666 15.381L114.906 15.2773L114.838 15.1199H114.666V15.381ZM118.383 23.9612L118.143 24.0649L118.383 24.6181L118.622 24.0649L118.383 23.9612ZM122.099 15.6422H123.905V15.1199H122.099V15.6422ZM123.665 15.2773L117.23 30.1439L117.709 30.3513L124.144 15.4848L123.665 15.2773ZM117.47 29.9865H115.664V30.5087H117.47V29.9865ZM115.904 30.3516L117.73 26.1465L117.251 25.9385L115.425 30.1436L115.904 30.3516ZM117.73 25.9385L113.1 15.277L112.621 15.485L117.251 26.1465L117.73 25.9385ZM112.861 15.6422H114.666V15.1199H112.861V15.6422ZM114.427 15.4848L118.143 24.0649L118.622 23.8574L114.906 15.2773L114.427 15.4848ZM118.622 24.0649L122.339 15.4848L121.86 15.2773L118.143 23.8574L118.622 24.0649Z" fill="#121212" mask="url(#path-1-outside-1_363_16884)"/>
<path d="M6.45997 7.90355C7.32315 3.53854 11.5614 0.699743 15.9264 1.56292L36.9773 5.7257L39.2962 24.5504L12.4312 19.2379C8.06623 18.3747 5.22742 14.1364 6.0906 9.77142L6.45997 7.90355Z" fill="#CCFE00"/>
<path d="M36.3458 29.3663C35.3508 25.0294 31.0285 22.3203 26.6916 23.3152L5.77649 28.1137L4.02875 47L30.7205 40.8762C35.0574 39.8813 37.7665 35.559 36.7715 31.2221L36.3458 29.3663Z" fill="#CCFE00"/>
<path d="M59.3264 36.8843C59.5338 37.1371 59.6796 37.4449 59.7639 37.8079V34.3468H60.5417V41.1523H59.7639V39.6357C59.6796 39.9986 59.5338 40.3065 59.3264 40.5593C58.9505 41.0195 58.4157 41.2496 57.7222 41.2496C57.0157 41.2496 56.4486 41.0195 56.0208 40.5593C55.5995 40.0991 55.3889 39.4866 55.3889 38.7218C55.3889 37.957 55.5995 37.3445 56.0208 36.8843C56.4486 36.4241 57.0157 36.194 57.7222 36.194C58.4157 36.194 58.9505 36.4241 59.3264 36.8843ZM56.6528 40.0246C56.9833 40.3551 57.4208 40.5204 57.9653 40.5204C58.5097 40.5204 58.9472 40.3551 59.2778 40.0246C59.6019 39.7005 59.7639 39.2662 59.7639 38.7218C59.7639 38.1773 59.6019 37.7398 59.2778 37.4093C58.9472 37.0852 58.5097 36.9232 57.9653 36.9232C57.4208 36.9232 56.9833 37.0852 56.6528 37.4093C56.3287 37.7398 56.1667 38.1773 56.1667 38.7218C56.1667 39.2662 56.3287 39.7005 56.6528 40.0246ZM62.0938 41.1523V36.2912H62.8716V41.1523H62.0938ZM62.8716 34.4051C62.9688 34.5088 63.0174 34.6352 63.0174 34.7843C63.0174 34.9334 62.9688 35.0598 62.8716 35.1635C62.7679 35.2672 62.6382 35.319 62.4827 35.319C62.3271 35.319 62.1975 35.2672 62.0938 35.1635C61.9966 35.0598 61.948 34.9334 61.948 34.7843C61.948 34.6352 61.9966 34.5088 62.0938 34.4051C62.1975 34.3014 62.3271 34.2496 62.4827 34.2496C62.6382 34.2496 62.7679 34.3014 62.8716 34.4051ZM68.0703 36.8746C68.2777 37.1209 68.4236 37.4255 68.5078 37.7885V36.2912H69.2856V40.8607C69.2856 41.6125 69.0523 42.1926 68.5856 42.601C68.1319 42.9963 67.5064 43.194 66.7092 43.194C65.9898 43.194 65.4097 43.0287 64.9689 42.6982C64.5152 42.3611 64.2495 41.8783 64.1717 41.2496H64.9495C65.0986 42.0598 65.6851 42.4648 66.7092 42.4648C67.2731 42.4648 67.7106 42.332 68.0217 42.0662C68.3458 41.794 68.5078 41.3922 68.5078 40.8607V39.5579C68.4236 39.9209 68.2777 40.2255 68.0703 40.4718C67.6944 40.9255 67.1597 41.1523 66.4661 41.1523C65.7597 41.1523 65.1925 40.9255 64.7648 40.4718C64.3435 40.0246 64.1328 39.425 64.1328 38.6732C64.1328 37.9213 64.3435 37.3218 64.7648 36.8746C65.1925 36.4209 65.7597 36.194 66.4661 36.194C67.1597 36.194 67.6944 36.4209 68.0703 36.8746ZM65.3967 39.9468C65.7273 40.2644 66.1648 40.4232 66.7092 40.4232C67.2536 40.4232 67.6911 40.2644 68.0217 39.9468C68.3458 39.6292 68.5078 39.2047 68.5078 38.6732C68.5078 38.1417 68.3458 37.7172 68.0217 37.3996C67.6911 37.082 67.2536 36.9232 66.7092 36.9232C66.1648 36.9232 65.7273 37.082 65.3967 37.3996C65.0726 37.7172 64.9106 38.1417 64.9106 38.6732C64.9106 39.2047 65.0726 39.6292 65.3967 39.9468ZM70.8377 41.1523V36.2912H71.6155V41.1523H70.8377ZM71.6155 34.4051C71.7127 34.5088 71.7613 34.6352 71.7613 34.7843C71.7613 34.9334 71.7127 35.0598 71.6155 35.1635C71.5118 35.2672 71.3822 35.319 71.2266 35.319C71.0711 35.319 70.9414 35.2672 70.8377 35.1635C70.7405 35.0598 70.6919 34.9334 70.6919 34.7843C70.6919 34.6352 70.7405 34.5088 70.8377 34.4051C70.9414 34.3014 71.0711 34.2496 71.2266 34.2496C71.3822 34.2496 71.5118 34.3014 71.6155 34.4051ZM74.7726 34.3468V36.2912H76.2309V37.0204H74.7726V41.1523H73.9948V37.0204H72.7309V36.2912H73.9948V34.8329L74.7726 34.3468ZM80.721 36.8843C80.9284 37.1371 81.0742 37.4449 81.1585 37.8079V36.2912H81.9363V41.1523H81.1585V39.6357C81.0742 39.9986 80.9284 40.3065 80.721 40.5593C80.345 41.0195 79.8103 41.2496 79.1168 41.2496C78.4103 41.2496 77.8432 41.0195 77.4154 40.5593C76.9941 40.0991 76.7835 39.4866 76.7835 38.7218C76.7835 37.957 76.9941 37.3445 77.4154 36.8843C77.8432 36.4241 78.4103 36.194 79.1168 36.194C79.8103 36.194 80.345 36.4241 80.721 36.8843ZM78.0474 40.0246C78.3779 40.3551 78.8154 40.5204 79.3599 40.5204C79.9043 40.5204 80.3418 40.3551 80.6724 40.0246C80.9964 39.7005 81.1585 39.2662 81.1585 38.7218C81.1585 38.1773 80.9964 37.7398 80.6724 37.4093C80.3418 37.0852 79.9043 36.9232 79.3599 36.9232C78.8154 36.9232 78.3779 37.0852 78.0474 37.4093C77.7233 37.7398 77.5613 38.1773 77.5613 38.7218C77.5613 39.2662 77.7233 39.7005 78.0474 40.0246ZM83.4884 41.1523V34.3468H84.2662V41.1523H83.4884ZM92.2798 36.8843C92.4872 37.1371 92.633 37.4449 92.7173 37.8079V36.2912H93.4951V41.1523H92.7173V39.6357C92.633 39.9986 92.4872 40.3065 92.2798 40.5593C91.9039 41.0195 91.3691 41.2496 90.6756 41.2496C89.9691 41.2496 89.402 41.0195 88.9742 40.5593C88.5529 40.0991 88.3423 39.4866 88.3423 38.7218C88.3423 37.957 88.5529 37.3445 88.9742 36.8843C89.402 36.4241 89.9691 36.194 90.6756 36.194C91.3691 36.194 91.9039 36.4241 92.2798 36.8843ZM89.6062 40.0246C89.9367 40.3551 90.3742 40.5204 90.9187 40.5204C91.4631 40.5204 91.9006 40.3551 92.2312 40.0246C92.5552 39.7005 92.7173 39.2662 92.7173 38.7218C92.7173 38.1773 92.5552 37.7398 92.2312 37.4093C91.9006 37.0852 91.4631 36.9232 90.9187 36.9232C90.3742 36.9232 89.9367 37.0852 89.6062 37.4093C89.2821 37.7398 89.1201 38.1773 89.1201 38.7218C89.1201 39.2662 89.2821 39.7005 89.6062 40.0246ZM98.693 36.8746C98.9004 37.1209 99.0463 37.4255 99.1305 37.7885V36.2912H99.9083V40.8607C99.9083 41.6125 99.675 42.1926 99.2083 42.601C98.7546 42.9963 98.1291 43.194 97.3319 43.194C96.6125 43.194 96.0324 43.0287 95.5916 42.6982C95.1379 42.3611 94.8722 41.8783 94.7944 41.2496H95.5722C95.7213 42.0598 96.3078 42.4648 97.3319 42.4648C97.8958 42.4648 98.3333 42.332 98.6444 42.0662C98.9685 41.794 99.1305 41.3922 99.1305 40.8607V39.5579C99.0463 39.9209 98.9004 40.2255 98.693 40.4718C98.3171 40.9255 97.7824 41.1523 97.0889 41.1523C96.3824 41.1523 95.8153 40.9255 95.3875 40.4718C94.9662 40.0246 94.7555 39.425 94.7555 38.6732C94.7555 37.9213 94.9662 37.3218 95.3875 36.8746C95.8153 36.4209 96.3824 36.194 97.0889 36.194C97.7824 36.194 98.3171 36.4209 98.693 36.8746ZM96.0194 39.9468C96.35 40.2644 96.7875 40.4232 97.3319 40.4232C97.8764 40.4232 98.3139 40.2644 98.6444 39.9468C98.9685 39.6292 99.1305 39.2047 99.1305 38.6732C99.1305 38.1417 98.9685 37.7172 98.6444 37.3996C98.3139 37.082 97.8764 36.9232 97.3319 36.9232C96.7875 36.9232 96.35 37.082 96.0194 37.3996C95.6953 37.7172 95.5333 38.1417 95.5333 38.6732C95.5333 39.2047 95.6953 39.6292 96.0194 39.9468ZM104.941 37.3121C104.623 37.0528 104.225 36.9232 103.745 36.9232C103.266 36.9232 102.867 37.0528 102.549 37.3121C102.238 37.5648 102.047 37.9116 101.976 38.3523H105.515C105.443 37.9116 105.252 37.5648 104.941 37.3121ZM101.869 36.8843C102.342 36.4241 102.967 36.194 103.745 36.194C104.523 36.194 105.148 36.4241 105.622 36.8843C106.088 37.3445 106.322 37.957 106.322 38.7218L106.312 38.9065L106.292 39.0815H101.976C102.047 39.5287 102.238 39.8787 102.549 40.1315C102.867 40.3908 103.266 40.5204 103.745 40.5204C104.439 40.5204 104.944 40.2676 105.262 39.7621H106.137C105.955 40.2287 105.657 40.5917 105.242 40.851C104.821 41.1167 104.322 41.2496 103.745 41.2496C102.967 41.2496 102.342 41.0195 101.869 40.5593C101.402 40.0991 101.169 39.4866 101.169 38.7218C101.169 37.957 101.402 37.3445 101.869 36.8843ZM108.367 36.2912V37.7398C108.431 37.351 108.571 37.0301 108.785 36.7773C109.102 36.3885 109.562 36.194 110.165 36.194C110.775 36.194 111.261 36.3885 111.624 36.7773C111.98 37.1662 112.158 37.6848 112.158 38.3329V41.1523H111.381V38.4301C111.381 37.9764 111.244 37.6102 110.972 37.3315C110.693 37.0593 110.327 36.9232 109.874 36.9232C109.42 36.9232 109.054 37.0593 108.775 37.3315C108.503 37.6102 108.367 37.9764 108.367 38.4301V41.1523H107.589V36.2912H108.367ZM117.59 39.2079H118.388C118.29 39.8366 118.015 40.3324 117.561 40.6954C117.108 41.0648 116.537 41.2496 115.85 41.2496C115.072 41.2496 114.447 41.0195 113.974 40.5593C113.507 40.0991 113.274 39.4866 113.274 38.7218C113.274 37.957 113.507 37.3445 113.974 36.8843C114.447 36.4241 115.072 36.194 115.85 36.194C116.537 36.194 117.108 36.3787 117.561 36.7482C118.015 37.1111 118.29 37.607 118.388 38.2357H117.59C117.5 37.8273 117.302 37.5065 116.997 37.2732C116.686 37.0398 116.304 36.9232 115.85 36.9232C115.306 36.9232 114.868 37.0852 114.538 37.4093C114.214 37.7398 114.051 38.1773 114.051 38.7218C114.051 39.2662 114.214 39.7005 114.538 40.0246C114.868 40.3551 115.306 40.5204 115.85 40.5204C116.304 40.5204 116.686 40.4037 116.997 40.1704C117.302 39.9371 117.5 39.6162 117.59 39.2079ZM123.399 36.2912H124.225L121.279 43.0968H120.453L121.289 41.1718L119.17 36.2912H119.996L121.697 40.219L123.399 36.2912Z" fill="#121212"/>
</svg>
