<svg width="122" height="40" viewBox="0 0 122 40" fill="none" xmlns="http://www.w3.org/2000/svg">
<path d="M46.0235 0H41.4328C39.6593 0 38.0281 0.972263 37.1841 2.53216L34.5451 7.40772C33.7331 8.90707 32.1661 9.84016 30.4619 9.84016H7.26474C5.49116 9.84016 3.86004 10.8124 3.01598 12.3723L1.17118 15.7806C-1.37879 20.4905 0.373421 24.3101 5.08516 24.3101H11.0256L7.02434 31.7018C5.29528 34.8964 7.60841 38.7801 11.241 38.7801H14.806C16.5671 38.7801 18.1858 37.815 19.0227 36.2676L29.5021 16.9042C30.3141 15.4049 31.8812 14.4718 33.5853 14.4718H42.3143C44.0879 14.4718 45.719 13.4995 46.5631 11.9396L49.2359 7.0035C51.3282 3.1376 49.8912 0.0017807 46.0235 0.0017807V0Z" fill="#111111"/>
<path d="M52.2812 14.3418H66.5322V16.1848H60.3888V31.5416H58.4229V16.1848H52.2812V14.3418Z" fill="#111111"/>
<path d="M75.3995 30.3126C74.3507 31.2955 72.951 31.787 71.1988 31.787C69.4466 31.787 68.0452 31.2955 66.9981 30.3126C65.9493 29.3136 65.4258 27.962 65.4258 26.2579V19.2544H67.3917V26.2579C67.3917 27.4047 67.7354 28.3057 68.4245 28.961C69.1118 29.6163 70.0378 29.9439 71.2006 29.9439C72.3634 29.9439 73.2894 29.6163 73.9767 28.961C74.6641 28.3057 75.0095 27.4047 75.0095 26.2579V19.2544H76.9754V26.2579C76.9754 27.962 76.4519 29.3136 75.4031 30.3126H75.3995Z" fill="#111111"/>
<path d="M80.043 31.5414V19.2563H82.0089V31.5414H80.043ZM82.0089 25.1522L81.886 24.9065C81.886 23.0724 82.3045 21.6389 83.1396 20.6061C84.0246 19.5412 85.2854 19.0088 86.9236 19.0088V20.8518C85.4171 20.8518 84.2294 21.2293 83.3604 21.9826C82.4594 22.7358 82.0089 23.7935 82.0089 25.1522Z" fill="#111111"/>
<path d="M91.1001 14.4892C91.3459 14.751 91.4687 15.0715 91.4687 15.4473C91.4687 15.823 91.3459 16.1435 91.1001 16.4053C90.8384 16.667 90.5107 16.7988 90.1172 16.7988C89.7236 16.7988 89.396 16.667 89.1342 16.4053C88.8885 16.1435 88.7656 15.823 88.7656 15.4473C88.7656 15.0715 88.8885 14.751 89.1342 14.4892C89.396 14.2275 89.7236 14.0957 90.1172 14.0957C90.5107 14.0957 90.8384 14.2275 91.1001 14.4892ZM89.1342 31.5412V19.2562H91.1001V31.5412H89.1342Z" fill="#111111"/>
<path d="M96.5067 19.256V22.9171C96.6706 21.9342 97.0231 21.1239 97.5627 20.4847C98.3658 19.5017 99.5286 19.0103 101.051 19.0103C102.574 19.0103 103.82 19.5017 104.737 20.4847C105.638 21.4676 106.089 22.7782 106.089 24.4165V31.5411H104.123V24.6622C104.123 23.5154 103.779 22.5895 103.09 21.8861C102.385 21.1987 101.461 20.8533 100.314 20.8533C99.1671 20.8533 98.2411 21.197 97.5378 21.8861C96.8504 22.5912 96.505 23.5154 96.505 24.6622V31.5411H94.5391V19.256H96.505H96.5067Z" fill="#111111"/>
<path d="M118.372 20.7307C118.896 21.354 119.264 22.1232 119.478 23.0403V19.2563H121.444V30.8042C121.444 32.7042 120.854 34.1697 119.674 35.2025C118.527 36.2015 116.946 36.7018 114.932 36.7018C113.114 36.7018 111.648 36.2834 110.533 35.4482C109.387 34.5971 108.715 33.3755 108.518 31.7871H110.484C110.861 33.8349 112.343 34.8588 114.93 34.8588C116.355 34.8588 117.46 34.5223 118.247 33.8509C119.067 33.1636 119.476 32.1468 119.476 30.8042V27.5116C119.262 28.4287 118.894 29.1997 118.37 29.8212C117.421 30.968 116.07 31.5414 114.316 31.5414C112.562 31.5414 111.096 30.968 110.015 29.8212C108.95 28.6905 108.418 27.1751 108.418 25.2751C108.418 23.3751 108.95 21.8597 110.015 20.7289C111.096 19.5822 112.53 19.0088 114.316 19.0088C116.102 19.0088 117.419 19.5822 118.37 20.7289L118.372 20.7307ZM111.616 28.4946C112.451 29.2977 113.557 29.6983 114.934 29.6983C116.31 29.6983 117.416 29.2977 118.251 28.4946C119.07 27.6915 119.48 26.6195 119.48 25.2751C119.48 23.9306 119.07 22.8587 118.251 22.0556C117.416 21.2525 116.31 20.8518 114.934 20.8518C113.557 20.8518 112.451 21.2525 111.616 22.0556C110.797 22.8587 110.387 23.9306 110.387 25.2751C110.387 26.6195 110.797 27.6915 111.616 28.4946Z" fill="#111111"/>
<path d="M58.4609 38.786V34.7349H58.9239V38.786H58.4609Z" fill="#111111"/>
<path d="M59.5039 34.7349H62.8605V35.1694H61.4146V38.786H60.9516V35.1694H59.5057V34.7349H59.5039Z" fill="#111111"/>
<path d="M67.1129 36.2445C67.2358 36.3959 67.3231 36.5775 67.3729 36.7948V35.8919H67.8359V38.7856H67.3729V37.8828C67.3231 38.0982 67.2358 38.2816 67.1129 38.433C66.8886 38.7072 66.5716 38.8443 66.1585 38.8443C65.7454 38.8443 65.3999 38.7072 65.1453 38.433C64.8942 38.1588 64.7695 37.7937 64.7695 37.3397C64.7695 36.8856 64.8942 36.5205 65.1453 36.2463C65.3999 35.9721 65.7382 35.835 66.1585 35.835C66.5787 35.835 66.8903 35.9721 67.1129 36.2463V36.2445ZM65.5228 38.1143C65.7204 38.3101 65.9804 38.4099 66.3045 38.4099C66.6286 38.4099 66.8886 38.3119 67.0862 38.1143C67.2785 37.9219 67.3747 37.6637 67.3747 37.3397C67.3747 37.0156 67.2785 36.7556 67.0862 36.5579C66.8886 36.3656 66.6286 36.2694 66.3045 36.2694C65.9804 36.2694 65.7204 36.3656 65.5228 36.5579C65.3305 36.7556 65.2343 37.0156 65.2343 37.3397C65.2343 37.6637 65.3305 37.9219 65.5228 38.1143Z" fill="#111111"/>
<path d="M70.8178 36.2392C70.9407 36.3852 71.028 36.5668 71.0778 36.7823V35.8919H71.5408V38.6111C71.5408 39.058 71.4019 39.4035 71.1241 39.6474C70.8535 39.8825 70.4813 40 70.0076 40C69.5803 40 69.2348 39.9021 68.9713 39.7044C68.7006 39.5032 68.5439 39.2165 68.4958 38.8426H68.9588C69.0478 39.3251 69.3968 39.5655 70.0058 39.5655C70.3406 39.5655 70.6024 39.4872 70.7876 39.3287C70.9799 39.1667 71.076 38.928 71.076 38.6111V37.8365C71.0262 38.0519 70.9389 38.2336 70.8161 38.3796C70.5917 38.6502 70.2747 38.7838 69.8616 38.7838C69.4485 38.7838 69.103 38.6485 68.8484 38.3796C68.5973 38.1143 68.4727 37.7563 68.4727 37.3094C68.4727 36.8624 68.5973 36.5045 68.8484 36.2392C69.103 35.9685 69.4414 35.835 69.8616 35.835C70.2818 35.835 70.5917 35.9703 70.8161 36.2392H70.8178ZM69.2277 38.068C69.4235 38.2567 69.6853 38.3511 70.0094 38.3511C70.3335 38.3511 70.5935 38.2567 70.7911 38.068C70.9834 37.8792 71.0796 37.6263 71.0796 37.3094C71.0796 36.9924 70.9834 36.7396 70.7911 36.5508C70.5935 36.362 70.3335 36.2677 70.0094 36.2677C69.6853 36.2677 69.4253 36.362 69.2277 36.5508C69.0354 36.7396 68.9392 36.9924 68.9392 37.3094C68.9392 37.6263 69.0354 37.8792 69.2277 38.068Z" fill="#111111"/>
<path d="M72.5928 36.2448C72.8742 35.9706 73.2463 35.8335 73.7093 35.8335C74.1723 35.8335 74.5445 35.9706 74.8258 36.2448C75.1036 36.5191 75.2425 36.8841 75.2425 37.3382L75.2372 37.4486L75.2265 37.5519H72.6569C72.6997 37.819 72.8136 38.0273 72.9988 38.1769C73.1876 38.3318 73.4244 38.4084 73.7111 38.4084C74.1242 38.4084 74.4252 38.257 74.6139 37.9579H75.1357C75.027 38.2357 74.8507 38.4511 74.6032 38.6061C74.3521 38.7645 74.0548 38.8429 73.7129 38.8429C73.2499 38.8429 72.8777 38.7058 72.5964 38.4315C72.3186 38.1573 72.1797 37.7923 72.1797 37.3382C72.1797 36.8841 72.3186 36.5191 72.5964 36.2448H72.5928ZM74.4216 36.4995C74.2328 36.3446 73.996 36.268 73.7093 36.268C73.4226 36.268 73.1858 36.3446 72.997 36.4995C72.8118 36.6508 72.6979 36.8556 72.6551 37.1192H74.7617C74.719 36.8574 74.605 36.6508 74.4198 36.4995H74.4216Z" fill="#111111"/>
<path d="M76.344 35.8923V36.7541C76.3832 36.5226 76.4651 36.3321 76.5933 36.1807C76.7821 35.9492 77.0563 35.8335 77.4142 35.8335C77.7721 35.8335 78.066 35.9492 78.2814 36.1807C78.4933 36.4122 78.6002 36.7203 78.6002 37.1067V38.7841H78.1372V37.1637C78.1372 36.893 78.057 36.6758 77.895 36.5102C77.7294 36.3481 77.5104 36.268 77.2415 36.268C76.9726 36.268 76.7536 36.3481 76.588 36.5102C76.4259 36.6758 76.3458 36.8948 76.3458 37.1637V38.7841H75.8828V35.8905H76.3458L76.344 35.8923Z" fill="#111111"/>
<path d="M81.724 37.6284H82.1995C82.1407 38.0024 81.9769 38.298 81.708 38.5135C81.4373 38.7343 81.099 38.8429 80.6894 38.8429C80.2264 38.8429 79.8543 38.7058 79.5729 38.4315C79.2951 38.1573 79.1562 37.7923 79.1562 37.3382C79.1562 36.8841 79.2951 36.5191 79.5729 36.2448C79.8543 35.9706 80.2264 35.8335 80.6894 35.8335C81.099 35.8335 81.4373 35.9439 81.708 36.1629C81.9787 36.3784 82.1425 36.674 82.1995 37.0479H81.724C81.6706 36.8058 81.5531 36.6134 81.3714 36.4745C81.1863 36.3357 80.9583 36.2662 80.6894 36.2662C80.3653 36.2662 80.1054 36.3624 79.9077 36.5547C79.7154 36.7523 79.6192 37.0123 79.6192 37.3364C79.6192 37.6605 79.7154 37.9187 79.9077 38.111C80.1054 38.3069 80.3653 38.4066 80.6894 38.4066C80.9601 38.4066 81.1863 38.3372 81.3714 38.1983C81.5531 38.0594 81.6706 37.8688 81.724 37.6249V37.6284Z" fill="#111111"/>
<path d="M85.0609 35.8921H85.5524L83.7984 39.9432H83.3069L83.8037 38.7982L82.543 35.8939H83.0344L84.0477 38.2319L85.0609 35.8939V35.8921Z" fill="#111111"/>
</svg>
