<svg width="300" height="80" viewBox="0 0 300 80" fill="none" xmlns="http://www.w3.org/2000/svg">
<path d="M121.045 4H112.782C109.59 4 106.654 5.75007 105.135 8.55789L100.384 17.3339C98.9227 20.0327 96.1021 21.7123 93.0345 21.7123H51.2797C48.0872 21.7123 45.1512 23.4623 43.6319 26.2701L40.3112 32.4051C35.7213 40.8829 38.8753 47.7582 47.3564 47.7582H58.0492L50.8469 61.0632C47.7346 66.8135 51.8983 73.8042 58.4369 73.8042H64.8539C68.0239 73.8042 70.9376 72.067 72.444 69.2817L91.3069 34.4276C92.7685 31.7288 95.5893 30.0492 98.6567 30.0492H114.369C117.561 30.0492 120.497 28.2991 122.017 25.4913L126.828 16.6063C130.594 9.64768 128.007 4.00321 121.045 4.00321V4Z" fill="#111111"/>
<path d="M132.031 18.4609H158.508V21.885H147.094V50.4164H143.442V21.885H132.031V18.4609Z" fill="#111111"/>
<path d="M174.983 48.127C173.035 49.9532 170.434 50.8663 167.179 50.8663C163.923 50.8663 161.32 49.9532 159.374 48.127C157.426 46.271 156.453 43.7599 156.453 40.5938V27.582H160.106V40.5938C160.106 42.7245 160.744 44.3984 162.024 45.6159C163.301 46.8334 165.022 47.442 167.182 47.442C169.342 47.442 171.063 46.8334 172.34 45.6159C173.617 44.3984 174.259 42.7245 174.259 40.5938V27.582H177.911V40.5938C177.911 43.7599 176.938 46.271 174.99 48.127H174.983Z" fill="#111111"/>
<path d="M183.602 50.4132V27.5887H187.254V50.4132H183.602ZM187.254 38.5427L187.026 38.0862C187.026 34.6787 187.803 32.0154 189.355 30.0965C190.999 28.1181 193.341 27.1289 196.385 27.1289V30.553C193.586 30.553 191.379 31.2544 189.765 32.6539C188.091 34.0533 187.254 36.0184 187.254 38.5427Z" fill="#111111"/>
<path d="M204.15 18.7311C204.606 19.2175 204.835 19.8129 204.835 20.5111C204.835 21.2091 204.606 21.8046 204.15 22.291C203.664 22.7772 203.055 23.0221 202.324 23.0221C201.592 23.0221 200.984 22.7772 200.497 22.291C200.041 21.8046 199.812 21.2091 199.812 20.5111C199.812 19.8129 200.041 19.2175 200.497 18.7311C200.984 18.2449 201.592 18 202.324 18C203.055 18 203.664 18.2449 204.15 18.7311ZM200.497 50.412V27.5877H204.15V50.412H200.497Z" fill="#111111"/>
<path d="M214.195 27.5893V34.3912C214.499 32.5651 215.154 31.0597 216.157 29.8721C217.649 28.0458 219.809 27.1328 222.638 27.1328C225.467 27.1328 227.782 28.0458 229.486 29.8721C231.16 31.6982 231.998 34.1332 231.998 37.177V50.4138H228.345V37.6335C228.345 35.5028 227.706 33.7826 226.426 32.4758C225.116 31.1986 223.399 30.5569 221.268 30.5569C219.137 30.5569 217.417 31.1955 216.11 32.4758C214.833 33.7858 214.191 35.5028 214.191 37.6335V50.4138H210.539V27.5893H214.191H214.195Z" fill="#111111"/>
<path d="M254.822 30.328C255.795 31.486 256.479 32.9151 256.876 34.619V27.5887H260.529V49.0436C260.529 52.5736 259.433 55.2963 257.241 57.2151C255.11 59.0712 252.172 60.0007 248.43 60.0007C245.053 60.0007 242.329 59.2233 240.258 57.6716C238.128 56.0904 236.88 53.8208 236.514 50.8697H240.167C240.867 54.6743 243.62 56.5766 248.427 56.5766C251.074 56.5766 253.127 55.9514 254.589 54.704C256.113 53.4271 256.873 51.538 256.873 49.0436V42.9262C256.475 44.6301 255.791 46.0626 254.818 47.2172C253.055 49.3479 250.545 50.4132 247.286 50.4132C244.027 50.4132 241.304 49.3479 239.295 47.2172C237.317 45.1165 236.328 42.3011 236.328 38.7711C236.328 35.241 237.317 32.4256 239.295 30.3247C241.304 28.1942 243.968 27.1289 247.286 27.1289C250.604 27.1289 253.051 28.1942 254.818 30.3247L254.822 30.328ZM242.27 44.7526C243.821 46.2446 245.876 46.9889 248.434 46.9889C250.991 46.9889 253.045 46.2446 254.597 44.7526C256.118 43.2605 256.88 41.2688 256.88 38.7711C256.88 36.2731 256.118 34.2816 254.597 32.7895C253.045 31.2975 250.991 30.553 248.434 30.553C245.876 30.553 243.821 31.2975 242.27 32.7895C240.748 34.2816 239.986 36.2731 239.986 38.7711C239.986 41.2688 240.748 43.2605 242.27 44.7526Z" fill="#111111"/>
<path d="M143.016 70.3104V58H144.423V70.3104H143.016Z" fill="#111111"/>
<path d="M146.188 58H156.387V59.3203H151.994V70.3104H150.587V59.3203H146.193V58H146.188Z" fill="#111111"/>
<path d="M169.309 62.5881C169.682 63.0482 169.947 63.6001 170.099 64.2604V61.5167H171.506V70.31H170.099V67.5666C169.947 68.2211 169.682 68.7784 169.309 69.2385C168.627 70.0717 167.664 70.4884 166.408 70.4884C165.153 70.4884 164.103 70.0717 163.329 69.2385C162.566 68.4053 162.188 67.2958 162.188 65.9162C162.188 64.5363 162.566 63.4268 163.329 62.5936C164.103 61.7604 165.131 61.3438 166.408 61.3438C167.685 61.3438 168.632 61.7604 169.309 62.5936V62.5881ZM164.477 68.2701C165.077 68.8651 165.867 69.1683 166.852 69.1683C167.837 69.1683 168.627 68.8705 169.227 68.2701C169.812 67.6854 170.104 66.9008 170.104 65.9162C170.104 64.9313 169.812 64.1413 169.227 63.5405C168.627 62.9561 167.837 62.6638 166.852 62.6638C165.867 62.6638 165.077 62.9561 164.477 63.5405C163.892 64.1413 163.6 64.9313 163.6 65.9162C163.6 66.9008 163.892 67.6854 164.477 68.2701Z" fill="#111111"/>
<path d="M180.564 62.572C180.937 63.0157 181.202 63.5675 181.354 64.2224V61.5167H182.761V69.7797C182.761 71.1378 182.339 72.1877 181.495 72.9288C180.672 73.6432 179.541 74.0003 178.102 74.0003C176.803 74.0003 175.753 73.7028 174.953 73.102C174.13 72.4906 173.654 71.6194 173.508 70.4832H174.915C175.185 71.9494 176.246 72.6799 178.096 72.6799C179.114 72.6799 179.909 72.442 180.472 71.9604C181.056 71.4681 181.348 70.7427 181.348 69.7797V67.4259C181.197 68.0804 180.932 68.6326 180.559 69.0762C179.877 69.8985 178.913 70.3045 177.658 70.3045C176.403 70.3045 175.353 69.8934 174.579 69.0762C173.816 68.2701 173.438 67.1822 173.438 65.8241C173.438 64.4658 173.816 63.3782 174.579 62.572C175.353 61.7494 176.381 61.3438 177.658 61.3438C178.935 61.3438 179.877 61.7549 180.559 62.572H180.564ZM175.732 68.1294C176.327 68.7028 177.122 68.9896 178.107 68.9896C179.092 68.9896 179.882 68.7028 180.483 68.1294C181.067 67.5556 181.359 66.7871 181.359 65.8241C181.359 64.8608 181.067 64.0926 180.483 63.5189C179.882 62.9452 179.092 62.6586 178.107 62.6586C177.122 62.6586 176.332 62.9452 175.732 63.5189C175.147 64.0926 174.855 64.8608 174.855 65.8241C174.855 66.7871 175.147 67.5556 175.732 68.1294Z" fill="#111111"/>
<path d="M185.951 62.5858C186.806 61.7526 187.936 61.3359 189.343 61.3359C190.75 61.3359 191.881 61.7526 192.736 62.5858C193.58 63.4193 194.002 64.5285 194.002 65.9084L193.986 66.2439L193.954 66.5578H186.145C186.275 67.3694 186.622 68.0024 187.184 68.457C187.758 68.9277 188.478 69.1605 189.349 69.1605C190.604 69.1605 191.519 68.7004 192.092 67.7915H193.678C193.348 68.6357 192.812 69.2903 192.06 69.7613C191.297 70.2426 190.393 70.4809 189.354 70.4809C187.947 70.4809 186.816 70.0642 185.962 69.2307C185.117 68.3975 184.695 67.2883 184.695 65.9084C184.695 64.5285 185.117 63.4193 185.962 62.5858H185.951ZM191.508 63.3598C190.934 62.8891 190.215 62.6563 189.343 62.6563C188.472 62.6563 187.753 62.8891 187.179 63.3598C186.616 63.8195 186.27 64.4419 186.14 65.2429H192.541C192.412 64.4474 192.065 63.8195 191.502 63.3598H191.508Z" fill="#111111"/>
<path d="M197.355 61.5146V64.1334C197.474 63.43 197.723 62.8511 198.112 62.391C198.686 61.6875 199.519 61.3359 200.607 61.3359C201.694 61.3359 202.587 61.6875 203.242 62.391C203.886 63.0945 204.211 64.0307 204.211 65.2049V70.3022H202.804V65.3781C202.804 64.5555 202.56 63.8955 202.068 63.3923C201.565 62.8997 200.899 62.6563 200.082 62.6563C199.265 62.6563 198.599 62.8997 198.096 63.3923C197.603 63.8955 197.36 64.561 197.36 65.3781V70.3022H195.953V61.5091H197.36L197.355 61.5146Z" fill="#111111"/>
<path d="M213.709 66.7903H215.154C214.976 67.9268 214.478 68.825 213.661 69.4799C212.838 70.1508 211.81 70.4809 210.565 70.4809C209.158 70.4809 208.028 70.0642 207.173 69.2307C206.328 68.3975 205.906 67.2883 205.906 65.9084C205.906 64.5285 206.328 63.4193 207.173 62.5858C208.028 61.7526 209.158 61.3359 210.565 61.3359C211.81 61.3359 212.838 61.6714 213.661 62.3369C214.483 62.9918 214.981 63.89 215.154 65.0262H213.709C213.547 64.2906 213.19 63.7059 212.638 63.2838C212.075 62.862 211.382 62.6508 210.565 62.6508C209.58 62.6508 208.791 62.9431 208.19 63.5275C207.606 64.128 207.313 64.9181 207.313 65.9029C207.313 66.8878 207.606 67.6724 208.19 68.2568C208.791 68.8521 209.58 69.155 210.565 69.155C211.388 69.155 212.075 68.9441 212.638 68.5221C213.19 68.1 213.547 67.5208 213.709 66.7796V66.7903Z" fill="#111111"/>
<path d="M223.854 61.5156H225.348L220.018 73.826H218.524L220.034 70.3466L216.203 61.5211H217.696L220.776 68.6258L223.854 61.5211V61.5156Z" fill="#111111"/>
</svg>
