<svg width="300" height="80" viewBox="0 0 300 80" fill="none" xmlns="http://www.w3.org/2000/svg">
<g clip-path="url(#clip0_393_20599)">
<path d="M75.6884 43.2383L65.0003 67.1998H57.2031L68.9425 41.5763C63.4233 38.7779 59.7438 33.7057 59.7438 24.3485C59.7438 11.2308 68.0665 4.67188 77.9662 4.67188H88.0409V67.1998H81.2953V43.2383H75.6884ZM81.2953 10.3563H77.7032C72.2716 10.3563 67.0151 13.9417 67.0151 24.3485C67.0151 34.4052 71.8336 37.6409 77.7032 37.6409H81.2953V10.3563Z" fill="#FF0000"/>
<path d="M120.546 23.1237V67.1995H113.8V47.4354H103.638V67.1995H96.8047V23.1237H103.638V41.8383H113.8V23.1237H120.546ZM155.677 75.8573H149.544V67.1995H130.621V75.8573H124.488V61.6026H127.204C131.234 52.2453 131.672 38.6026 131.672 26.8841V23.1237H152.173V61.6026H155.677V75.8573ZM145.427 28.6334H137.805V29.4203C137.805 38.6901 137.367 52.2453 133.687 61.6026H145.427V28.6334ZM174.512 67.8114C165.401 67.8114 159.795 60.5532 159.795 46.9984C159.795 32.831 163.737 22.5117 173.111 22.5117C180.47 22.5117 185.288 28.0211 185.288 42.9756V46.7359H166.891C166.891 56.7052 169.694 61.9526 175.126 61.9526C178.98 61.9526 182.047 60.2037 183.799 58.9792L185.376 64.2261C182.264 66.6104 178.435 67.8739 174.512 67.8114ZM166.978 41.1388H178.28C178.28 33.618 177.053 28.1086 173.111 28.1086C168.906 28.1086 167.416 33.2682 166.978 41.1388ZM199.13 45.2495V67.1995H192.297V23.1237H199.13V43.5L209.73 23.1237H216.652L205.701 43.85L218.228 67.1995H210.782L199.13 45.2495ZM219.104 45.162C219.104 31.3443 224.449 22.5117 234.787 22.5117C238.728 22.5117 241.007 23.5612 242.934 24.7854L241.97 31.2568C240.13 29.6825 237.502 28.1961 234.699 28.1961C229.793 28.1961 226.289 33.7055 226.289 44.812C226.289 55.8308 228.917 62.1271 234.436 62.1271C237.167 62.1637 239.816 61.1991 241.883 59.4161L243.459 64.4886C240.924 66.7167 237.637 67.9039 234.261 67.8114C224.799 67.8114 219.104 60.2037 219.104 45.162Z" fill="black"/>
</g>
<defs>
<clipPath id="clip0_393_20599">
<rect width="187" height="72" fill="white" transform="translate(57 4)"/>
</clipPath>
</defs>
</svg>
