<svg width="180" height="38" viewBox="0 0 180 38" fill="none" xmlns="http://www.w3.org/2000/svg">
<g clip-path="url(#clip0_1_690)">
<path d="M37.8008 19.6484V28.924H34.8008V5.98438H42.6008C44.5008 5.98438 46.3008 6.68254 47.7008 7.97913C49.1008 9.17598 49.8008 10.9713 49.8008 12.8663C49.8008 14.7613 49.1008 16.4568 47.7008 17.7534C46.3008 19.05 44.6008 19.7482 42.6008 19.7482L37.8008 19.6484ZM37.8008 8.77703V16.756H42.8008C43.9008 16.756 45.0008 16.3571 45.7008 15.5592C47.3008 14.0631 47.3008 11.5697 45.8008 10.0736L45.7008 9.97388C44.9008 9.17598 43.9008 8.67729 42.8008 8.77703H37.8008Z" fill="black"/>
<path d="M56.7008 12.7664C58.9008 12.7664 60.6008 13.3648 61.9008 14.5616C63.2008 15.7585 63.8008 17.3543 63.8008 19.349V28.9238H61.0008V26.7296H60.9008C59.7008 28.5249 58.0008 29.4225 56.0008 29.4225C54.3008 29.4225 52.8008 28.9238 51.6008 27.9265C50.5008 26.9291 49.8008 25.5328 49.8008 24.0367C49.8008 22.4409 50.4008 21.1443 51.6008 20.1469C52.8008 19.1496 54.5008 18.7506 56.5008 18.7506C58.3008 18.7506 59.7008 19.0498 60.8008 19.748V19.0498C60.8008 18.0524 60.4008 17.0551 59.6008 16.4566C58.8008 15.7585 57.8008 15.3595 56.7008 15.3595C55.0008 15.3595 53.7008 16.0577 52.8008 17.454L50.2008 15.8582C51.8008 13.7637 53.9008 12.7664 56.7008 12.7664ZM52.9008 24.1364C52.9008 24.9343 53.3008 25.6325 53.9008 26.0315C54.6008 26.5301 55.4008 26.8293 56.2008 26.8293C57.4008 26.8293 58.6008 26.3307 59.5008 25.433C60.5008 24.5354 61.0008 23.4383 61.0008 22.2414C60.1008 21.5433 58.8008 21.1443 57.1008 21.1443C55.9008 21.1443 54.9008 21.4435 54.1008 22.0419C53.3008 22.5406 52.9008 23.2388 52.9008 24.1364Z" fill="black"/>
<path d="M80.0008 13.2651L70.1008 35.9056H67.1008L70.8008 28.0263L64.3008 13.3649H67.5008L72.2008 24.6352H72.3008L76.9008 13.3649H80.0008V13.2651Z" fill="black"/>
<path d="M25.8992 17.6534C25.8992 16.7557 25.7992 15.8581 25.6992 14.9604H13.1992V20.0471H20.2992C19.9992 21.6429 19.0992 23.1389 17.6992 24.0366V27.3279H21.9992C24.4992 25.0339 25.8992 21.6429 25.8992 17.6534Z" fill="#4285F4"/>
<path d="M13.2004 30.5196C16.8004 30.5196 19.8004 29.3227 22.0004 27.328L17.7004 24.0366C16.5004 24.8345 15.0004 25.3332 13.2004 25.3332C9.80039 25.3332 6.80039 23.0393 5.80039 19.8477H1.40039V23.2387C3.70039 27.7269 8.20039 30.5196 13.2004 30.5196Z" fill="#34A853"/>
<path d="M5.79961 19.8478C5.19961 18.252 5.19961 16.4567 5.79961 14.7612V11.3701H1.39961C-0.500391 15.0604 -0.500391 19.4489 1.39961 23.2389L5.79961 19.8478Z" fill="#FBBC04"/>
<path d="M13.2 9.37531C15.1 9.37531 16.9 10.0735 18.3 11.3701L22.1 7.58004C19.7 5.38581 16.5 4.08922 13.3 4.18896C8.3 4.18896 3.7 6.98161 1.5 11.4698L5.9 14.8609C6.8 11.6693 9.8 9.37531 13.2 9.37531Z" fill="#EA4335"/>
</g>
<g clip-path="url(#clip1_1_690)">
<path d="M114.626 6.75452C113.688 7.86917 112.188 8.74833 110.688 8.62274C110.501 7.1156 111.235 5.51427 112.094 4.52521C113.032 3.37916 114.672 2.5628 116.001 2.5C116.157 4.06993 115.547 5.60847 114.626 6.75452ZM115.985 8.92103C113.813 8.79543 111.954 10.1613 110.922 10.1613C109.876 10.1613 108.297 8.98383 106.579 9.01522C104.344 9.04662 102.266 10.3183 101.126 12.3435C98.7819 16.3939 100.516 22.3911 102.782 25.6879C103.891 27.3206 105.219 29.1104 106.969 29.0476C108.626 28.9848 109.282 27.9643 111.282 27.9643C113.297 27.9643 113.876 29.0476 115.626 29.0162C117.438 28.9848 118.579 27.3834 119.688 25.7507C120.954 23.8982 121.469 22.0928 121.501 21.9986C121.469 21.9672 118.001 20.6327 117.969 16.6137C117.938 13.254 120.704 11.6527 120.829 11.5585C119.266 9.23501 116.829 8.98383 115.985 8.92103ZM128.532 4.36822V28.8435H132.313V20.4757H137.547C142.329 20.4757 145.688 17.1789 145.688 12.4063C145.688 7.63368 142.391 4.36822 137.672 4.36822H128.532ZM132.313 7.57088H136.672C139.954 7.57088 141.829 9.32921 141.829 12.422C141.829 15.5147 139.954 17.2888 136.657 17.2888H132.313V7.57088ZM152.594 29.0319C154.969 29.0319 157.172 27.823 158.172 25.9077H158.251V28.8435H161.751V16.6608C161.751 13.1284 158.938 10.852 154.61 10.852C150.594 10.852 147.626 13.1598 147.516 16.3311H150.922C151.204 14.824 152.594 13.8349 154.501 13.8349C156.813 13.8349 158.11 14.9182 158.11 16.912V18.2621L153.391 18.5447C149.001 18.8116 146.626 20.617 146.626 23.7569C146.626 26.9282 149.079 29.0319 152.594 29.0319ZM153.61 26.1275C151.594 26.1275 150.313 25.1541 150.313 23.6627C150.313 22.1242 151.547 21.2293 153.907 21.088L158.11 20.8211V22.2027C158.11 24.4948 156.172 26.1275 153.61 26.1275ZM166.422 35.5C170.11 35.5 171.844 34.0871 173.36 29.8011L180.001 11.0875H176.157L171.704 25.5466H171.626L167.172 11.0875H163.219L169.626 28.9063L169.282 29.9895C168.704 31.8264 167.766 32.5328 166.094 32.5328C165.797 32.5328 165.219 32.5014 164.985 32.47V35.4058C165.204 35.4686 166.141 35.5 166.422 35.5Z" fill="black"/>
</g>
<defs>
<clipPath id="clip0_1_690">
<rect width="80" height="38" fill="white"/>
</clipPath>
<clipPath id="clip1_1_690">
<rect width="80" height="33" fill="white" transform="translate(100 2.5)"/>
</clipPath>
</defs>
</svg>
