<svg width="32" height="32" viewBox="0 0 32 32" fill="none" xmlns="http://www.w3.org/2000/svg">
<path d="M6.06667 23.4968C5.62222 23.8079 5.16667 23.8301 4.7 23.5635C4.23333 23.2968 4 22.8968 4 22.3635V11.3635C4 10.8301 4.23333 10.4355 4.7 10.1795C5.16667 9.92434 5.62222 9.94123 6.06667 10.2301L14.3333 15.7635C14.7333 16.0301 14.9333 16.3968 14.9333 16.8635C14.9333 17.3301 14.7333 17.6968 14.3333 17.9635L6.06667 23.4968ZM19.4 23.4968C18.9556 23.8079 18.5 23.8301 18.0333 23.5635C17.5667 23.2968 17.3333 22.8968 17.3333 22.3635V11.3635C17.3333 10.8301 17.5667 10.4355 18.0333 10.1795C18.5 9.92434 18.9556 9.94123 19.4 10.2301L27.6667 15.7635C28.0667 16.0301 28.2667 16.3968 28.2667 16.8635C28.2667 17.3301 28.0667 17.6968 27.6667 17.9635L19.4 23.4968Z" fill="#76C96E"/>
</svg>
