<svg width="90" height="90" viewBox="0 0 90 90" fill="none" xmlns="http://www.w3.org/2000/svg">
<rect width="90" height="90" rx="24" fill="#76C96E"/>
<path d="M57.4583 43.0833L54.5833 45.9583L44.0417 35.4167L46.9167 32.5417C48.3542 31.1042 53.625 28.7083 57.4583 32.5417C61.2917 36.375 58.8958 41.6458 57.4583 43.0833ZM62.25 27.75L57.4583 32.5417L62.25 27.75ZM32.5417 46.9167L35.4167 44.0417L45.9583 54.5833L43.0833 57.4583C41.6458 58.8958 36.375 61.2917 32.5417 57.4583C28.7083 53.625 31.1042 48.3542 32.5417 46.9167ZM44.0417 52.6667L47.875 48.8333L44.0417 52.6667ZM27.75 62.25L32.5417 57.4583L27.75 62.25ZM37.3333 45.9583L41.1667 42.125L37.3333 45.9583Z" fill="white"/>
<path d="M57.4583 32.5417C53.625 28.7083 48.3542 31.1042 46.9167 32.5417L44.0417 35.4167L54.5833 45.9583L57.4583 43.0833C58.8958 41.6458 61.2917 36.375 57.4583 32.5417ZM57.4583 32.5417L62.25 27.75M32.5417 57.4583C36.375 61.2917 41.6458 58.8958 43.0833 57.4583L45.9583 54.5833L35.4167 44.0417L32.5417 46.9167C31.1042 48.3542 28.7083 53.625 32.5417 57.4583ZM32.5417 57.4583L27.75 62.25M44.0417 52.6667L47.875 48.8333M37.3333 45.9583L41.1667 42.125" stroke="white" stroke-width="2" stroke-linecap="round" stroke-linejoin="round"/>
</svg>
