<svg width="180" height="39" viewBox="0 0 180 39" fill="none" xmlns="http://www.w3.org/2000/svg">
<path d="M6.55 24.4751C6.21667 24.7085 5.875 24.7251 5.525 24.5251C5.175 24.3251 5 24.0251 5 23.6251V15.3751C5 14.9751 5.175 14.6791 5.525 14.4871C5.875 14.2958 6.21667 14.3085 6.55 14.5251L12.75 18.6751C13.05 18.8751 13.2 19.1501 13.2 19.5001C13.2 19.8501 13.05 20.1251 12.75 20.3251L6.55 24.4751ZM16.55 24.4751C16.2167 24.7085 15.875 24.7251 15.525 24.5251C15.175 24.3251 15 24.0251 15 23.6251V15.3751C15 14.9751 15.175 14.6791 15.525 14.4871C15.875 14.2958 16.2167 14.3085 16.55 14.5251L22.75 18.6751C23.05 18.8751 23.2 19.1501 23.2 19.5001C23.2 19.8501 23.05 20.1251 22.75 20.3251L16.55 24.4751Z" fill="#76C96E"/>
<path d="M37.0568 31V7.72727H40.5682V18.8409H40.8523L50.6136 7.72727H55.0341L45.6477 18.2045L55.0682 31H50.8409L43.3182 20.6023L40.5682 23.7614V31H37.0568ZM64.1051 31.3523C62.4688 31.3523 61.0407 30.9773 59.821 30.2273C58.6013 29.4773 57.6544 28.428 56.9801 27.0795C56.3059 25.7311 55.9688 24.1553 55.9688 22.3523C55.9688 20.5417 56.3059 18.9583 56.9801 17.6023C57.6544 16.2462 58.6013 15.1932 59.821 14.4432C61.0407 13.6932 62.4688 13.3182 64.1051 13.3182C65.7415 13.3182 67.1695 13.6932 68.3892 14.4432C69.6089 15.1932 70.5559 16.2462 71.2301 17.6023C71.9044 18.9583 72.2415 20.5417 72.2415 22.3523C72.2415 24.1553 71.9044 25.7311 71.2301 27.0795C70.5559 28.428 69.6089 29.4773 68.3892 30.2273C67.1695 30.9773 65.7415 31.3523 64.1051 31.3523ZM64.1165 28.5C65.1771 28.5 66.0559 28.2197 66.7528 27.6591C67.4498 27.0985 67.965 26.3523 68.2983 25.4205C68.6392 24.4886 68.8097 23.4621 68.8097 22.3409C68.8097 21.2273 68.6392 20.2045 68.2983 19.2727C67.965 18.3333 67.4498 17.5795 66.7528 17.0114C66.0559 16.4432 65.1771 16.1591 64.1165 16.1591C63.0483 16.1591 62.1619 16.4432 61.4574 17.0114C60.7604 17.5795 60.2415 18.3333 59.9006 19.2727C59.5672 20.2045 59.4006 21.2273 59.4006 22.3409C59.4006 23.4621 59.5672 24.4886 59.9006 25.4205C60.2415 26.3523 60.7604 27.0985 61.4574 27.6591C62.1619 28.2197 63.0483 28.5 64.1165 28.5ZM76.0341 31V13.5455H79.2955V16.3864H79.5114C79.875 15.4242 80.4697 14.6742 81.2955 14.1364C82.1212 13.5909 83.1098 13.3182 84.2614 13.3182C85.428 13.3182 86.4053 13.5909 87.1932 14.1364C87.9886 14.6818 88.5758 15.4318 88.9545 16.3864H89.1364C89.553 15.4545 90.2159 14.7121 91.125 14.1591C92.0341 13.5985 93.1174 13.3182 94.375 13.3182C95.9583 13.3182 97.25 13.8144 98.25 14.8068C99.2576 15.7992 99.7614 17.2955 99.7614 19.2955V31H96.3636V19.6136C96.3636 18.4318 96.0417 17.5758 95.3977 17.0455C94.7538 16.5152 93.9848 16.25 93.0909 16.25C91.9848 16.25 91.125 16.5909 90.5114 17.2727C89.8977 17.947 89.5909 18.8144 89.5909 19.875V31H86.2045V19.3977C86.2045 18.4508 85.9091 17.6894 85.3182 17.1136C84.7273 16.5379 83.9583 16.25 83.0114 16.25C82.3674 16.25 81.7727 16.4205 81.2273 16.7614C80.6894 17.0947 80.2538 17.5606 79.9205 18.1591C79.5947 18.7576 79.4318 19.4508 79.4318 20.2386V31H76.0341ZM111.668 31.3523C110.031 31.3523 108.603 30.9773 107.384 30.2273C106.164 29.4773 105.217 28.428 104.543 27.0795C103.868 25.7311 103.531 24.1553 103.531 22.3523C103.531 20.5417 103.868 18.9583 104.543 17.6023C105.217 16.2462 106.164 15.1932 107.384 14.4432C108.603 13.6932 110.031 13.3182 111.668 13.3182C113.304 13.3182 114.732 13.6932 115.952 14.4432C117.171 15.1932 118.118 16.2462 118.793 17.6023C119.467 18.9583 119.804 20.5417 119.804 22.3523C119.804 24.1553 119.467 25.7311 118.793 27.0795C118.118 28.428 117.171 29.4773 115.952 30.2273C114.732 30.9773 113.304 31.3523 111.668 31.3523ZM111.679 28.5C112.74 28.5 113.618 28.2197 114.315 27.6591C115.012 27.0985 115.527 26.3523 115.861 25.4205C116.202 24.4886 116.372 23.4621 116.372 22.3409C116.372 21.2273 116.202 20.2045 115.861 19.2727C115.527 18.3333 115.012 17.5795 114.315 17.0114C113.618 16.4432 112.74 16.1591 111.679 16.1591C110.611 16.1591 109.724 16.4432 109.02 17.0114C108.323 17.5795 107.804 18.3333 107.463 19.2727C107.13 20.2045 106.963 21.2273 106.963 22.3409C106.963 23.4621 107.13 24.4886 107.463 25.4205C107.804 26.3523 108.323 27.0985 109.02 27.6591C109.724 28.2197 110.611 28.5 111.679 28.5ZM123.869 31V7.72727H132.165C133.975 7.72727 135.475 8.05682 136.665 8.71591C137.854 9.375 138.744 10.2765 139.335 11.4205C139.926 12.5568 140.222 13.8371 140.222 15.2614C140.222 16.6932 139.922 17.9811 139.324 19.125C138.733 20.2614 137.839 21.1629 136.642 21.8295C135.453 22.4886 133.956 22.8182 132.153 22.8182H126.449V19.8409H131.835C132.979 19.8409 133.907 19.6439 134.619 19.25C135.331 18.8485 135.854 18.303 136.188 17.6136C136.521 16.9242 136.688 16.1402 136.688 15.2614C136.688 14.3826 136.521 13.6023 136.188 12.9205C135.854 12.2386 135.328 11.7045 134.608 11.3182C133.896 10.9318 132.956 10.7386 131.79 10.7386H127.381V31H123.869ZM148.989 31.3864C147.883 31.3864 146.883 31.1818 145.989 30.7727C145.095 30.3561 144.386 29.7538 143.864 28.9659C143.348 28.178 143.091 27.2121 143.091 26.0682C143.091 25.0833 143.28 24.2727 143.659 23.6364C144.038 23 144.549 22.4962 145.193 22.125C145.837 21.7538 146.557 21.4735 147.352 21.2841C148.148 21.0947 148.958 20.9508 149.784 20.8523C150.83 20.7311 151.678 20.6326 152.33 20.5568C152.981 20.4735 153.455 20.3409 153.75 20.1591C154.045 19.9773 154.193 19.6818 154.193 19.2727V19.1932C154.193 18.2008 153.913 17.4318 153.352 16.8864C152.799 16.3409 151.973 16.0682 150.875 16.0682C149.731 16.0682 148.83 16.322 148.17 16.8295C147.519 17.3295 147.068 17.8864 146.818 18.5L143.625 17.7727C144.004 16.7121 144.557 15.8561 145.284 15.2045C146.019 14.5455 146.864 14.0682 147.818 13.7727C148.773 13.4697 149.777 13.3182 150.83 13.3182C151.527 13.3182 152.265 13.4015 153.045 13.5682C153.833 13.7273 154.568 14.0227 155.25 14.4545C155.939 14.8864 156.504 15.5038 156.943 16.3068C157.383 17.1023 157.602 18.1364 157.602 19.4091V31H154.284V28.6136H154.148C153.928 29.053 153.598 29.4848 153.159 29.9091C152.72 30.3333 152.155 30.6856 151.466 30.9659C150.777 31.2462 149.951 31.3864 148.989 31.3864ZM149.727 28.6591C150.667 28.6591 151.47 28.4735 152.136 28.1023C152.811 27.7311 153.322 27.2462 153.67 26.6477C154.027 26.0417 154.205 25.3939 154.205 24.7045V22.4545C154.083 22.5758 153.848 22.6894 153.5 22.7955C153.159 22.8939 152.769 22.9811 152.33 23.0568C151.89 23.125 151.462 23.1894 151.045 23.25C150.629 23.303 150.28 23.3485 150 23.3864C149.341 23.4697 148.739 23.6098 148.193 23.8068C147.655 24.0038 147.223 24.2879 146.898 24.6591C146.58 25.0227 146.42 25.5076 146.42 26.1136C146.42 26.9545 146.731 27.5909 147.352 28.0227C147.973 28.447 148.765 28.6591 149.727 28.6591ZM163.651 37.5455C163.143 37.5455 162.681 37.5038 162.264 37.4205C161.848 37.3447 161.537 37.2614 161.332 37.1705L162.151 34.3864C162.772 34.553 163.325 34.625 163.81 34.6023C164.295 34.5795 164.723 34.3977 165.094 34.0568C165.473 33.7159 165.806 33.1591 166.094 32.3864L166.514 31.2273L160.128 13.5455H163.764L168.185 27.0909H168.366L172.787 13.5455H176.435L169.241 33.3295C168.908 34.2386 168.484 35.0076 167.969 35.6364C167.454 36.2727 166.84 36.75 166.128 37.0682C165.416 37.3864 164.59 37.5455 163.651 37.5455Z" fill="white"/>
</svg>
