<svg width="177" height="40" viewBox="0 0 177 40" fill="none" xmlns="http://www.w3.org/2000/svg">
<path d="M4.05 24.975C3.71667 25.2083 3.375 25.225 3.025 25.025C2.675 24.825 2.5 24.525 2.5 24.125V15.875C2.5 15.475 2.675 15.179 3.025 14.987C3.375 14.7957 3.71667 14.8083 4.05 15.025L10.25 19.175C10.55 19.375 10.7 19.65 10.7 20C10.7 20.35 10.55 20.625 10.25 20.825L4.05 24.975ZM14.05 24.975C13.7167 25.2083 13.375 25.225 13.025 25.025C12.675 24.825 12.5 24.525 12.5 24.125V15.875C12.5 15.475 12.675 15.179 13.025 14.987C13.375 14.7957 13.7167 14.8083 14.05 15.025L20.25 19.175C20.55 19.375 20.7 19.65 20.7 20C20.7 20.35 20.55 20.625 20.25 20.825L14.05 24.975Z" fill="#76C96E"/>
<path d="M34.2955 31.5V8.22727H38.5114V18.9205H38.7955L47.875 8.22727H53.0227L44.0227 18.6705L53.1023 31.5H48.0341L41.0909 21.5227L38.5114 24.5682V31.5H34.2955ZM62.1023 31.8409C60.3977 31.8409 58.9205 31.4659 57.6705 30.7159C56.4205 29.9659 55.4508 28.9167 54.7614 27.5682C54.0795 26.2197 53.7386 24.6439 53.7386 22.8409C53.7386 21.0379 54.0795 19.4583 54.7614 18.1023C55.4508 16.7462 56.4205 15.6932 57.6705 14.9432C58.9205 14.1932 60.3977 13.8182 62.1023 13.8182C63.8068 13.8182 65.2841 14.1932 66.5341 14.9432C67.7841 15.6932 68.75 16.7462 69.4318 18.1023C70.1212 19.4583 70.4659 21.0379 70.4659 22.8409C70.4659 24.6439 70.1212 26.2197 69.4318 27.5682C68.75 28.9167 67.7841 29.9659 66.5341 30.7159C65.2841 31.4659 63.8068 31.8409 62.1023 31.8409ZM62.125 28.5455C63.0492 28.5455 63.822 28.2917 64.4432 27.7841C65.0644 27.2689 65.5265 26.5795 65.8295 25.7159C66.1402 24.8523 66.2955 23.8902 66.2955 22.8295C66.2955 21.7614 66.1402 20.7955 65.8295 19.9318C65.5265 19.0606 65.0644 18.3674 64.4432 17.8523C63.822 17.3371 63.0492 17.0795 62.125 17.0795C61.178 17.0795 60.3902 17.3371 59.7614 17.8523C59.1402 18.3674 58.6742 19.0606 58.3636 19.9318C58.0606 20.7955 57.9091 21.7614 57.9091 22.8295C57.9091 23.8902 58.0606 24.8523 58.3636 25.7159C58.6742 26.5795 59.1402 27.2689 59.7614 27.7841C60.3902 28.2917 61.178 28.5455 62.125 28.5455ZM73.9574 31.5V14.0455H77.8892V17.0114H78.0938C78.4574 16.0114 79.0597 15.2311 79.9006 14.6705C80.7415 14.1023 81.7453 13.8182 82.9119 13.8182C84.0938 13.8182 85.09 14.1061 85.9006 14.6818C86.7188 15.25 87.2945 16.0265 87.6278 17.0114H87.8097C88.196 16.0417 88.8475 15.2689 89.7642 14.6932C90.6884 14.1098 91.7831 13.8182 93.0483 13.8182C94.6544 13.8182 95.965 14.3258 96.9801 15.3409C97.9953 16.3561 98.5028 17.8371 98.5028 19.7841V31.5H94.3778V20.4205C94.3778 19.3371 94.09 18.5455 93.5142 18.0455C92.9384 17.5379 92.2339 17.2841 91.4006 17.2841C90.4081 17.2841 89.6316 17.5947 89.071 18.2159C88.518 18.8295 88.2415 19.6288 88.2415 20.6136V31.5H84.2074V20.25C84.2074 19.3485 83.9347 18.6288 83.3892 18.0909C82.8513 17.553 82.1468 17.2841 81.2756 17.2841C80.6847 17.2841 80.1468 17.4356 79.6619 17.7386C79.1771 18.0341 78.7907 18.4545 78.5028 19C78.215 19.5379 78.071 20.1667 78.071 20.8864V31.5H73.9574ZM110.29 31.8409C108.585 31.8409 107.108 31.4659 105.858 30.7159C104.608 29.9659 103.638 28.9167 102.949 27.5682C102.267 26.2197 101.926 24.6439 101.926 22.8409C101.926 21.0379 102.267 19.4583 102.949 18.1023C103.638 16.7462 104.608 15.6932 105.858 14.9432C107.108 14.1932 108.585 13.8182 110.29 13.8182C111.994 13.8182 113.472 14.1932 114.722 14.9432C115.972 15.6932 116.938 16.7462 117.619 18.1023C118.309 19.4583 118.653 21.0379 118.653 22.8409C118.653 24.6439 118.309 26.2197 117.619 27.5682C116.938 28.9167 115.972 29.9659 114.722 30.7159C113.472 31.4659 111.994 31.8409 110.29 31.8409ZM110.312 28.5455C111.237 28.5455 112.009 28.2917 112.631 27.7841C113.252 27.2689 113.714 26.5795 114.017 25.7159C114.328 24.8523 114.483 23.8902 114.483 22.8295C114.483 21.7614 114.328 20.7955 114.017 19.9318C113.714 19.0606 113.252 18.3674 112.631 17.8523C112.009 17.3371 111.237 17.0795 110.312 17.0795C109.366 17.0795 108.578 17.3371 107.949 17.8523C107.328 18.3674 106.862 19.0606 106.551 19.9318C106.248 20.7955 106.097 21.7614 106.097 22.8295C106.097 23.8902 106.248 24.8523 106.551 25.7159C106.862 26.5795 107.328 27.2689 107.949 27.7841C108.578 28.2917 109.366 28.5455 110.312 28.5455ZM122.327 31.5V8.22727H131.054C132.842 8.22727 134.342 8.56061 135.554 9.22727C136.774 9.89394 137.694 10.8106 138.315 11.9773C138.944 13.1364 139.259 14.4545 139.259 15.9318C139.259 17.4242 138.944 18.75 138.315 19.9091C137.687 21.0682 136.759 21.9811 135.531 22.6477C134.304 23.3068 132.793 23.6364 130.997 23.6364H125.213V20.1705H130.429C131.474 20.1705 132.33 19.9886 132.997 19.625C133.664 19.2614 134.156 18.7614 134.474 18.125C134.8 17.4886 134.963 16.7576 134.963 15.9318C134.963 15.1061 134.8 14.3788 134.474 13.75C134.156 13.1212 133.66 12.6326 132.986 12.2841C132.319 11.928 131.459 11.75 130.406 11.75H126.543V31.5H122.327ZM147.449 31.8523C146.343 31.8523 145.347 31.6553 144.46 31.2614C143.581 30.8598 142.884 30.2689 142.369 29.4886C141.862 28.7083 141.608 27.7462 141.608 26.6023C141.608 25.6174 141.79 24.803 142.153 24.1591C142.517 23.5152 143.013 23 143.642 22.6136C144.271 22.2273 144.979 21.9356 145.767 21.7386C146.563 21.5341 147.384 21.3864 148.233 21.2955C149.256 21.1894 150.085 21.0947 150.722 21.0114C151.358 20.9205 151.82 20.7841 152.108 20.6023C152.403 20.4129 152.551 20.1212 152.551 19.7273V19.6591C152.551 18.803 152.297 18.1402 151.79 17.6705C151.282 17.2008 150.551 16.9659 149.597 16.9659C148.589 16.9659 147.79 17.1856 147.199 17.625C146.616 18.0644 146.222 18.5833 146.017 19.1818L142.176 18.6364C142.479 17.5758 142.979 16.6894 143.676 15.9773C144.373 15.2576 145.225 14.7197 146.233 14.3636C147.241 14 148.354 13.8182 149.574 13.8182C150.415 13.8182 151.252 13.9167 152.085 14.1136C152.919 14.3106 153.68 14.6364 154.369 15.0909C155.059 15.5379 155.612 16.1477 156.028 16.9205C156.453 17.6932 156.665 18.6591 156.665 19.8182V31.5H152.71V29.1023H152.574C152.324 29.5871 151.972 30.0417 151.517 30.4659C151.07 30.8826 150.506 31.2197 149.824 31.4773C149.15 31.7273 148.358 31.8523 147.449 31.8523ZM148.517 28.8295C149.343 28.8295 150.059 28.6667 150.665 28.3409C151.271 28.0076 151.737 27.5682 152.062 27.0227C152.396 26.4773 152.562 25.8826 152.562 25.2386V23.1818C152.434 23.2879 152.214 23.3864 151.903 23.4773C151.6 23.5682 151.259 23.6477 150.881 23.7159C150.502 23.7841 150.127 23.8447 149.756 23.8977C149.384 23.9508 149.063 23.9962 148.79 24.0341C148.176 24.1174 147.627 24.2538 147.142 24.4432C146.657 24.6326 146.275 24.8977 145.994 25.2386C145.714 25.572 145.574 26.0038 145.574 26.5341C145.574 27.2917 145.85 27.8636 146.403 28.25C146.956 28.6364 147.661 28.8295 148.517 28.8295ZM162.733 38.0455C162.172 38.0455 161.653 38 161.176 37.9091C160.706 37.8258 160.331 37.7273 160.051 37.6136L161.006 34.4091C161.604 34.5833 162.138 34.6667 162.608 34.6591C163.078 34.6515 163.491 34.5038 163.847 34.2159C164.21 33.9356 164.517 33.4659 164.767 32.8068L165.119 31.8636L158.79 14.0455H163.153L167.176 27.2273H167.358L171.392 14.0455H175.767L168.778 33.6136C168.453 34.5379 168.021 35.3295 167.483 35.9886C166.945 36.6553 166.286 37.1629 165.506 37.5114C164.733 37.8674 163.809 38.0455 162.733 38.0455Z" fill="#1D252A"/>
</svg>
