<svg width="90" height="90" viewBox="0 0 90 90" fill="none" xmlns="http://www.w3.org/2000/svg">
<rect width="90" height="90" rx="24" fill="#76C96E"/>
<path fill-rule="evenodd" clip-rule="evenodd" d="M59.9501 41.5119C59.356 35.4169 55.7526 25.8335 44.6168 25.8335C33.481 25.8335 29.8776 35.4169 29.2835 41.5119C27.1991 42.3029 25.8242 44.3041 25.8335 46.5335V49.2169C25.8335 52.1808 28.2363 54.5835 31.2001 54.5835C34.1641 54.5835 36.5668 52.1807 36.5668 49.2169V46.5335C36.5571 44.3522 35.2328 42.3921 33.2126 41.5694C33.596 38.0426 35.4743 29.6669 44.6168 29.6669C53.7593 29.6669 55.6185 38.0426 56.0018 41.5694C53.9858 42.3939 52.6681 44.3553 52.6668 46.5335V49.2169C52.671 50.2267 52.9589 51.215 53.4977 52.069C54.0366 52.9231 54.8047 53.6084 55.7143 54.0469C54.9093 55.561 52.8585 57.6119 47.8176 58.2251C46.81 56.6951 44.8605 56.0919 43.1648 56.7856C41.4692 57.4792 40.5013 59.2758 40.8549 61.0734C41.2085 62.871 42.7848 64.1669 44.6168 64.1669C45.3267 64.1629 46.0216 63.9619 46.6239 63.5862C47.2263 63.2106 47.7126 62.6751 48.0285 62.0394C56.251 61.1001 58.8768 56.8644 59.701 54.3726C61.9306 53.6504 63.4302 51.5604 63.4001 49.2169V46.5335C63.4094 44.3041 62.0345 42.3029 59.9501 41.5119ZM32.7335 49.2169C32.7335 50.0636 32.047 50.7501 31.2001 50.7501C30.3533 50.7501 29.6668 50.0637 29.6668 49.2169V46.5335C29.6653 46.3312 29.7038 46.1305 29.7802 45.9431C29.8565 45.7557 29.9692 45.5853 30.1118 45.4417C30.2543 45.298 30.4239 45.184 30.6107 45.1062C30.7975 45.0284 30.9978 44.9884 31.2002 44.9884C31.4025 44.9884 31.6029 45.0284 31.7897 45.1062C31.9765 45.184 32.146 45.298 32.2886 45.4417C32.4311 45.5853 32.5438 45.7557 32.6202 45.9431C32.6965 46.1305 32.735 46.3312 32.7335 46.5335V49.2169ZM56.5001 46.5335C56.5001 45.6866 57.1866 45.0001 58.0335 45.0001C58.8803 45.0001 59.5668 45.6866 59.5668 46.5335V49.2169C59.5668 50.0636 58.8803 50.7501 58.0335 50.7501C57.1866 50.7501 56.5001 50.0637 56.5001 49.2169V46.5335Z" fill="white" stroke="white"/>
</svg>
