<svg width="90" height="90" viewBox="0 0 90 90" fill="none" xmlns="http://www.w3.org/2000/svg">
<rect width="90" height="90" rx="24" fill="#76C96E"/>
<path d="M60.3923 34.1544L45.3538 27.4667C45.2431 27.4147 45.1223 27.3877 45 27.3877C44.8777 27.3877 44.7568 27.4147 44.6461 27.4667L29.6077 34.1544C29.4522 34.2223 29.3195 34.3334 29.2254 34.4746C29.1312 34.6157 29.0797 34.781 29.0769 34.9506V39.6921C29.0769 48.3967 34.2784 58.9414 44.6815 62.586C44.888 62.6561 45.1119 62.6561 45.3184 62.586C55.7215 58.9414 60.9231 48.3967 60.9231 39.6921V34.9506C60.9202 34.781 60.8687 34.6157 60.7746 34.4746C60.6805 34.3334 60.5478 34.2223 60.3923 34.1544ZM53.2941 40.0106L43.9526 51.9034C43.8168 52.0748 43.6464 52.2157 43.4526 52.3169C43.2587 52.4181 43.0457 52.4774 42.8274 52.4907L42.7354 52.4943C42.324 52.4936 41.9297 52.3301 41.6384 52.0396L36.8261 47.2273C36.5359 46.9364 36.3732 46.5421 36.3737 46.1311C36.3741 45.7202 36.5379 45.3263 36.8288 45.0361C37.1197 44.7459 37.514 44.5831 37.9249 44.5836C38.3359 44.5841 38.7298 44.7478 39.02 45.0387L42.5974 48.6161L50.8597 38.098C51.118 37.7885 51.4867 37.5918 51.8877 37.5497C52.2886 37.5075 52.6902 37.6233 53.0072 37.8724C53.3242 38.1215 53.5317 38.4843 53.5856 38.8838C53.6395 39.2834 53.5356 39.6882 53.2959 40.0124L53.2941 40.0106Z" fill="white"/>
</svg>
