<svg width="25" height="24" viewBox="0 0 25 24" fill="none" xmlns="http://www.w3.org/2000/svg">
<path d="M20.5308 6.34151L12.6846 2.85228C12.6269 2.82512 12.5638 2.81104 12.5 2.81104C12.4362 2.81104 12.3731 2.82512 12.3154 2.85228L4.46923 6.34151C4.3881 6.3769 4.31886 6.43488 4.26976 6.50853C4.22066 6.58217 4.19377 6.66839 4.19231 6.75689V9.23074C4.19231 13.7723 6.90615 19.2738 12.3338 21.1754C12.4416 21.2119 12.5584 21.2119 12.6662 21.1754C18.0938 19.2738 20.8077 13.7723 20.8077 9.23074V6.75689C20.8062 6.66839 20.7793 6.58217 20.7302 6.50853C20.6811 6.43488 20.6119 6.3769 20.5308 6.34151ZM16.8274 9.39689L11.9535 15.6018C11.8827 15.6913 11.7938 15.7648 11.6926 15.8176C11.5915 15.8704 11.4804 15.9013 11.3665 15.9083L11.3185 15.9101C11.1038 15.9098 10.8981 15.8245 10.7462 15.6729L8.23538 13.1621C8.08397 13.0103 7.99905 12.8046 7.99931 12.5902C7.99956 12.3758 8.08498 12.1703 8.23677 12.0189C8.38855 11.8675 8.59427 11.7826 8.80867 11.7828C9.02307 11.7831 9.22858 11.8685 9.38 12.0203L11.2465 13.8867L15.5572 8.39904C15.692 8.23754 15.8844 8.13491 16.0936 8.11293C16.3028 8.09094 16.5123 8.15134 16.6777 8.2813C16.8431 8.41126 16.9513 8.60055 16.9794 8.80901C17.0076 9.01746 16.9533 9.22867 16.8283 9.39781L16.8274 9.39689Z" fill="#76C96E"/>
</svg>
