<svg width="25" height="24" viewBox="0 0 25 24" fill="none" xmlns="http://www.w3.org/2000/svg">
<path fill-rule="evenodd" clip-rule="evenodd" d="M6.55998 4.36318C6.78495 4.58822 6.91133 4.89339 6.91133 5.21158C6.91133 5.52978 6.78495 5.83495 6.55998 6.05998C5.77988 6.84001 5.16106 7.76605 4.73887 8.78525C4.31668 9.80444 4.09938 10.8968 4.09938 12C4.09938 13.1032 4.31668 14.1955 4.73887 15.2147C5.16106 16.2339 5.77988 17.16 6.55998 17.94C6.6746 18.0507 6.76601 18.1831 6.82891 18.3295C6.8918 18.4759 6.9249 18.6334 6.92628 18.7927C6.92767 18.952 6.89731 19.1101 6.83697 19.2575C6.77663 19.405 6.68753 19.539 6.57486 19.6517C6.46219 19.7643 6.3282 19.8534 6.18073 19.9138C6.03325 19.9741 5.87524 20.0045 5.7159 20.0031C5.55657 20.0017 5.3991 19.9686 5.2527 19.9057C5.10629 19.8428 4.97388 19.7514 4.86318 19.6368C3.8603 18.6339 3.06476 17.4433 2.522 16.133C1.97924 14.8227 1.69989 13.4183 1.69989 12C1.69989 10.5817 1.97924 9.1773 2.522 7.86697C3.06476 6.55665 3.8603 5.36606 4.86318 4.36318C5.08822 4.13822 5.39339 4.01184 5.71158 4.01184C6.02978 4.01184 6.33495 4.13822 6.55998 4.36318ZM18.44 4.36318C18.665 4.13822 18.9702 4.01184 19.2884 4.01184C19.6066 4.01184 19.9118 4.13822 20.1368 4.36318C21.1397 5.36606 21.9352 6.55665 22.478 7.86697C23.0207 9.1773 23.3001 10.5817 23.3001 12C23.3001 13.4183 23.0207 14.8227 22.478 16.133C21.9352 17.4433 21.1397 18.6339 20.1368 19.6368C20.0261 19.7514 19.8937 19.8428 19.7473 19.9057C19.6009 19.9686 19.4434 20.0017 19.2841 20.0031C19.1247 20.0045 18.9667 19.9741 18.8192 19.9138C18.6718 19.8534 18.5378 19.7643 18.4251 19.6517C18.3124 19.539 18.2233 19.405 18.163 19.2575C18.1027 19.1101 18.0723 18.952 18.0737 18.7927C18.0751 18.6334 18.1082 18.4759 18.1711 18.3295C18.234 18.1831 18.3254 18.0507 18.44 17.94C19.2201 17.16 19.8389 16.2339 20.2611 15.2147C20.6833 14.1955 20.9006 13.1032 20.9006 12C20.9006 10.8968 20.6833 9.80444 20.2611 8.78525C19.8389 7.76605 19.2201 6.84001 18.44 6.05998C18.215 5.83495 18.0886 5.52978 18.0886 5.21158C18.0886 4.89339 18.215 4.58822 18.44 4.36318ZM9.95478 7.75678C10.1797 7.98182 10.3061 8.28699 10.3061 8.60518C10.3061 8.92338 10.1797 9.22855 9.95478 9.45358C9.62043 9.78788 9.3552 10.1848 9.17424 10.6216C8.99329 11.0584 8.90015 11.5266 8.90015 11.9994C8.90015 12.4722 8.99329 12.9404 9.17424 13.3772C9.3552 13.814 9.62043 14.2109 9.95478 14.5452C10.0662 14.6567 10.1546 14.789 10.2148 14.9347C10.2751 15.0803 10.3061 15.2364 10.306 15.394C10.306 15.5516 10.2749 15.7077 10.2145 15.8533C10.1541 15.9989 10.0657 16.1312 9.95418 16.2426C9.84269 16.354 9.71035 16.4424 9.5647 16.5026C9.41906 16.5629 9.26298 16.5939 9.10536 16.5938C8.94774 16.5938 8.79168 16.5627 8.64608 16.5023C8.50048 16.4419 8.3682 16.3535 8.25678 16.242C7.13196 15.1168 6.50006 13.591 6.50006 12C6.50006 10.409 7.13196 8.88315 8.25678 7.75798C8.36823 7.64641 8.50058 7.5579 8.64625 7.49751C8.79193 7.43712 8.94809 7.40604 9.10578 7.40604C9.26348 7.40604 9.41963 7.43712 9.56531 7.49751C9.71099 7.5579 9.84334 7.64521 9.95478 7.75678ZM15.0452 7.75798C15.1566 7.64641 15.289 7.5579 15.4347 7.49751C15.5803 7.43712 15.7365 7.40604 15.8942 7.40604C16.0519 7.40604 16.208 7.43712 16.3537 7.49751C16.4994 7.5579 16.6317 7.64641 16.7432 7.75798C17.3005 8.31516 17.7426 8.97666 18.0442 9.70472C18.3459 10.4328 18.5011 11.2131 18.5011 12.0012C18.5011 12.7892 18.3459 13.5696 18.0442 14.2977C17.7426 15.0257 17.3005 15.6872 16.7432 16.2444C16.518 16.4696 16.2126 16.5961 15.8942 16.5961C15.5757 16.5961 15.2704 16.4696 15.0452 16.2444C14.82 16.0192 14.6935 15.7138 14.6935 15.3954C14.6935 15.0769 14.82 14.7716 15.0452 14.5464C15.7201 13.8713 16.0992 12.9558 16.0992 12.0012C16.0992 11.0466 15.7201 10.1311 15.0452 9.45598C14.9336 9.34454 14.8451 9.21219 14.7847 9.06651C14.7243 8.92084 14.6932 8.76468 14.6932 8.60698C14.6932 8.44929 14.7243 8.29313 14.7847 8.14746C14.8451 8.00178 14.9336 7.86943 15.0452 7.75798ZM12.5 10.8C12.8182 10.8 13.1235 10.9264 13.3485 11.1515C13.5736 11.3765 13.7 11.6817 13.7 12V12.012C13.7 12.3302 13.5736 12.6355 13.3485 12.8605C13.1235 13.0856 12.8182 13.212 12.5 13.212C12.1817 13.212 11.8765 13.0856 11.6515 12.8605C11.4264 12.6355 11.3 12.3302 11.3 12.012V12C11.3 11.6817 11.4264 11.3765 11.6515 11.1515C11.8765 10.9264 12.1817 10.8 12.5 10.8Z" fill="#76C96E"/>
</svg>
